<svg xmlns="http://www.w3.org/2000/svg" xmlns:xlink="http://www.w3.org/1999/xlink" width="90" viewBox="0 0 90 30" height="30" version="1.0"><defs><g id="a"><path d="M 9.742188 -14.976562 C 8.101562 -14.71875 6.488281 -14.460938 4.847656 -14.203125 C 3.296875 -13.941406 2.671875 -13.1875 2.5 -11.636719 C 2.089844 -8.039062 1.660156 -4.4375 1.097656 -0.863281 C 0.777344 1.164062 3.878906 2.046875 4.203125 0 C 4.460938 -1.703125 4.71875 -3.40625 4.933594 -5.105469 C 6.183594 -5.367188 7.414062 -5.496094 8.683594 -5.515625 C 10.753906 -5.539062 10.753906 -8.769531 8.683594 -8.75 C 7.5625 -8.726562 6.464844 -8.640625 5.367188 -8.46875 C 5.386719 -8.554688 5.386719 -8.664062 5.410156 -8.769531 C 5.472656 -9.417969 5.6875 -10.191406 5.644531 -10.839844 C 5.644531 -10.925781 5.644531 -10.992188 5.667969 -11.078125 C 5.90625 -11.097656 6.164062 -11.140625 6.207031 -11.164062 C 7.671875 -11.378906 9.136719 -11.617188 10.601562 -11.851562 C 12.648438 -12.175781 11.765625 -15.277344 9.742188 -14.976562 Z M 9.742188 -14.976562"/></g><g id="b"><path d="M 12.585938 -12.261719 C 12.328125 -14.289062 9.09375 -14.308594 9.351562 -12.261719 C 9.652344 -9.890625 9.308594 -5.949219 6.789062 -4.742188 C 4.074219 -3.449219 4.265625 -11.183594 4.351562 -12.476562 C 4.503906 -14.546875 1.269531 -14.523438 1.121094 -12.476562 C 0.863281 -8.835938 1.25 -0.453125 6.917969 -1.421875 C 11.507812 -2.199219 13.082031 -8.382812 12.585938 -12.261719 Z M 12.585938 -12.261719"/></g><g id="c"><path d="M 9.480469 -13.082031 C 9.136719 -10.753906 8.726562 -8.425781 8.296875 -6.121094 L 6.378906 -10.515625 C 5.820312 -11.832031 3.769531 -11.355469 3.425781 -10.128906 C 2.519531 -6.765625 1.746094 -3.363281 1.097656 0.0429688 C 0.710938 2.089844 3.835938 2.953125 4.222656 0.90625 C 4.570312 -0.96875 4.976562 -2.84375 5.410156 -4.71875 C 6.097656 -3.144531 6.765625 -1.59375 7.457031 -0.0234375 C 8.015625 1.269531 10.128906 0.882812 10.410156 -0.410156 C 11.269531 -4.308594 12.003906 -8.253906 12.585938 -12.21875 C 12.886719 -14.246094 9.761719 -15.128906 9.480469 -13.082031 Z M 9.480469 -13.082031"/></g><g id="d"><path d="M 9.785156 -9.007812 C 8.210938 -8.964844 5.195312 -8.8125 6.078125 -6.335938 C 6.550781 -4.976562 8.210938 -4.976562 8.941406 -5.753906 C 9.050781 -5.753906 9.160156 -5.753906 9.246094 -5.753906 C 9.289062 -5.753906 9.332031 -5.753906 9.351562 -5.753906 C 9.332031 -5.601562 9.332031 -5.472656 9.289062 -5.386719 C 9.179688 -5.105469 9.007812 -4.828125 8.792969 -4.613281 C 7.738281 -3.535156 5.195312 -4.136719 4.546875 -5.472656 C 3.1875 -8.296875 6.488281 -13.835938 9.871094 -12.671875 C 11.832031 -11.980469 12.691406 -15.085938 10.730469 -15.773438 C 2.929688 -18.511719 -3.40625 -3.640625 5.148438 -1.226562 C 6.917969 -0.734375 8.835938 -0.648438 10.367188 -1.722656 C 11.765625 -2.714844 12.628906 -4.417969 12.714844 -6.097656 C 12.777344 -8.101562 11.703125 -9.03125 9.785156 -9.007812 Z M 9.785156 -9.007812"/></g><g id="f"><path d="M 2.046875 -13.273438 C 1.617188 -9.394531 1.292969 -5.496094 1.078125 -1.59375 C 0.949219 0.496094 4.179688 0.472656 4.308594 -1.59375 C 4.527344 -5.496094 4.847656 -9.394531 5.28125 -13.273438 C 5.496094 -15.34375 2.261719 -15.34375 2.046875 -13.273438 Z M 2.046875 -13.273438"/></g></defs><g fill="#771515"><use x="8.243" y="21.25" xmlns:xlink="http://www.w3.org/1999/xlink" xlink:href="#a" xlink:type="simple" xlink:actuate="onLoad" xlink:show="embed"/></g><g fill="#771515"><use x="20.01" y="21.25" xmlns:xlink="http://www.w3.org/1999/xlink" xlink:href="#b" xlink:type="simple" xlink:actuate="onLoad" xlink:show="embed"/></g><g fill="#771515"><use x="32.681" y="21.25" xmlns:xlink="http://www.w3.org/1999/xlink" xlink:href="#c" xlink:type="simple" xlink:actuate="onLoad" xlink:show="embed"/></g><g fill="#771515"><use x="45.309" y="21.25" xmlns:xlink="http://www.w3.org/1999/xlink" xlink:href="#d" xlink:type="simple" xlink:actuate="onLoad" xlink:show="embed"/></g><g fill="#771515"><use x="58.023" y="21.25" xmlns:xlink="http://www.w3.org/1999/xlink" xlink:href="#e" xlink:type="simple" xlink:actuate="onLoad" xlink:show="embed"/></g><g fill="#771515"><use x="63.497" y="21.25" xmlns:xlink="http://www.w3.org/1999/xlink" xlink:href="#a" xlink:type="simple" xlink:actuate="onLoad" xlink:show="embed"/></g><g fill="#771515"><use x="75.263" y="21.25" xmlns:xlink="http://www.w3.org/1999/xlink" xlink:href="#f" xlink:type="simple" xlink:actuate="onLoad" xlink:show="embed"/></g></svg>