<svg xmlns="http://www.w3.org/2000/svg" width="262.5" viewBox="0 0 262.5 262.5" height="262.5" version="1.0"><defs><clipPath id="a"><path d="M 22 28.015625 L 241 28.015625 L 241 143 L 22 143 Z M 22 28.015625"/></clipPath><clipPath id="b"><path d="M 96 28.015625 L 132 28.015625 L 132 47 L 96 47 Z M 96 28.015625"/></clipPath></defs><path fill="#CDCAA4" d="M 192.332031 118.113281 C 192.332031 111.21875 169.675781 105.632812 133.632812 105.632812 C 97.589844 105.632812 74.121094 111.21875 74.121094 118.113281 C 74.121094 123.484375 40.957031 202.191406 69.320312 221.339844 C 84.8125 230 112.332031 230.464844 133.632812 230.464844 C 155.964844 230.464844 186.167969 234.253906 199.003906 224.152344 C 222.335938 205.78125 192.332031 123.484375 192.332031 118.113281"/><path fill="#360F12" d="M 138.199219 184.679688 C 139.246094 201.894531 133.632812 230.464844 133.632812 230.464844 C 133.632812 230.464844 97.128906 230.527344 78.328125 225.507812 C 77.613281 223.125 72.53125 208.925781 74.625 184.71875 C 76.6875 160.871094 89.355469 144.484375 106.160156 144.484375 C 122.964844 144.484375 136.695312 160.042969 138.199219 184.679688"/><path fill="#845333" d="M 128.0625 230.460938 C 128.0625 230.460938 127.539062 230.472656 126.59375 230.503906 C 126.1875 230.503906 125.707031 230.503906 125.167969 230.519531 C 123.785156 230.535156 121.972656 230.535156 119.855469 230.519531 C 119.390625 230.519531 118.898438 230.519531 118.402344 230.503906 C 116.765625 230.488281 114.964844 230.445312 113.074219 230.382812 C 112.59375 230.371094 112.117188 230.339844 111.621094 230.324219 C 109.910156 230.265625 108.125 230.175781 106.308594 230.054688 C 105.8125 230.023438 105.332031 229.996094 104.839844 229.964844 C 103.082031 229.832031 101.3125 229.695312 99.542969 229.515625 C 99.046875 229.472656 98.566406 229.410156 98.074219 229.363281 C 96.273438 229.171875 94.503906 228.933594 92.777344 228.675781 C 92.28125 228.601562 91.800781 228.523438 91.320312 228.4375 C 89.460938 228.121094 87.675781 227.777344 85.996094 227.359375 C 85.5 227.253906 85.019531 227.117188 84.554688 227 C 84.152344 226.878906 83.746094 226.773438 83.355469 226.65625 C 82.753906 224.421875 78.105469 210.265625 79.859375 187.554688 C 81.570312 165.191406 92.148438 149.824219 106.175781 149.824219 C 120.199219 149.824219 131.648438 164.414062 132.910156 187.527344 C 133.78125 203.675781 128.0625 230.460938 128.0625 230.460938"/><path fill="#99603C" d="M 127.078125 224.835938 C 127.078125 224.835938 126.621094 224.847656 125.800781 224.875 C 125.453125 224.875 125.035156 224.875 124.5625 224.890625 C 123.367188 224.902344 121.789062 224.902344 119.953125 224.890625 C 119.546875 224.890625 119.117188 224.890625 118.6875 224.875 C 117.269531 224.863281 115.707031 224.824219 114.0625 224.765625 C 113.648438 224.753906 113.230469 224.726562 112.800781 224.710938 C 111.316406 224.660156 109.765625 224.578125 108.191406 224.46875 C 107.757812 224.441406 107.34375 224.417969 106.914062 224.386719 C 105.386719 224.265625 103.851562 224.144531 102.3125 223.984375 C 101.886719 223.941406 101.46875 223.886719 101.039062 223.847656 C 99.472656 223.671875 97.9375 223.453125 96.441406 223.226562 C 96.007812 223.15625 95.59375 223.089844 95.175781 223.007812 C 93.558594 222.722656 92.011719 222.414062 90.550781 222.035156 C 90.121094 221.9375 89.703125 221.816406 89.300781 221.707031 C 88.949219 221.601562 88.597656 221.503906 88.257812 221.398438 C 87.738281 219.378906 83.699219 206.589844 85.222656 186.070312 C 86.707031 165.863281 95.890625 151.976562 108.070312 151.976562 C 120.253906 151.976562 130.191406 165.160156 131.285156 186.042969 C 132.039062 200.636719 127.078125 224.835938 127.078125 224.835938"/><path fill="#1F0607" d="M 181.03125 180.519531 C 181.03125 186.324219 181.542969 198.042969 175.257812 198.042969 C 170.613281 198.042969 158.136719 197.375 154.257812 197.375 C 150.378906 197.375 147.652344 189.09375 147.652344 180.289062 C 147.652344 171.484375 155.828125 164.578125 164.796875 164.578125 C 173.761719 164.578125 181.03125 171.71875 181.03125 180.519531"/><path fill="#360F12" d="M 180.09375 181.1875 C 180.09375 186.992188 179.90625 198.042969 175.257812 198.042969 C 170.613281 198.042969 157.199219 198.042969 153.320312 198.042969 C 149.441406 198.042969 147.621094 189.996094 147.621094 181.1875 C 147.621094 172.386719 154.890625 165.246094 163.859375 165.246094 C 172.824219 165.246094 180.09375 172.386719 180.09375 181.1875"/><path fill="#96D5D3" d="M 177.652344 181.257812 C 177.652344 186.191406 177.492188 195.574219 173.546875 195.574219 C 169.597656 195.574219 158.199219 195.574219 154.902344 195.574219 C 151.609375 195.574219 150.0625 188.738281 150.0625 181.257812 C 150.0625 173.777344 156.238281 167.714844 163.859375 167.714844 C 171.472656 167.714844 177.652344 173.777344 177.652344 181.257812"/><path fill="#71BABF" d="M 157.347656 194.578125 C 154.050781 194.578125 152.507812 187.738281 152.507812 180.257812 C 152.507812 175.082031 155.46875 170.585938 159.816406 168.308594 C 154.167969 170.003906 150.0625 175.160156 150.0625 181.257812 C 150.0625 188.738281 151.609375 195.574219 154.902344 195.574219 C 158.199219 195.574219 169.597656 195.574219 173.546875 195.574219 C 174.324219 195.574219 174.949219 195.199219 175.460938 194.578125 C 171.121094 194.578125 160.511719 194.578125 157.347656 194.578125"/><path fill="#360F12" d="M 161.792969 196.550781 L 165.921875 196.550781 L 165.921875 166.714844 L 161.792969 166.714844 L 161.792969 196.550781"/><path fill="#360F12" d="M 148.917969 179.570312 L 148.917969 183.691406 L 178.796875 183.691406 L 178.796875 179.570312 L 148.917969 179.570312"/><path fill="#BDEAFB" d="M 174.511719 178.597656 L 166.855469 178.597656 C 166.855469 178.597656 166.589844 172.589844 166.855469 170.734375 C 173.167969 172.164062 174.511719 178.597656 174.511719 178.597656"/><path fill="#BDEAFB" d="M 174.511719 184.679688 L 166.855469 184.679688 C 166.855469 184.679688 166.589844 191.09375 166.855469 193.078125 C 173.167969 191.554688 174.511719 184.679688 174.511719 184.679688"/><path fill="#BDEAFB" d="M 154.398438 178.632812 L 160.664062 178.632812 C 160.664062 178.632812 160.886719 172.625 160.664062 170.769531 C 155.496094 172.199219 154.398438 178.632812 154.398438 178.632812"/><path fill="#BDEAFB" d="M 154.398438 184.71875 L 160.664062 184.71875 C 160.664062 184.71875 160.886719 191.128906 160.664062 193.113281 C 155.496094 191.585938 154.398438 184.71875 154.398438 184.71875"/><path fill="#642E1F" d="M 86.910156 171.574219 L 85.996094 227.359375 C 85.5 227.253906 85.019531 227.117188 84.554688 227 L 86.910156 171.574219"/><path fill="#642E1F" d="M 94.878906 156.382812 L 92.777344 228.675781 C 92.28125 228.601562 91.800781 228.523438 91.320312 228.4375 L 94.878906 156.382812"/><path fill="#642E1F" d="M 101.449219 153.238281 L 99.542969 229.515625 C 99.046875 229.472656 98.566406 229.410156 98.074219 229.363281 L 101.449219 153.238281"/><path fill="#642E1F" d="M 108.199219 153.238281 L 106.308594 230.054688 C 105.8125 230.023438 105.332031 229.996094 104.839844 229.964844 L 108.199219 153.238281"/><path fill="#642E1F" d="M 113.992188 157.3125 L 113.074219 230.382812 C 112.59375 230.371094 112.117188 230.339844 111.621094 230.324219 L 113.992188 157.3125"/><path fill="#642E1F" d="M 120.757812 161.625 L 119.855469 230.519531 C 119.390625 230.519531 118.898438 230.519531 118.402344 230.503906 L 120.757812 161.625"/><path fill="#642E1F" d="M 126.683594 170.523438 L 126.59375 230.503906 C 126.1875 230.503906 125.707031 230.503906 125.167969 230.519531 L 126.683594 170.523438"/><path fill="#360F12" d="M 121.902344 179.191406 C 121.902344 184.050781 121.730469 193.296875 117.429688 193.296875 C 113.125 193.296875 100.691406 193.296875 97.097656 193.296875 C 93.503906 193.296875 91.820312 186.5625 91.820312 179.191406 C 91.820312 171.824219 98.554688 165.847656 106.863281 165.847656 C 115.167969 165.847656 121.902344 171.824219 121.902344 179.191406"/><path fill="#96D5D3" d="M 118.582031 179.273438 C 118.582031 183.0625 118.445312 190.265625 115.09375 190.265625 C 111.738281 190.265625 102.054688 190.265625 99.257812 190.265625 C 96.457031 190.265625 95.144531 185.015625 95.144531 179.273438 C 95.144531 173.535156 100.390625 168.878906 106.863281 168.878906 C 113.332031 168.878906 118.582031 173.535156 118.582031 179.273438"/><path fill="#71BABF" d="M 101.328125 189.5 C 98.53125 189.5 97.21875 184.253906 97.21875 178.507812 C 97.21875 174.535156 99.734375 171.085938 103.425781 169.335938 C 98.628906 170.636719 95.144531 174.59375 95.144531 179.273438 C 95.144531 185.015625 96.457031 190.265625 99.257812 190.265625 C 102.054688 190.265625 111.738281 190.265625 115.09375 190.265625 C 115.753906 190.265625 116.285156 189.976562 116.722656 189.5 C 113.035156 189.5 104.015625 189.5 101.328125 189.5"/><path fill="#360F12" d="M 105.109375 191.015625 L 108.617188 191.015625 L 108.617188 168.113281 L 105.109375 168.113281 L 105.109375 191.015625"/><path fill="#360F12" d="M 94.171875 177.980469 L 94.171875 181.144531 L 119.554688 181.144531 L 119.554688 177.980469 L 94.171875 177.980469"/><path fill="#BDEAFB" d="M 115.914062 177.234375 L 109.410156 177.234375 C 109.410156 177.234375 109.183594 172.621094 109.410156 171.195312 C 114.773438 172.292969 115.914062 177.234375 115.914062 177.234375"/><path fill="#BDEAFB" d="M 115.914062 181.902344 L 109.410156 181.902344 C 109.410156 181.902344 109.183594 186.824219 109.410156 188.347656 C 114.773438 187.175781 115.914062 181.902344 115.914062 181.902344"/><path fill="#BDEAFB" d="M 98.824219 177.261719 L 104.152344 177.261719 C 104.152344 177.261719 104.335938 172.652344 104.152344 171.222656 C 99.761719 172.324219 98.824219 177.261719 98.824219 177.261719"/><path fill="#BDEAFB" d="M 98.824219 181.929688 L 104.152344 181.929688 C 104.152344 181.929688 104.335938 186.851562 104.152344 188.375 C 99.761719 187.207031 98.824219 181.929688 98.824219 181.929688"/><path fill="#557C20" d="M 133.882812 231.214844 C 133.78125 229.53125 131.464844 222.921875 135.089844 224.011719 C 135.394531 225.273438 135.816406 226.355469 136.589844 227.394531 C 136.894531 226.074219 136.667969 224.476562 137.128906 223.25 C 138.394531 224.328125 138.5625 226.242188 139.398438 227.628906 C 139.683594 226.523438 139.039062 221.746094 141.648438 222.957031 C 142.992188 223.582031 142.613281 228.074219 143.207031 229.445312 C 143.699219 228.769531 144 227.886719 144.171875 227.007812 C 144.695312 227.363281 145.234375 227.429688 145.574219 228.191406 C 146.226562 227.324219 147.054688 227.8125 147.585938 228.691406 C 147.972656 226.667969 146.152344 221.726562 148.585938 220.757812 C 149.074219 222.480469 149.449219 226.1875 151.601562 226.433594 C 151.503906 225.78125 151.917969 225.332031 151.929688 224.765625 C 153.253906 224.371094 153.914062 225.238281 153.945312 226.4375 C 154.613281 225.144531 155.234375 221.71875 156.832031 224.28125 C 157.746094 225.738281 157.136719 229.238281 157.136719 230.964844 L 133.882812 231.214844"/><path fill="#557C20" d="M 58.15625 224.882812 C 58.074219 222.519531 56.183594 213.226562 59.140625 214.757812 C 59.386719 216.53125 59.730469 218.050781 60.363281 219.511719 C 60.609375 217.660156 60.425781 215.410156 60.800781 213.6875 C 61.832031 215.207031 61.96875 217.894531 62.648438 219.847656 C 62.882812 218.292969 62.355469 211.574219 64.480469 213.277344 C 65.574219 214.15625 65.265625 220.476562 65.75 222.402344 C 66.152344 221.445312 66.398438 220.203125 66.535156 218.96875 C 66.960938 219.46875 67.402344 219.566406 67.679688 220.640625 C 68.210938 219.417969 68.886719 220.101562 69.320312 221.339844 C 69.632812 218.496094 68.152344 211.546875 70.136719 210.1875 C 70.53125 212.605469 70.835938 217.816406 72.589844 218.160156 C 72.511719 217.246094 72.847656 216.613281 72.859375 215.816406 C 73.933594 215.265625 74.472656 216.480469 74.496094 218.171875 C 75.042969 216.347656 75.546875 211.535156 76.851562 215.136719 C 77.59375 217.183594 78.328125 223.082031 78.328125 225.507812 L 58.15625 224.882812"/><path fill="#BDBCBC" d="M 170.320312 224.402344 C 171.570312 223.113281 173.425781 223.570312 174.835938 222.683594 C 176.433594 221.671875 177.339844 219.183594 179.449219 218.527344 C 180.882812 218.085938 184.210938 218.210938 185.449219 218.914062 C 188.488281 220.632812 191.570312 225.039062 187.960938 227.785156 C 185.066406 229.988281 179.699219 230.203125 176.140625 230.78125 C 174.234375 231.089844 167.335938 232.578125 166.738281 230.054688 C 166.136719 227.53125 168.988281 225.78125 170.320312 224.402344"/><path fill="#DCDBDB" d="M 175.859375 225.308594 C 175.417969 225.308594 174.945312 225.066406 174.492188 224.828125 C 174.042969 224.585938 173.609375 224.34375 173.25 224.34375 C 173.222656 224.34375 173.195312 224.34375 173.171875 224.347656 C 172.023438 224.46875 171.011719 224.652344 170.53125 224.652344 C 170.242188 224.652344 170.144531 224.585938 170.320312 224.402344 C 171.570312 223.113281 173.425781 223.570312 174.835938 222.683594 C 175.140625 222.488281 175.386719 222.40625 175.589844 222.40625 C 176.15625 222.40625 176.332031 223.070312 176.21875 223.867188 C 176.160156 224.28125 177.0625 224.820312 176.359375 225.191406 C 176.199219 225.273438 176.03125 225.308594 175.859375 225.308594"/><path fill="#D0D0D0" d="M 170.21875 231.5 L 170.21875 231.5 M 170.226562 231.5 C 172.308594 231.496094 174.753906 231.019531 175.929688 230.816406 C 174.753906 231.019531 172.308594 231.496094 170.226562 231.5 M 175.9375 230.816406 C 175.957031 230.8125 175.980469 230.808594 176.003906 230.804688 C 175.980469 230.808594 175.957031 230.8125 175.9375 230.816406"/><path fill="#9D9B9B" d="M 170.21875 231.5 C 168.496094 231.5 167.023438 231.167969 166.746094 230.082031 C 166.742188 230.078125 166.742188 230.074219 166.738281 230.070312 C 166.738281 230.066406 166.738281 230.0625 166.738281 230.054688 C 166.722656 229.984375 166.734375 229.921875 166.722656 229.855469 C 166.800781 229.867188 166.863281 229.902344 166.953125 229.902344 C 168.128906 229.917969 169.316406 229.949219 170.5 229.949219 C 175.109375 229.949219 179.648438 229.496094 183.148438 225.988281 C 185.167969 223.957031 185.320312 220.804688 184.023438 218.46875 C 184.597656 218.574219 185.105469 218.71875 185.449219 218.914062 C 187.507812 220.078125 189.585938 222.480469 189.59375 224.761719 C 189.59375 225.84375 189.125 226.902344 187.960938 227.785156 C 185.066406 229.988281 179.699219 230.203125 176.140625 230.78125 C 176.132812 230.785156 176.121094 230.785156 176.113281 230.785156 C 176.078125 230.792969 176.042969 230.800781 176.003906 230.804688 C 175.980469 230.808594 175.957031 230.8125 175.9375 230.816406 C 175.933594 230.816406 175.933594 230.816406 175.929688 230.816406 C 174.753906 231.019531 172.308594 231.496094 170.226562 231.5 C 170.222656 231.5 170.222656 231.5 170.21875 231.5"/><path fill="#9D9B9B" d="M 180.40625 224.738281 C 180.1875 224.738281 179.972656 224.710938 179.796875 224.601562 C 179.644531 224.503906 179.6875 224.425781 179.480469 224.378906 C 179.453125 224.371094 179.425781 224.371094 179.394531 224.371094 C 179.332031 224.371094 179.265625 224.382812 179.199219 224.390625 C 179.132812 224.398438 179.066406 224.410156 179.003906 224.410156 C 178.949219 224.410156 178.902344 224.398438 178.859375 224.382812 C 178.550781 224.238281 178.519531 223.722656 178.152344 223.535156 C 178.042969 223.480469 177.933594 223.46875 177.832031 223.46875 C 177.796875 223.46875 177.765625 223.46875 177.730469 223.472656 C 177.699219 223.472656 177.667969 223.472656 177.632812 223.472656 C 177.539062 223.472656 177.449219 223.464844 177.359375 223.421875 C 177.160156 223.316406 177.054688 223.011719 177.015625 222.820312 L 177.703125 222.570312 C 178.21875 222.617188 178.519531 222.6875 178.898438 223.027344 C 179.1875 223.292969 179.464844 223.234375 179.808594 223.34375 C 179.988281 223.398438 180.09375 223.488281 180.257812 223.601562 C 180.511719 223.773438 180.765625 223.980469 181.078125 223.980469 C 181.109375 223.980469 181.140625 223.980469 181.175781 223.976562 C 181.488281 223.933594 181.621094 223.710938 181.859375 223.539062 C 182 223.4375 182.355469 223.308594 182.632812 223.308594 C 182.769531 223.308594 182.886719 223.339844 182.949219 223.421875 C 183.460938 224.085938 182.011719 224.398438 181.710938 224.566406 C 181.53125 224.667969 181.574219 224.691406 181.359375 224.722656 C 181.3125 224.730469 181.257812 224.734375 181.207031 224.734375 C 181.101562 224.734375 180.992188 224.722656 180.894531 224.722656 C 180.738281 224.722656 180.570312 224.738281 180.40625 224.738281"/><path fill="#9D9B9B" d="M 173.679688 227.664062 C 173.675781 227.664062 173.675781 227.664062 173.671875 227.664062 C 173.59375 227.664062 173.3125 227.457031 173.265625 227.398438 C 173.167969 227.273438 173.203125 227.261719 173.171875 227.097656 C 173.113281 226.792969 173.003906 226.5 172.796875 226.242188 C 172.660156 226.070312 172.503906 226.039062 172.339844 226.039062 C 172.292969 226.039062 172.246094 226.042969 172.195312 226.042969 C 172.148438 226.046875 172.097656 226.050781 172.046875 226.050781 C 171.988281 226.050781 171.929688 226.046875 171.867188 226.035156 C 171.539062 225.980469 171.292969 225.59375 171.703125 225.410156 C 171.75 225.386719 171.800781 225.375 171.851562 225.375 C 172.09375 225.375 172.332031 225.609375 172.515625 225.683594 C 172.957031 225.867188 173.792969 225.796875 174.109375 226.222656 L 174.234375 227.125 C 174.03125 227.277344 173.917969 227.664062 173.679688 227.664062"/><g clip-path="url(#a)"><path fill="#D4203E" d="M 240.097656 110.296875 C 238.902344 115.4375 235.722656 119.898438 230.832031 123.707031 C 222.875 129.921875 210.359375 134.410156 194.375 137.421875 C 185.414062 139.105469 175.351562 140.320312 164.378906 141.089844 C 154.101562 141.839844 143.011719 142.191406 131.3125 142.191406 C 114.792969 142.191406 99.394531 141.230469 85.707031 139.410156 C 73.164062 137.75 62.074219 135.414062 52.785156 132.46875 C 35.304688 126.953125 24.328125 119.3125 22.644531 110.296875 C 21.542969 104.359375 24.984375 95.179688 31.839844 85.085938 C 37.714844 76.417969 46.113281 67.046875 56.316406 58.472656 C 67.734375 48.871094 81.402344 40.25 96.355469 34.664062 C 107.445312 30.507812 119.261719 28.003906 131.359375 28.003906 C 148.042969 28.003906 164.117188 33.121094 178.582031 40.855469 C 189.460938 46.652344 199.40625 53.964844 208.015625 61.671875 C 218.523438 71.113281 226.996094 81.160156 232.609375 89.898438 C 238.273438 98.707031 241.058594 106.160156 240.097656 110.296875"/></g><path fill="#FFF" d="M 146.101562 79.105469 C 146.101562 89.105469 137.984375 97.210938 127.964844 97.210938 C 117.949219 97.210938 109.832031 89.105469 109.832031 79.105469 C 109.832031 69.105469 117.949219 60.996094 127.964844 60.996094 C 137.984375 60.996094 146.101562 69.105469 146.101562 79.105469"/><path fill="#FFF" d="M 88.773438 129.339844 C 88.773438 133.074219 87.648438 136.535156 85.707031 139.410156 C 73.164062 137.75 62.074219 135.414062 52.785156 132.46875 C 52.597656 131.464844 52.503906 130.414062 52.503906 129.339844 C 52.503906 119.339844 60.621094 111.230469 70.636719 111.230469 C 80.652344 111.230469 88.773438 119.339844 88.773438 129.339844"/><path fill="#FFF" d="M 61.277344 70.925781 C 61.277344 80.925781 53.160156 89.035156 43.140625 89.035156 C 38.859375 89.035156 34.929688 87.5625 31.839844 85.085938 C 37.714844 76.417969 46.113281 67.046875 56.316406 58.472656 C 59.382812 61.699219 61.277344 66.089844 61.277344 70.925781"/><g clip-path="url(#b)"><path fill="#FFF" d="M 131.359375 28.003906 C 131.359375 38.007812 123.242188 46.113281 113.226562 46.113281 C 105.574219 46.113281 99 41.371094 96.355469 34.664062 C 107.445312 30.507812 119.261719 28.003906 131.359375 28.003906"/></g><path fill="#FFF" d="M 208.015625 61.671875 C 204.929688 67.1875 198.988281 70.925781 192.199219 70.925781 C 182.183594 70.925781 174.0625 62.820312 174.0625 52.816406 C 174.0625 48.238281 175.773438 44.035156 178.582031 40.855469 C 189.460938 46.652344 199.40625 53.964844 208.015625 61.671875"/><path fill="#FFF" d="M 196.296875 129.339844 C 196.296875 132.234375 195.617188 134.992188 194.375 137.421875 C 185.414062 139.105469 175.351562 140.320312 164.378906 141.089844 C 161.660156 137.9375 160.023438 133.824219 160.023438 129.339844 C 160.023438 119.339844 168.144531 111.230469 178.160156 111.230469 C 188.175781 111.230469 196.296875 119.339844 196.296875 129.339844"/><path fill="#FFF" d="M 240.097656 110.296875 C 238.902344 115.4375 235.722656 119.898438 230.832031 123.707031 C 224.441406 120.925781 220 114.546875 220 107.140625 C 220 99.058594 225.3125 92.210938 232.609375 89.898438 C 238.273438 98.707031 241.058594 106.160156 240.097656 110.296875"/><path fill="#B61934" d="M 131.3125 142.191406 C 114.792969 142.191406 99.394531 141.230469 85.707031 139.410156 C 87.648438 136.535156 88.773438 133.074219 88.773438 129.339844 C 88.773438 127.542969 88.511719 125.8125 88.023438 124.171875 C 90.230469 124.5625 92.441406 124.800781 94.609375 124.800781 C 98.5 124.800781 102.238281 124.03125 105.539062 121.992188 C 108.078125 120.417969 110.496094 118.742188 111.417969 115.707031 C 112.039062 113.675781 112.46875 111.628906 112.941406 109.554688 C 114.464844 102.886719 119.132812 101.566406 124.011719 101.566406 C 126.765625 101.566406 129.589844 101.988281 131.949219 102.109375 C 132.179688 102.117188 132.421875 102.125 132.671875 102.125 C 138.761719 102.125 150.648438 98.699219 150.066406 90.898438 C 149.859375 88.125 149.292969 87.132812 147.039062 85.304688 C 146.414062 84.796875 145.894531 84.300781 145.476562 83.828125 C 145.882812 82.320312 146.101562 80.738281 146.101562 79.105469 C 146.101562 78.523438 146.074219 77.949219 146.019531 77.378906 C 148.941406 74.957031 154.34375 73.386719 156.503906 72.285156 C 163.253906 68.835938 165.988281 62.964844 165.289062 55.527344 C 164.550781 47.71875 159.523438 38.195312 152.78125 30.773438 C 161.765625 33.023438 170.4375 36.5 178.582031 40.855469 C 175.773438 44.035156 174.0625 48.238281 174.0625 52.816406 C 174.0625 62.820312 182.183594 70.925781 192.199219 70.925781 C 198.988281 70.925781 204.929688 67.1875 208.015625 61.671875 C 218.523438 71.113281 226.996094 81.160156 232.609375 89.898438 C 225.3125 92.210938 220 99.058594 220 107.140625 C 220 114.546875 224.441406 120.925781 230.832031 123.707031 C 222.875 129.921875 210.359375 134.410156 194.375 137.421875 C 195.617188 134.992188 196.296875 132.234375 196.296875 129.339844 C 196.296875 119.339844 188.175781 111.230469 178.160156 111.230469 C 168.144531 111.230469 160.023438 119.339844 160.023438 129.339844 C 160.023438 133.824219 161.660156 137.9375 164.378906 141.089844 C 154.101562 141.839844 143.011719 142.191406 131.3125 142.191406 M 52.785156 132.46875 C 46.066406 130.347656 40.320312 127.914062 35.679688 125.207031 C 38.4375 122.722656 42 120.734375 45.039062 119.210938 C 48.792969 117.320312 52.558594 116.582031 56.335938 116.582031 C 56.800781 116.582031 57.269531 116.59375 57.734375 116.617188 C 54.5 119.886719 52.503906 124.378906 52.503906 129.339844 C 52.503906 130.414062 52.597656 131.464844 52.785156 132.46875"/><path fill="#D79BBE" d="M 145.476562 83.828125 C 143.15625 81.175781 143.984375 79.070312 146.019531 77.378906 C 146.074219 77.949219 146.101562 78.523438 146.101562 79.105469 C 146.101562 80.738281 145.882812 82.320312 145.476562 83.828125"/><path fill="#D79BBE" d="M 85.707031 139.410156 C 73.164062 137.75 62.074219 135.414062 52.785156 132.46875 C 52.597656 131.464844 52.503906 130.414062 52.503906 129.339844 C 52.503906 124.378906 54.5 119.886719 57.734375 116.617188 C 62.257812 116.824219 66.804688 118.011719 71.371094 119.460938 C 76.230469 121 82.109375 123.128906 88.023438 124.171875 C 88.511719 125.8125 88.773438 127.542969 88.773438 129.339844 C 88.773438 133.074219 87.648438 136.535156 85.707031 139.410156"/><path fill="#D79BBE" d="M 192.199219 70.925781 C 182.183594 70.925781 174.0625 62.820312 174.0625 52.816406 C 174.0625 48.238281 175.773438 44.035156 178.582031 40.855469 C 189.460938 46.652344 199.40625 53.964844 208.015625 61.671875 C 204.929688 67.1875 198.988281 70.925781 192.199219 70.925781"/><path fill="#D79BBE" d="M 164.378906 141.089844 C 161.660156 137.9375 160.023438 133.824219 160.023438 129.339844 C 160.023438 119.339844 168.144531 111.230469 178.160156 111.230469 C 188.175781 111.230469 196.296875 119.339844 196.296875 129.339844 C 196.296875 132.234375 195.617188 134.992188 194.375 137.421875 C 185.414062 139.105469 175.351562 140.320312 164.378906 141.089844"/><path fill="#D79BBE" d="M 230.832031 123.707031 C 224.441406 120.925781 220 114.546875 220 107.140625 C 220 99.058594 225.3125 92.210938 232.609375 89.898438 C 237.535156 97.5625 240.285156 104.203125 240.285156 108.523438 C 240.285156 109.167969 240.222656 109.757812 240.097656 110.296875 C 238.902344 115.4375 235.722656 119.898438 230.832031 123.707031"/></svg>