<?xml version="1.0" encoding="UTF-8" ?>
<!DOCTYPE svg PUBLIC "-//W3C//DTD SVG 1.1//EN" "http://www.w3.org/Graphics/SVG/1.1/DTD/svg11.dtd">
<svg width="225pt" height="225pt" viewBox="0 0 225 225" version="1.1" xmlns="http://www.w3.org/2000/svg">
<g id="#ffffffff">
<path fill="#ffffff" opacity="1.00" d=" M 157.02 70.08 C 160.18 67.42 164.49 64.29 168.77 66.25 C 172.79 68.70 174.44 73.54 175.65 77.84 C 178.57 91.34 179.29 105.21 179.91 118.97 C 179.85 128.30 181.04 137.67 180.07 146.97 C 179.66 150.34 178.77 154.80 175.04 155.92 C 169.47 156.54 164.19 154.08 159.34 151.64 C 147.30 145.29 136.10 137.53 124.59 130.29 C 123.24 129.44 121.36 127.72 122.94 126.12 C 124.82 123.76 126.63 120.19 129.96 119.99 C 137.60 125.44 145.26 130.90 153.28 135.80 C 155.91 137.19 158.93 138.82 161.99 137.96 C 164.04 137.20 164.91 134.96 165.19 132.96 C 167.11 118.64 166.31 103.87 162.03 90.04 C 161.18 87.83 159.47 85.54 156.91 85.37 C 153.05 85.21 149.74 87.59 146.77 89.77 C 136.50 97.77 128.70 108.35 119.20 117.18 C 105.96 129.63 92.59 141.94 78.83 153.81 C 74.05 157.80 69.10 162.04 63.05 163.89 C 59.00 165.09 56.18 161.25 54.89 157.98 C 50.30 146.59 49.22 134.21 48.28 122.07 C 47.75 110.04 47.75 97.98 48.31 85.94 C 48.74 81.83 49.23 77.30 52.12 74.10 C 54.02 71.92 57.35 72.01 59.64 73.50 C 73.88 81.54 88.23 89.39 102.39 97.57 C 104.57 98.82 107.19 101.14 105.94 103.94 C 104.42 107.21 101.78 109.89 98.80 111.87 C 95.86 109.17 93.53 104.50 89.30 104.06 C 83.47 109.29 77.97 114.90 72.07 120.07 C 70.88 121.13 69.42 121.83 67.91 122.29 C 65.81 118.95 64.70 113.88 67.96 110.89 C 72.50 106.67 77.23 102.65 81.92 98.61 C 81.98 98.27 82.11 97.59 82.17 97.24 C 78.72 95.45 74.98 94.30 71.50 92.54 C 69.52 91.54 66.52 91.08 65.09 93.21 C 63.10 95.63 62.70 98.87 62.24 101.86 C 61.40 109.74 62.26 117.67 63.31 125.49 C 64.20 130.86 65.09 136.40 67.74 141.24 C 68.73 143.10 70.71 144.99 73.00 144.27 C 76.12 143.39 78.59 141.15 81.09 139.19 C 107.99 117.96 132.28 93.72 157.02 70.08 Z" />
</g>
<g id="#0055d5ff">
<path fill="#0055d5" opacity="1.00" d=" M 110.41 0.00 L 114.61 0.00 C 142.19 0.61 169.48 11.50 189.47 30.60 C 208.29 48.12 220.73 72.35 223.94 97.88 C 224.48 102.68 224.78 107.51 225.00 112.34 L 225.00 112.73 C 224.69 131.35 220.27 149.98 211.19 166.31 C 196.41 193.69 169.73 214.35 139.47 221.66 C 131.33 223.74 122.94 224.53 114.58 225.00 L 110.40 225.00 C 85.67 224.37 61.13 215.74 41.94 200.03 C 19.32 181.93 4.14 154.77 0.89 125.96 C 0.56 122.45 0.25 118.94 0.00 115.43 L 0.00 109.49 C 0.55 101.93 1.14 94.35 2.97 86.97 C 9.82 56.80 29.90 30.02 56.81 14.79 C 73.06 5.40 91.70 0.53 110.41 0.00 M 157.02 70.08 C 132.28 93.72 107.99 117.96 81.09 139.19 C 78.59 141.15 76.12 143.39 73.00 144.27 C 70.71 144.99 68.73 143.10 67.74 141.24 C 65.09 136.40 64.20 130.86 63.31 125.49 C 62.26 117.67 61.40 109.74 62.24 101.86 C 62.70 98.87 63.10 95.63 65.09 93.21 C 66.52 91.08 69.52 91.54 71.50 92.54 C 74.98 94.30 78.72 95.45 82.17 97.24 C 82.11 97.59 81.98 98.27 81.92 98.61 C 77.23 102.65 72.50 106.67 67.96 110.89 C 64.70 113.88 65.81 118.95 67.91 122.29 C 69.42 121.83 70.88 121.13 72.07 120.07 C 77.97 114.90 83.47 109.29 89.30 104.06 C 93.53 104.50 95.86 109.17 98.80 111.87 C 101.78 109.89 104.42 107.21 105.94 103.94 C 107.19 101.14 104.57 98.82 102.39 97.57 C 88.23 89.39 73.88 81.54 59.64 73.50 C 57.35 72.01 54.02 71.92 52.12 74.10 C 49.23 77.30 48.74 81.83 48.31 85.94 C 47.75 97.98 47.75 110.04 48.28 122.07 C 49.22 134.21 50.30 146.59 54.89 157.98 C 56.18 161.25 59.00 165.09 63.05 163.89 C 69.10 162.04 74.05 157.80 78.83 153.81 C 92.59 141.94 105.96 129.63 119.20 117.18 C 128.70 108.35 136.50 97.77 146.77 89.77 C 149.74 87.59 153.05 85.21 156.91 85.37 C 159.47 85.54 161.18 87.83 162.03 90.04 C 166.31 103.87 167.11 118.64 165.19 132.96 C 164.91 134.96 164.04 137.20 161.99 137.96 C 158.93 138.82 155.91 137.19 153.28 135.80 C 145.26 130.90 137.60 125.44 129.96 119.99 C 126.63 120.19 124.82 123.76 122.94 126.12 C 121.36 127.72 123.24 129.44 124.59 130.29 C 136.10 137.53 147.30 145.29 159.34 151.64 C 164.19 154.08 169.47 156.54 175.04 155.92 C 178.77 154.80 179.66 150.34 180.07 146.97 C 181.04 137.67 179.85 128.30 179.91 118.97 C 179.29 105.21 178.57 91.34 175.65 77.84 C 174.44 73.54 172.79 68.70 168.77 66.25 C 164.49 64.29 160.18 67.42 157.02 70.08 Z" />
</g>
</svg>
