<?xml version="1.0" encoding="UTF-8" ?>
<!DOCTYPE svg PUBLIC "-//W3C//DTD SVG 1.1//EN" "http://www.w3.org/Graphics/SVG/1.1/DTD/svg11.dtd">
<svg width="640pt" height="640pt" viewBox="0 0 640 640" version="1.1" xmlns="http://www.w3.org/2000/svg">
<g id="#33cc33ff">
<path fill="#33cc33" opacity="1.00" d=" M 148.15 60.16 C 167.91 39.11 196.32 25.99 225.35 26.28 C 225.27 36.90 225.34 47.53 225.31 58.15 C 209.98 58.15 194.81 63.33 182.46 72.36 C 165.89 84.36 154.15 102.80 150.26 122.88 C 146.96 139.62 149.46 157.23 156.06 172.87 C 162.96 189.30 176.50 202.43 192.41 210.18 C 187.81 219.78 183.23 229.38 178.64 238.99 C 164.90 232.39 152.56 222.90 142.68 211.30 C 126.93 192.95 118.69 168.96 117.11 145.03 C 114.94 114.03 126.73 82.57 148.15 60.16 Z" />
<path fill="#33cc33" opacity="1.00" d=" M 336.05 55.76 C 367.45 46.78 401.75 48.55 432.11 60.54 C 466.46 73.88 495.57 100.23 511.95 133.27 C 533.02 125.38 554.06 117.39 575.17 109.59 C 564.56 101.76 556.32 90.83 551.73 78.47 C 561.69 74.74 571.66 71.02 581.60 67.24 C 588.05 85.65 610.58 96.06 628.71 88.56 C 632.43 98.81 636.64 108.89 639.99 119.26 C 621.02 124.37 611.39 147.81 618.50 165.52 C 608.55 169.31 598.55 172.97 588.61 176.77 C 584.21 165.02 583.11 152.08 585.47 139.76 C 564.72 147.63 543.93 155.37 523.17 163.17 C 532.73 199.14 527.99 238.53 510.53 271.36 C 496.09 299.04 472.73 321.93 444.76 335.81 C 436.64 339.91 428.05 343.00 419.52 346.12 C 388.70 309.65 357.79 273.26 326.93 236.83 C 282.73 253.45 238.49 269.98 194.30 286.64 C 190.57 276.66 186.83 266.68 183.06 256.72 C 227.26 240.09 271.48 223.54 315.68 206.92 C 315.06 159.16 314.22 111.40 313.57 63.64 C 321.01 60.88 328.38 57.88 336.05 55.76 M 345.80 86.20 C 346.38 122.46 346.96 158.73 347.43 195.00 C 392.24 178.22 437.02 161.35 481.84 144.59 C 469.27 121.16 448.59 102.26 424.16 91.81 C 399.67 81.14 371.56 79.12 345.80 86.20 M 358.70 224.90 C 382.17 252.57 405.63 280.24 429.07 307.93 C 454.90 295.53 475.79 273.39 486.76 246.92 C 496.39 224.23 498.66 198.51 493.07 174.49 C 448.27 191.27 403.50 208.11 358.70 224.90 Z" />
<path fill="#33cc33" opacity="1.00" d=" M 215.99 83.96 C 233.52 76.67 254.47 78.37 270.53 88.55 C 265.02 97.35 259.56 106.17 254.06 114.97 C 246.09 110.01 235.71 109.19 227.13 113.07 C 215.08 118.14 207.66 132.11 210.44 144.93 C 212.63 157.22 223.59 167.17 236.04 168.18 C 246.75 169.30 257.65 163.76 263.33 154.66 C 272.10 160.20 280.94 165.63 289.72 171.14 C 282.28 183.18 270.43 192.39 256.92 196.60 C 242.20 201.33 225.66 200.09 211.86 193.10 C 199.88 187.13 190.03 177.03 184.42 164.88 C 178.21 151.64 177.04 136.11 181.31 122.12 C 186.35 105.04 199.45 90.58 215.99 83.96 Z" />
<path fill="#33cc33" opacity="1.00" d=" M 147.45 347.42 C 192.49 331.03 237.49 314.55 282.50 298.09 C 282.49 309.09 282.49 320.09 282.49 331.10 C 239.95 346.73 197.39 362.32 154.84 377.92 C 133.28 386.24 115.96 405.36 110.91 428.05 C 106.83 444.69 112.02 462.28 106.71 478.72 C 101.33 496.27 86.73 510.54 69.11 515.64 C 69.08 537.84 69.10 560.04 69.10 582.23 C 82.12 582.21 95.15 582.24 108.18 582.22 C 108.19 592.59 108.19 602.96 108.18 613.33 C 84.75 613.32 61.31 613.32 37.88 613.32 C 37.87 571.12 37.88 528.91 37.87 486.71 C 45.63 486.29 53.66 487.76 61.20 485.43 C 70.75 482.37 77.86 473.01 78.10 462.96 C 78.43 449.37 77.13 435.59 80.31 422.23 C 71.04 415.57 59.26 412.44 47.92 414.04 C 38.19 415.27 29.02 419.90 22.06 426.79 C 14.76 419.43 7.42 412.11 0.07 404.79 C 13.17 391.47 31.41 383.45 50.06 382.62 C 64.60 381.86 79.30 385.44 91.92 392.68 C 104.28 371.63 124.39 355.37 147.45 347.42 Z" />
<path fill="#33cc33" opacity="1.00" d=" M 397.37 376.13 C 407.78 376.14 418.19 376.13 428.60 376.14 C 428.05 390.28 430.38 404.98 425.34 418.57 C 419.52 435.24 405.29 448.55 388.35 453.46 C 388.35 470.35 388.36 487.23 388.35 504.12 C 401.38 504.12 414.42 504.13 427.46 504.11 C 427.46 514.48 427.45 524.85 427.46 535.22 C 404.04 535.22 380.62 535.21 357.19 535.22 C 357.20 498.31 357.19 461.39 357.20 424.48 C 363.10 424.42 369.01 424.64 374.92 424.38 C 386.84 423.60 397.13 412.94 397.36 400.97 C 397.41 392.69 397.36 384.41 397.37 376.13 Z" />
<path fill="#33cc33" opacity="1.00" d=" M 173.84 462.73 C 223.02 446.11 272.19 429.46 321.37 412.81 C 320.89 453.61 321.22 494.42 321.11 535.22 C 310.76 535.22 300.41 535.21 290.06 535.22 C 290.05 508.32 290.06 481.41 290.06 454.51 C 251.26 467.67 212.49 480.93 173.69 494.11 C 173.51 523.48 173.66 552.86 173.62 582.23 C 185.69 582.22 197.76 582.24 209.83 582.22 C 209.81 592.38 209.82 602.55 209.82 612.72 C 187.37 612.69 164.93 612.78 142.48 612.71 C 142.49 573.48 142.49 534.25 142.49 495.02 C 142.38 488.00 145.18 481.05 150.02 475.98 C 156.36 469.21 165.09 465.32 173.84 462.73 Z" />
</g>
</svg>
