<svg xmlns:xlink="http://www.w3.org/1999/xlink" xmlns="http://www.w3.org/2000/svg" xmlns:vectornator="http://vectornator.io" height="1024" style="fill-rule: evenodd; clip-rule: evenodd; stroke-linecap: round; stroke-linejoin: round;" xml:space="preserve" width="1024" version="1.1"><rect id="backgroundrect" width="100%" height="100%" x="0" y="0" fill="none" stroke="none"/>
<metadata>
<vectornator:setting key="Units" value="Points"/>
<vectornator:setting key="GuidesVisible" value="1"/>
<vectornator:setting key="RulersVisible" value="1"/>
<vectornator:setting key="SnapToGuides" value="1"/>
<vectornator:setting key="DynamicGuides" value="1"/>
</metadata>
<defs>
<linearGradient y1="1.0000000087794196" id="LinearGradient" x1="8.779419658822008e-9" y2="8.779419658822008e-9" x2="1.0000000087794196">
<stop stop-color="#ff59dc" offset="0.140777"/>
<stop stop-color="#35ffe7" offset="0.859223"/>
<stop stop-opacity="0.896728" stop-color="#fffd00" offset="1"/>
</linearGradient>
</defs>

<g class="currentLayer" style=""><title>Layer 1</title><g id="Layer 1" vectornator:layerName="Layer 1" class="">
<g opacity="1" id="svg_1">
<path d="M197.97258419311044,495.7387939625134 C197.97258419311044,320.85839086817697 338.6230008627979,179.09033335105883 512.1267523000864,179.09033335105883 C685.6284704823456,179.09033335105883 826.278887152033,320.85839086817697 826.278887152033,495.7387939625134 C826.278887152033,670.6171476451041 685.6284704823456,812.385205162222 512.1267523000864,812.385205162222 C338.6230008627979,812.385205162222 197.97258419311044,670.6171476451041 197.97258419311044,495.7387939625134 z" opacity="1" fill="none" id="svg_2"/>
<path d="M317.9610632524275,374.79685860642087 C317.9610632524275,266.7108831318593 404.89084878615824,179.09033335105883 512.1247190450572,179.09033335105883 C619.356556048926,179.09033335105883 706.2863415826567,266.7108831318593 706.2863415826567,374.79685860642087 C706.2863415826567,482.8828340809827 619.356556048926,570.5033838617832 512.1247190450572,570.5033838617832 C404.89084878615824,570.5033838617832 317.9610632524275,482.8828340809827 317.9610632524275,374.79685860642087 z" opacity="1" fill="none" id="svg_3"/>
<path d="M3.833327460835673,514.5196032012104 C3.833327460835673,231.55527404405794 231.41352966425376,2.1666667461395264 512.147084850382,2.1666667461395264 C792.8806400365104,2.1666667461395264 1020.4608422399286,231.55527404405794 1020.4608422399286,514.5196032012104 C1020.4608422399286,797.483932358363 792.8806400365104,1026.8725396562813 512.147084850382,1026.8725396562813 C231.41352966425376,1026.8725396562813 3.833327460835673,797.483932358363 3.833327460835673,514.5196032012104 z" fill-rule="evenodd" fill="url(#LinearGradient)" opacity="1" id="svg_4"/>
<path d="M197.97258419311044,490.8591445957152 C197.97258419311044,490.8591445957152 198.01528254873108,570.5033838617832 512.147084850382,570.5033838617832 C826.278887152033,570.5033838617832 826.2768538970035,490.8591445957152 826.2768538970035,490.8591445957152 C826.274820641974,570.5033838617832 752.1260762240463,737.6472576156481 706.2863415826567,766.1853161761953 C660.4466069412674,794.723374736743 677.9529327457635,670.7790511730237 632.1131981043741,673.719957028276 C586.2734634629848,676.660862883528 557.9644536864462,858.5871435599945 512.1247190450572,858.5871435599945 C466.2870176586973,858.5871435599945 437.9515755667743,670.809792349211 392.1118409253851,673.7814393806506 C346.27210628399564,676.7530864120898 363.80079789381693,794.723374736743 317.9610632524275,766.1853161761953 C272.1192953560087,737.6472576156481 197.97055093808072,570.5033838617832 197.97258419311044,490.8591445957152 z" fill-rule="evenodd" fill="#ffffff" opacity="1" id="svg_5"/>
<path d="M466.28498440366775,812.385205162222 C466.28498440366775,786.8700289267596 486.8066274169985,766.1853161761953 512.1247190450572,766.1853161761953 C537.4407774180861,766.1853161761953 557.9644536864462,786.8700289267596 557.9644536864462,812.385205162222 C557.9644536864462,837.9024308094305 537.4407774180861,858.5871435599945 512.1247190450572,858.5871435599945 C486.8066274169985,858.5871435599945 466.28498440366775,837.9024308094305 466.28498440366775,812.385205162222 z" opacity="1" fill="none" id="svg_6"/>
<path d="M272.1213286110383,766.1853161761953 C272.1213286110383,740.668090528987 292.64500487939847,719.9833777784229 317.9610632524275,719.9833777784229 C343.2771216254565,719.9833777784229 363.80079789381693,740.668090528987 363.80079789381693,766.1853161761953 C363.80079789381693,791.700492411658 343.2771216254565,812.385205162222 317.9610632524275,812.385205162222 C292.64500487939847,812.385205162222 272.1213286110383,791.700492411658 272.1213286110383,766.1853161761953 z" opacity="1" fill="none" id="svg_7"/>
<path d="M660.4466069412674,766.1853161761953 C660.4466069412674,740.668090528987 680.9702832096277,719.9833777784229 706.2863415826567,719.9833777784229 C731.6044332107152,719.9833777784229 752.1260762240463,740.668090528987 752.1260762240463,766.1853161761953 C752.1260762240463,791.700492411658 731.6044332107152,812.385205162222 706.2863415826567,812.385205162222 C680.9702832096277,812.385205162222 660.4466069412674,791.700492411658 660.4466069412674,766.1853161761953 z" opacity="1" fill="none" id="svg_8"/>
<path d="M586.2734634629848,719.9526366022357 C586.2734634629848,694.4190156610606 606.7971397313454,673.719957028276 632.1131981043741,673.719957028276 C657.4312897324326,673.719957028276 677.9529327457635,694.4190156610606 677.9529327457635,719.9526366022357 C677.9529327457635,745.4862575434105 657.4312897324326,766.1853161761953 632.1131981043741,766.1853161761953 C606.7971397313454,766.1853161761953 586.2734634629848,745.4862575434105 586.2734634629848,719.9526366022357 z" opacity="1" fill="none" id="svg_9"/>
<path d="M437.9963071774247,495.7695351387007 C437.9963071774247,454.4943825778802 471.1952953000507,421.03363700387234 512.147084850382,421.03363700387234 C553.0988744007135,421.03363700387234 586.2978625233397,454.4943825778802 586.2978625233397,495.7695351387007 C586.2978625233397,504.41190447082477 584.7973203115256,518.2741255195532 582.1195234375974,525.996308977804 C572.0101794306341,555.1512404738434 544.5246379410665,570.5033838617832 512.147084850382,570.5033838617832 C471.1952953000507,570.5033838617832 437.9963071774247,537.0426382877753 437.9963071774247,495.7695351387007 z" opacity="1" fill="none" id="svg_10"/>
<path d="M272.1213286110383,490.8591445957152 C272.1213286110383,465.0447542453629 379.5747904131292,444.1161614970463 512.1247190450572,444.1161614970463 C644.6746476769845,444.1161614970463 752.1260762240463,465.0447542453629 752.1260762240463,490.8591445957152 C752.1260762240463,516.6755843578135 632.090832299049,537.6021276943843 512.1247190450572,537.6021276943843 C392.15657253603524,537.6021276943843 272.1213286110383,516.6755843578135 272.1213286110383,490.8591445957152 z" fill-rule="evenodd" fill="#ffffff" opacity="1" id="svg_11"/>
<path d="M346.29243883429126,719.9218954260484 C346.29243883429126,694.40466977884 366.8140818476221,673.719957028276 392.1321734756807,673.719957028276 C417.4482318487097,673.719957028276 437.9719081170699,694.40466977884 437.9719081170699,719.9218954260484 C437.9719081170699,745.4370716615108 417.4482318487097,766.1238338238209 392.1321734756807,766.1238338238209 C366.8140818476221,766.1238338238209 346.29243883429126,745.4370716615108 346.29243883429126,719.9218954260484 z" opacity="1" fill="none" id="svg_12"/>
<path d="M197.97258419311044,495.7387939625134 C197.97258419311044,320.85839086817697 338.6230008627979,179.09033335105883 512.1267523000864,179.09033335105883 C685.6284704823456,179.09033335105883 826.278887152033,320.85839086817697 826.278887152033,495.7387939625134 C826.278887152033,670.6171476451041 685.6284704823456,812.385205162222 512.1267523000864,812.385205162222 C338.6230008627979,812.385205162222 197.97258419311044,670.6171476451041 197.97258419311044,495.7387939625134 z" opacity="1" fill="none" id="svg_13"/>
<path d="M317.9610632524275,374.79685860642087 C317.9610632524275,266.7108831318593 404.89084878615824,179.09033335105883 512.1247190450572,179.09033335105883 C619.356556048926,179.09033335105883 706.2863415826567,266.7108831318593 706.2863415826567,374.79685860642087 C706.2863415826567,482.8828340809827 619.356556048926,570.5033838617832 512.1247190450572,570.5033838617832 C404.89084878615824,570.5033838617832 317.9610632524275,482.8828340809827 317.9610632524275,374.79685860642087 z" opacity="1" fill="none" id="svg_14"/>
<path d="M197.97258419311044,490.8591445957152 C197.97258419311044,490.8591445957152 198.01528254873108,570.5033838617832 512.147084850382,570.5033838617832 C826.278887152033,570.5033838617832 826.2768538970035,490.8591445957152 826.2768538970035,490.8591445957152 C826.274820641974,570.5033838617832 752.1260762240463,737.6472576156481 706.2863415826567,766.1853161761953 C660.4466069412674,794.723374736743 677.9529327457635,670.7790511730237 632.1131981043741,673.719957028276 C586.2734634629848,676.660862883528 557.9644536864462,858.5871435599945 512.1247190450572,858.5871435599945 C466.2870176586973,858.5871435599945 437.9515755667743,670.809792349211 392.1118409253851,673.7814393806506 C346.27210628399564,676.7530864120898 363.80079789381693,794.723374736743 317.9610632524275,766.1853161761953 C272.1192953560087,737.6472576156481 197.97055093808072,570.5033838617832 197.97258419311044,490.8591445957152 z" fill-rule="evenodd" fill="#ffffff" opacity="1" id="svg_15"/>
<path d="M466.28498440366775,812.385205162222 C466.28498440366775,786.8700289267596 486.8066274169985,766.1853161761953 512.1247190450572,766.1853161761953 C537.4407774180861,766.1853161761953 557.9644536864462,786.8700289267596 557.9644536864462,812.385205162222 C557.9644536864462,837.9024308094305 537.4407774180861,858.5871435599945 512.1247190450572,858.5871435599945 C486.8066274169985,858.5871435599945 466.28498440366775,837.9024308094305 466.28498440366775,812.385205162222 z" opacity="1" fill="none" id="svg_16"/>
<path d="M272.1213286110383,766.1853161761953 C272.1213286110383,740.668090528987 292.64500487939847,719.9833777784229 317.9610632524275,719.9833777784229 C343.2771216254565,719.9833777784229 363.80079789381693,740.668090528987 363.80079789381693,766.1853161761953 C363.80079789381693,791.700492411658 343.2771216254565,812.385205162222 317.9610632524275,812.385205162222 C292.64500487939847,812.385205162222 272.1213286110383,791.700492411658 272.1213286110383,766.1853161761953 z" opacity="1" fill="none" id="svg_17"/>
<path d="M660.4466069412674,766.1853161761953 C660.4466069412674,740.668090528987 680.9702832096277,719.9833777784229 706.2863415826567,719.9833777784229 C731.6044332107152,719.9833777784229 752.1260762240463,740.668090528987 752.1260762240463,766.1853161761953 C752.1260762240463,791.700492411658 731.6044332107152,812.385205162222 706.2863415826567,812.385205162222 C680.9702832096277,812.385205162222 660.4466069412674,791.700492411658 660.4466069412674,766.1853161761953 z" opacity="1" fill="none" id="svg_18"/>
<path d="M586.2734634629848,719.9526366022357 C586.2734634629848,694.4190156610606 606.7971397313454,673.719957028276 632.1131981043741,673.719957028276 C657.4312897324326,673.719957028276 677.9529327457635,694.4190156610606 677.9529327457635,719.9526366022357 C677.9529327457635,745.4862575434105 657.4312897324326,766.1853161761953 632.1131981043741,766.1853161761953 C606.7971397313454,766.1853161761953 586.2734634629848,745.4862575434105 586.2734634629848,719.9526366022357 z" opacity="1" fill="none" id="svg_19"/>
<path d="M437.9963071774247,495.7695351387007 C437.9963071774247,454.4943825778802 471.1952953000507,421.03363700387234 512.147084850382,421.03363700387234 C553.0988744007135,421.03363700387234 586.2978625233397,454.4943825778802 586.2978625233397,495.7695351387007 C586.2978625233397,504.41190447082477 584.7973203115256,518.2741255195532 582.1195234375974,525.996308977804 C572.0101794306341,555.1512404738434 544.5246379410665,570.5033838617832 512.147084850382,570.5033838617832 C471.1952953000507,570.5033838617832 437.9963071774247,537.0426382877753 437.9963071774247,495.7695351387007 z" opacity="1" fill="none" id="svg_20"/>
<path d="M272.1213286110383,490.8591445957152 C272.1213286110383,465.0447542453629 379.5747904131292,444.1161614970463 512.1247190450572,444.1161614970463 C644.6746476769845,444.1161614970463 752.1260762240463,465.0447542453629 752.1260762240463,490.8591445957152 C752.1260762240463,516.6755843578135 632.090832299049,537.6021276943843 512.1247190450572,537.6021276943843 C392.15657253603524,537.6021276943843 272.1213286110383,516.6755843578135 272.1213286110383,490.8591445957152 z" fill-rule="evenodd" fill="#ffffff" opacity="1" id="svg_21"/>
<path d="M346.29243883429126,719.9218954260484 C346.29243883429126,694.40466977884 366.8140818476221,673.719957028276 392.1321734756807,673.719957028276 C417.4482318487097,673.719957028276 437.9719081170699,694.40466977884 437.9719081170699,719.9218954260484 C437.9719081170699,745.4370716615108 417.4482318487097,766.1238338238209 392.1321734756807,766.1238338238209 C366.8140818476221,766.1238338238209 346.29243883429126,745.4370716615108 346.29243883429126,719.9218954260484 z" opacity="1" fill="none" id="svg_22"/>
<path d="M197.97258419311044,495.7387939625134 C197.97258419311044,320.85839086817697 338.6230008627979,179.09033335105883 512.1267523000864,179.09033335105883 C685.6284704823456,179.09033335105883 826.278887152033,320.85839086817697 826.278887152033,495.7387939625134 C826.278887152033,670.6171476451041 685.6284704823456,812.385205162222 512.1267523000864,812.385205162222 C338.6230008627979,812.385205162222 197.97258419311044,670.6171476451041 197.97258419311044,495.7387939625134 z" opacity="1" fill="none" id="svg_23"/>
<path d="M317.9610632524275,374.79685860642087 C317.9610632524275,266.7108831318593 404.89084878615824,179.09033335105883 512.1247190450572,179.09033335105883 C619.356556048926,179.09033335105883 706.2863415826567,266.7108831318593 706.2863415826567,374.79685860642087 C706.2863415826567,482.8828340809827 619.356556048926,570.5033838617832 512.1247190450572,570.5033838617832 C404.89084878615824,570.5033838617832 317.9610632524275,482.8828340809827 317.9610632524275,374.79685860642087 z" opacity="1" fill="none" id="svg_24"/>
<path d="M197.97258419311044,490.8591445957152 C197.97258419311044,490.8591445957152 198.01528254873108,570.5033838617832 512.147084850382,570.5033838617832 C826.278887152033,570.5033838617832 826.2768538970035,490.8591445957152 826.2768538970035,490.8591445957152 C826.274820641974,570.5033838617832 752.1260762240463,737.6472576156481 706.2863415826567,766.1853161761953 C660.4466069412674,794.723374736743 677.9529327457635,670.7790511730237 632.1131981043741,673.719957028276 C586.2734634629848,676.660862883528 557.9644536864462,858.5871435599945 512.1247190450572,858.5871435599945 C466.2870176586973,858.5871435599945 437.9515755667743,670.809792349211 392.1118409253851,673.7814393806506 C346.27210628399564,676.7530864120898 363.80079789381693,794.723374736743 317.9610632524275,766.1853161761953 C272.1192953560087,737.6472576156481 197.97055093808072,570.5033838617832 197.97258419311044,490.8591445957152 z" fill-rule="evenodd" fill="#ffffff" opacity="1" id="svg_25"/>
<path d="M466.28498440366775,812.385205162222 C466.28498440366775,786.8700289267596 486.8066274169985,766.1853161761953 512.1247190450572,766.1853161761953 C537.4407774180861,766.1853161761953 557.9644536864462,786.8700289267596 557.9644536864462,812.385205162222 C557.9644536864462,837.9024308094305 537.4407774180861,858.5871435599945 512.1247190450572,858.5871435599945 C486.8066274169985,858.5871435599945 466.28498440366775,837.9024308094305 466.28498440366775,812.385205162222 z" opacity="1" fill="none" id="svg_26"/>
<path d="M272.1213286110383,766.1853161761953 C272.1213286110383,740.668090528987 292.64500487939847,719.9833777784229 317.9610632524275,719.9833777784229 C343.2771216254565,719.9833777784229 363.80079789381693,740.668090528987 363.80079789381693,766.1853161761953 C363.80079789381693,791.700492411658 343.2771216254565,812.385205162222 317.9610632524275,812.385205162222 C292.64500487939847,812.385205162222 272.1213286110383,791.700492411658 272.1213286110383,766.1853161761953 z" opacity="1" fill="none" id="svg_27"/>
<path d="M660.4466069412674,766.1853161761953 C660.4466069412674,740.668090528987 680.9702832096277,719.9833777784229 706.2863415826567,719.9833777784229 C731.6044332107152,719.9833777784229 752.1260762240463,740.668090528987 752.1260762240463,766.1853161761953 C752.1260762240463,791.700492411658 731.6044332107152,812.385205162222 706.2863415826567,812.385205162222 C680.9702832096277,812.385205162222 660.4466069412674,791.700492411658 660.4466069412674,766.1853161761953 z" opacity="1" fill="none" id="svg_28"/>
<path d="M586.2734634629848,719.9526366022357 C586.2734634629848,694.4190156610606 606.7971397313454,673.719957028276 632.1131981043741,673.719957028276 C657.4312897324326,673.719957028276 677.9529327457635,694.4190156610606 677.9529327457635,719.9526366022357 C677.9529327457635,745.4862575434105 657.4312897324326,766.1853161761953 632.1131981043741,766.1853161761953 C606.7971397313454,766.1853161761953 586.2734634629848,745.4862575434105 586.2734634629848,719.9526366022357 z" opacity="1" fill="none" id="svg_29"/>
<path d="M437.9963071774247,495.7695351387007 C437.9963071774247,454.4943825778802 471.1952953000507,421.03363700387234 512.147084850382,421.03363700387234 C553.0988744007135,421.03363700387234 586.2978625233397,454.4943825778802 586.2978625233397,495.7695351387007 C586.2978625233397,504.41190447082477 584.7973203115256,518.2741255195532 582.1195234375974,525.996308977804 C572.0101794306341,555.1512404738434 544.5246379410665,570.5033838617832 512.147084850382,570.5033838617832 C471.1952953000507,570.5033838617832 437.9963071774247,537.0426382877753 437.9963071774247,495.7695351387007 z" opacity="1" fill="none" id="svg_30"/>
<path d="M272.1213286110383,490.8591445957152 C272.1213286110383,465.0447542453629 379.5747904131292,444.1161614970463 512.1247190450572,444.1161614970463 C644.6746476769845,444.1161614970463 752.1260762240463,465.0447542453629 752.1260762240463,490.8591445957152 C752.1260762240463,516.6755843578135 632.090832299049,537.6021276943843 512.1247190450572,537.6021276943843 C392.15657253603524,537.6021276943843 272.1213286110383,516.6755843578135 272.1213286110383,490.8591445957152 z" fill-rule="evenodd" fill="#ffffff" opacity="1" id="svg_31"/>
<path d="M346.29243883429126,719.9218954260484 C346.29243883429126,694.40466977884 366.8140818476221,673.719957028276 392.1321734756807,673.719957028276 C417.4482318487097,673.719957028276 437.9719081170699,694.40466977884 437.9719081170699,719.9218954260484 C437.9719081170699,745.4370716615108 417.4482318487097,766.1238338238209 392.1321734756807,766.1238338238209 C366.8140818476221,766.1238338238209 346.29243883429126,745.4370716615108 346.29243883429126,719.9218954260484 z" opacity="1" fill="none" id="svg_32"/>
<path d="M197.97258419311044,495.7387939625134 C197.97258419311044,320.85839086817697 338.6230008627979,179.09033335105883 512.1267523000864,179.09033335105883 C685.6284704823456,179.09033335105883 826.278887152033,320.85839086817697 826.278887152033,495.7387939625134 C826.278887152033,670.6171476451041 685.6284704823456,812.385205162222 512.1267523000864,812.385205162222 C338.6230008627979,812.385205162222 197.97258419311044,670.6171476451041 197.97258419311044,495.7387939625134 z" opacity="1" fill="none" id="svg_33"/>
<path d="M317.9610632524275,374.79685860642087 C317.9610632524275,266.7108831318593 404.89084878615824,179.09033335105883 512.1247190450572,179.09033335105883 C619.356556048926,179.09033335105883 706.2863415826567,266.7108831318593 706.2863415826567,374.79685860642087 C706.2863415826567,482.8828340809827 619.356556048926,570.5033838617832 512.1247190450572,570.5033838617832 C404.89084878615824,570.5033838617832 317.9610632524275,482.8828340809827 317.9610632524275,374.79685860642087 z" opacity="1" fill="none" id="svg_34"/>
<path d="M197.97258419311044,490.8591445957152 C197.97258419311044,490.8591445957152 198.01528254873108,570.5033838617832 512.147084850382,570.5033838617832 C826.278887152033,570.5033838617832 826.2768538970035,490.8591445957152 826.2768538970035,490.8591445957152 C826.274820641974,570.5033838617832 752.1260762240463,737.6472576156481 706.2863415826567,766.1853161761953 C660.4466069412674,794.723374736743 677.9529327457635,670.7790511730237 632.1131981043741,673.719957028276 C586.2734634629848,676.660862883528 557.9644536864462,858.5871435599945 512.1247190450572,858.5871435599945 C466.2870176586973,858.5871435599945 437.9515755667743,670.809792349211 392.1118409253851,673.7814393806506 C346.27210628399564,676.7530864120898 363.80079789381693,794.723374736743 317.9610632524275,766.1853161761953 C272.1192953560087,737.6472576156481 197.97055093808072,570.5033838617832 197.97258419311044,490.8591445957152 z" fill-rule="evenodd" fill="#ffffff" opacity="1" id="svg_35"/>
<path d="M466.28498440366775,812.385205162222 C466.28498440366775,786.8700289267596 486.8066274169985,766.1853161761953 512.1247190450572,766.1853161761953 C537.4407774180861,766.1853161761953 557.9644536864462,786.8700289267596 557.9644536864462,812.385205162222 C557.9644536864462,837.9024308094305 537.4407774180861,858.5871435599945 512.1247190450572,858.5871435599945 C486.8066274169985,858.5871435599945 466.28498440366775,837.9024308094305 466.28498440366775,812.385205162222 z" opacity="1" fill="none" id="svg_36"/>
<path d="M272.1213286110383,766.1853161761953 C272.1213286110383,740.668090528987 292.64500487939847,719.9833777784229 317.9610632524275,719.9833777784229 C343.2771216254565,719.9833777784229 363.80079789381693,740.668090528987 363.80079789381693,766.1853161761953 C363.80079789381693,791.700492411658 343.2771216254565,812.385205162222 317.9610632524275,812.385205162222 C292.64500487939847,812.385205162222 272.1213286110383,791.700492411658 272.1213286110383,766.1853161761953 z" opacity="1" fill="none" id="svg_37"/>
<path d="M660.4466069412674,766.1853161761953 C660.4466069412674,740.668090528987 680.9702832096277,719.9833777784229 706.2863415826567,719.9833777784229 C731.6044332107152,719.9833777784229 752.1260762240463,740.668090528987 752.1260762240463,766.1853161761953 C752.1260762240463,791.700492411658 731.6044332107152,812.385205162222 706.2863415826567,812.385205162222 C680.9702832096277,812.385205162222 660.4466069412674,791.700492411658 660.4466069412674,766.1853161761953 z" opacity="1" fill="none" id="svg_38"/>
<path d="M586.2734634629848,719.9526366022357 C586.2734634629848,694.4190156610606 606.7971397313454,673.719957028276 632.1131981043741,673.719957028276 C657.4312897324326,673.719957028276 677.9529327457635,694.4190156610606 677.9529327457635,719.9526366022357 C677.9529327457635,745.4862575434105 657.4312897324326,766.1853161761953 632.1131981043741,766.1853161761953 C606.7971397313454,766.1853161761953 586.2734634629848,745.4862575434105 586.2734634629848,719.9526366022357 z" opacity="1" fill="none" id="svg_39"/>
<path d="M437.9963071774247,495.7695351387007 C437.9963071774247,454.4943825778802 471.1952953000507,421.03363700387234 512.147084850382,421.03363700387234 C553.0988744007135,421.03363700387234 586.2978625233397,454.4943825778802 586.2978625233397,495.7695351387007 C586.2978625233397,504.41190447082477 584.7973203115256,518.2741255195532 582.1195234375974,525.996308977804 C572.0101794306341,555.1512404738434 544.5246379410665,570.5033838617832 512.147084850382,570.5033838617832 C471.1952953000507,570.5033838617832 437.9963071774247,537.0426382877753 437.9963071774247,495.7695351387007 z" opacity="1" fill="none" id="svg_40"/>
<path d="M272.1213286110383,490.8591445957152 C272.1213286110383,465.0447542453629 379.5747904131292,444.1161614970463 512.1247190450572,444.1161614970463 C644.6746476769845,444.1161614970463 752.1260762240463,465.0447542453629 752.1260762240463,490.8591445957152 C752.1260762240463,516.6755843578135 632.090832299049,537.6021276943843 512.1247190450572,537.6021276943843 C392.15657253603524,537.6021276943843 272.1213286110383,516.6755843578135 272.1213286110383,490.8591445957152 z" fill-rule="evenodd" fill="#ffffff" opacity="1" id="svg_41"/>
<path d="M346.29243883429126,719.9218954260484 C346.29243883429126,694.40466977884 366.8140818476221,673.719957028276 392.1321734756807,673.719957028276 C417.4482318487097,673.719957028276 437.9719081170699,694.40466977884 437.9719081170699,719.9218954260484 C437.9719081170699,745.4370716615108 417.4482318487097,766.1238338238209 392.1321734756807,766.1238338238209 C366.8140818476221,766.1238338238209 346.29243883429126,745.4370716615108 346.29243883429126,719.9218954260484 z" opacity="1" fill="none" id="svg_42"/>
<path d="M632.1131981043741,267.44047371337126 C632.1131981043741,233.9653822571428 659.0355279507544,206.82912133073623 692.2467156035575,206.82912133073623 C725.4579032563609,206.82912133073623 752.380233102741,233.9653822571428 752.380233102741,267.44047371337126 C752.380233102741,300.9155651695998 725.4579032563609,328.05182609600615 692.2467156035575,328.05182609600615 C659.0355279507544,328.05182609600615 632.1131981043741,300.9155651695998 632.1131981043741,267.44047371337126 z" opacity="1" fill="#ffffff" id="svg_43"/>
</g>
</g></g></svg>