<svg xmlns="http://www.w3.org/2000/svg" width="256" height="256" viewBox="0 0 192 192" xmlns:v="https://vecta.io/nano"><path fill="#f2f4f7" d="M93.22 0h5.51c22.82.62 45.29 9.64 62.04 25.18 19.08 17.21 30.56 42.39 31.23 68.06v5.6c-.65 22.8-9.68 45.24-25.21 61.96-17.2 19.06-42.35 30.52-68 31.2h-5.48c-22.84-.61-45.35-9.64-62.1-25.21C12.14 149.59.67 124.43 0 98.76v-5.61c.67-25.41 11.95-50.28 30.68-67.47C47.48 9.87 70.18.64 93.22 0m4.05 26.77L58.78 89.64c-1.48 2.48-3.31 4.81-4.07 7.64 13.02 8.09 26.55 15.38 39.73 23.21 1.33.74 2.62 1.78 4.23 1.69l-.08-.43 42.25-24.32-42.53-69.07.12-.37-1.16-1.22m-42.74 78.94c12.97 18.85 26.92 37.02 40.2 55.66.96 1.4 2.02 2.73 3.19 3.97l.4-1.46 42.2-58.06c-14.45 7.96-28.64 16.39-42.96 24.58l-43.03-24.69z"/><path d="M97.27 26.77l1.16 1.22-.12.37c-.68 1.79-.79 3.72-.74 5.63l.17 43.94c-14.45 6.2-28.58 13.13-43.03 19.35.76-2.83 2.59-5.16 4.07-7.64l38.49-62.87zm-42.74 78.94c14.48 7.99 28.62 16.57 43.03 24.69l.03 29.6a10.36 10.36 0 0 0 .73 3.88l-.4 1.46c-1.17-1.24-2.23-2.57-3.19-3.97l-40.2-55.66z" fill="#828384"/><g fill="#313232"><path d="M97.57 33.99c-.05-1.91.06-3.84.74-5.63l42.53 69.07c-3.28-.74-6.06-2.63-8.98-4.18-11.36-5.14-23.05-9.56-34.12-15.32-.31-14.65.02-29.3-.17-43.94z"/><path d="M54.71 97.28c14.45-6.22 28.58-13.15 43.03-19.35.54 9.33.06 18.68.23 28.02.19 5.26-.57 10.61.62 15.8l.08.43c-1.61.09-2.9-.95-4.23-1.69L54.71 97.28zm42.85 33.12l42.96-24.58-42.2 58.06a10.36 10.36 0 0 1-.73-3.88l-.03-29.6z"/></g><path fill="#131313" d="M97.74 77.93c11.07 5.76 22.76 10.18 34.12 15.32 2.92 1.55 5.7 3.44 8.98 4.18l-42.25 24.32c-1.19-5.19-.43-10.54-.62-15.8-.17-9.34.31-18.69-.23-28.02z"/></svg>