<svg xmlns="http://www.w3.org/2000/svg" xmlns:xlink="http://www.w3.org/1999/xlink" width="300" zoomAndPan="magnify" viewBox="0 0 224.87999 225" height="300" preserveAspectRatio="xMidYMid meet" version="1.0"><defs><clipPath id="id1"><path d="M 44 148 L 181 148 L 181 201.550781 L 44 201.550781 Z M 44 148 " clip-rule="nonzero"/></clipPath><clipPath id="id2"><path d="M 89 23.148438 L 136 23.148438 L 136 73 L 89 73 Z M 89 23.148438 " clip-rule="nonzero"/></clipPath><clipPath id="id3"><path d="M 112 23.148438 L 136 23.148438 L 136 73 L 112 73 Z M 112 23.148438 " clip-rule="nonzero"/></clipPath><clipPath id="id4"><path d="M 89 23.148438 L 113 23.148438 L 113 73 L 89 73 Z M 89 23.148438 " clip-rule="nonzero"/></clipPath></defs><g clip-path="url(#id1)"><path fill="rgb(31.369019%, 58.039856%, 100%)" d="M 180.472656 148.609375 L 180.4375 161.921875 C 180.4375 162.777344 179.878906 163.59375 178.761719 164.222656 L 116.671875 200.238281 C 114.480469 201.5 110.945312 201.5 108.714844 200.238281 L 46.179688 164.222656 C 45.066406 163.554688 44.507812 162.738281 44.507812 161.886719 L 44.542969 148.609375 Z M 180.472656 148.609375 " fill-opacity="1" fill-rule="nonzero"/></g><path fill="rgb(34.118652%, 70.199585%, 99.609375%)" d="M 178.777344 146.316406 C 180.992188 147.589844 181.003906 149.640625 178.785156 150.929688 L 116.699219 186.921875 C 114.5 188.199219 110.953125 188.199219 108.738281 186.921875 L 46.226562 150.917969 C 44.011719 149.640625 44 147.59375 46.199219 146.316406 L 108.285156 110.324219 C 110.503906 109.035156 114.050781 109.035156 116.265625 110.3125 Z M 178.777344 146.316406 " fill-opacity="1" fill-rule="nonzero"/><path fill="rgb(91.369629%, 90.589905%, 98.81897%)" d="M 155.117188 106.066406 L 155.003906 143.601562 C 154.96875 149.832031 150.878906 156.101562 142.625 160.847656 C 126.078125 170.453125 99.125 170.453125 82.46875 160.847656 C 74.066406 156.027344 69.863281 149.683594 69.902344 143.339844 L 70.011719 105.84375 Z M 155.117188 106.066406 " fill-opacity="1" fill-rule="nonzero"/><path fill="rgb(11.369324%, 16.079712%, 26.269531%)" d="M 155.011719 138.851562 L 155 143.582031 C 154.980469 149.839844 150.859375 156.085938 142.628906 160.859375 C 126.074219 170.457031 99.113281 170.457031 82.453125 160.859375 C 74.0625 156.027344 69.875 149.683594 69.894531 143.355469 L 69.90625 138.621094 C 69.886719 144.953125 74.074219 151.296875 82.464844 156.128906 C 99.128906 165.722656 126.085938 165.722656 142.640625 156.128906 C 150.875 151.355469 154.996094 145.105469 155.011719 138.851562 Z M 155.011719 138.851562 " fill-opacity="1" fill-rule="nonzero"/><path fill="rgb(11.369324%, 16.079712%, 26.269531%)" d="M 155.011719 106.171875 L 155 110.902344 C 154.980469 117.160156 150.859375 123.40625 142.628906 128.179688 C 126.074219 137.777344 99.113281 137.777344 82.453125 128.179688 C 74.0625 123.347656 69.875 117.003906 69.894531 110.671875 L 69.90625 105.941406 C 69.886719 112.273438 74.074219 118.613281 82.464844 123.445312 C 99.128906 133.042969 126.085938 133.042969 142.640625 123.445312 C 150.875 118.675781 154.996094 112.425781 155.011719 106.171875 Z M 155.011719 106.171875 " fill-opacity="1" fill-rule="nonzero"/><path fill="rgb(95.289612%, 94.509888%, 98.81897%)" d="M 142.554688 88.550781 C 159.214844 98.148438 159.304688 113.726562 142.734375 123.332031 C 126.179688 132.929688 99.222656 132.929688 82.558594 123.332031 C 65.882812 113.726562 65.808594 98.15625 82.363281 88.558594 C 98.929688 78.953125 125.875 78.945312 142.554688 88.550781 Z M 142.554688 88.550781 " fill-opacity="1" fill-rule="nonzero"/><path fill="rgb(91.369629%, 90.589905%, 98.81897%)" d="M 149.949219 95.234375 L 149.910156 100.578125 C 149.910156 106.066406 146.269531 111.554688 139.054688 115.746094 C 124.519531 124.164062 100.835938 124.164062 86.1875 115.746094 C 78.824219 111.519531 75.144531 105.917969 75.179688 100.390625 L 75.179688 95.050781 Z M 149.949219 95.234375 " fill-opacity="1" fill-rule="nonzero"/><path fill="rgb(95.289612%, 94.509888%, 98.81897%)" d="M 138.910156 79.871094 C 153.539062 88.296875 153.617188 101.984375 139.070312 110.421875 C 124.535156 118.847656 100.847656 118.847656 86.214844 110.421875 C 71.574219 101.984375 71.507812 88.304688 86.042969 79.878906 C 100.59375 71.445312 124.265625 71.4375 138.910156 79.871094 Z M 138.910156 79.871094 " fill-opacity="1" fill-rule="nonzero"/><path fill="rgb(69.018555%, 72.158813%, 81.17981%)" d="M 138.128906 97.160156 C 137.421875 100.292969 134.992188 103.296875 130.867188 105.695312 C 120.816406 111.503906 104.46875 111.503906 94.371094 105.695312 C 90.144531 103.246094 87.664062 100.167969 86.980469 96.984375 C 85.992188 92.59375 88.421875 87.996094 94.269531 84.613281 C 104.292969 78.78125 120.640625 78.78125 130.738281 84.613281 C 136.6875 88.023438 139.140625 92.691406 138.128906 97.160156 Z M 138.128906 97.160156 " fill-opacity="1" fill-rule="nonzero"/><path fill="rgb(87.059021%, 87.449646%, 98.429871%)" d="M 138.128906 97.160156 C 137.421875 100.292969 134.992188 103.296875 130.867188 105.695312 C 120.816406 111.503906 104.46875 111.503906 94.371094 105.695312 C 90.144531 103.246094 87.664062 100.167969 86.980469 96.984375 C 87.6875 93.855469 90.117188 90.851562 94.269531 88.453125 C 104.292969 82.644531 120.640625 82.621094 130.738281 88.453125 C 134.964844 90.902344 137.445312 93.980469 138.128906 97.160156 Z M 138.128906 97.160156 " fill-opacity="1" fill-rule="nonzero"/><path fill="rgb(100%, 81.568909%, 42.349243%)" d="M 135.632812 61.816406 L 112.804688 101.132812 L 89.53125 61.816406 L 99.792969 67.714844 L 89.53125 61.78125 L 112.472656 48.5 L 135.597656 61.816406 Z M 135.632812 61.816406 " fill-opacity="1" fill-rule="nonzero"/><path fill="rgb(99.609375%, 73.728943%, 12.159729%)" d="M 135.601562 61.808594 L 112.652344 75.117188 L 89.511719 61.789062 L 112.464844 48.484375 Z M 135.601562 61.808594 " fill-opacity="1" fill-rule="nonzero"/><g clip-path="url(#id2)"><path fill="rgb(100%, 81.568909%, 42.349243%)" d="M 112.789062 23.144531 L 89.5 59.121094 L 112.632812 72.414062 L 135.609375 59.09375 Z M 112.789062 23.144531 " fill-opacity="1" fill-rule="nonzero"/></g><g clip-path="url(#id3)"><path fill="rgb(100%, 87.059021%, 60.778809%)" d="M 135.609375 59.09375 L 112.632812 72.414062 L 112.789062 23.144531 Z M 135.609375 59.09375 " fill-opacity="1" fill-rule="nonzero"/></g><g clip-path="url(#id4)"><path fill="rgb(100%, 81.568909%, 42.349243%)" d="M 112.789062 23.144531 L 112.632812 72.414062 L 89.5 59.121094 Z M 112.789062 23.144531 " fill-opacity="1" fill-rule="nonzero"/></g><path fill="rgb(100%, 87.059021%, 60.778809%)" d="M 135.621094 61.804688 L 112.800781 101.117188 L 112.652344 75.117188 Z M 135.621094 61.804688 " fill-opacity="1" fill-rule="nonzero"/><path fill="rgb(100%, 81.568909%, 42.349243%)" d="M 112.800781 101.121094 L 89.519531 61.804688 L 112.660156 75.109375 Z M 112.800781 101.121094 " fill-opacity="1" fill-rule="nonzero"/><path fill="rgb(100%, 100%, 100%)" d="M 173.125 145.894531 C 175.746094 147.402344 175.757812 149.835938 173.15625 151.34375 C 170.582031 152.835938 166.359375 152.84375 163.738281 151.335938 C 161.132812 149.835938 161.132812 147.394531 163.707031 145.902344 C 166.3125 144.394531 170.519531 144.394531 173.125 145.894531 Z M 173.125 145.894531 " fill-opacity="1" fill-rule="nonzero"/><path fill="rgb(100%, 100%, 100%)" d="M 61.246094 145.894531 C 63.867188 147.402344 63.878906 149.835938 61.277344 151.34375 C 58.703125 152.835938 54.480469 152.84375 51.863281 151.335938 C 49.253906 149.835938 49.257812 147.394531 51.832031 145.902344 C 54.433594 144.394531 58.640625 144.394531 61.246094 145.894531 Z M 61.246094 145.894531 " fill-opacity="1" fill-rule="nonzero"/><path fill="rgb(100%, 100%, 100%)" d="M 117.183594 176.289062 C 119.804688 177.800781 119.820312 180.230469 117.214844 181.738281 C 114.640625 183.230469 110.421875 183.242188 107.800781 181.730469 C 105.195312 180.230469 105.195312 177.792969 107.769531 176.296875 C 110.371094 174.789062 114.578125 174.789062 117.183594 176.289062 Z M 117.183594 176.289062 " fill-opacity="1" fill-rule="nonzero"/><path fill="rgb(34.118652%, 70.199585%, 99.609375%)" d="M 148.636719 145.386719 C 148.636719 146.359375 147.9375 147.523438 147.109375 148.011719 C 146.28125 148.5 145.582031 148.097656 145.582031 147.144531 L 145.5625 140.902344 L 145.5625 140.816406 L 145.539062 131.042969 C 145.539062 130.066406 146.21875 128.882812 147.066406 128.394531 C 147.894531 127.929688 148.574219 128.332031 148.574219 129.261719 L 148.617188 138.765625 Z M 148.636719 145.386719 " fill-opacity="1" fill-rule="nonzero"/><path fill="rgb(31.369019%, 58.039856%, 100%)" d="M 148.636719 145.386719 C 148.636719 146.359375 147.9375 147.523438 147.109375 148.011719 C 146.28125 148.5 145.582031 148.097656 145.582031 147.144531 L 145.5625 140.902344 L 145.5625 140.816406 C 145.605469 139.863281 146.28125 138.699219 147.109375 138.234375 C 147.851562 137.792969 148.46875 138.066406 148.617188 138.765625 Z M 148.636719 145.386719 " fill-opacity="1" fill-rule="nonzero"/><path fill="rgb(34.118652%, 70.199585%, 99.609375%)" d="M 75.664062 145.386719 C 75.664062 146.359375 76.363281 147.523438 77.191406 148.011719 C 78.019531 148.5 78.71875 148.097656 78.71875 147.144531 L 78.738281 140.902344 L 78.738281 140.816406 L 78.761719 131.042969 C 78.761719 130.066406 78.082031 128.882812 77.234375 128.394531 C 76.40625 127.929688 75.726562 128.332031 75.726562 129.261719 L 75.683594 138.765625 Z M 75.664062 145.386719 " fill-opacity="1" fill-rule="nonzero"/><path fill="rgb(31.369019%, 58.039856%, 100%)" d="M 75.664062 145.386719 C 75.664062 146.359375 76.363281 147.523438 77.191406 148.011719 C 78.019531 148.5 78.71875 148.097656 78.71875 147.144531 L 78.738281 140.902344 L 78.738281 140.816406 C 78.695312 139.863281 78.019531 138.699219 77.191406 138.234375 C 76.449219 137.792969 75.832031 138.066406 75.683594 138.765625 Z M 75.664062 145.386719 " fill-opacity="1" fill-rule="nonzero"/><path fill="rgb(34.118652%, 70.199585%, 99.609375%)" d="M 114.363281 140.058594 L 114.363281 157.300781 C 114.363281 158.335938 113.527344 159.171875 112.492188 159.171875 C 111.480469 159.171875 110.644531 158.335938 110.644531 157.300781 L 110.644531 140.058594 C 110.644531 139.046875 111.480469 138.214844 112.492188 138.214844 C 113.527344 138.214844 114.363281 139.046875 114.363281 140.058594 Z M 114.363281 140.058594 " fill-opacity="1" fill-rule="nonzero"/><path fill="rgb(31.369019%, 58.039856%, 100%)" d="M 114.363281 149.375 L 114.363281 157.300781 C 114.363281 158.335938 113.527344 159.171875 112.492188 159.171875 C 111.480469 159.171875 110.644531 158.335938 110.644531 157.300781 L 110.644531 149.375 C 110.644531 148.363281 111.480469 147.53125 112.492188 147.53125 C 113.527344 147.53125 114.363281 148.363281 114.363281 149.375 Z M 114.363281 149.375 " fill-opacity="1" fill-rule="nonzero"/></svg>