<svg xmlns="http://www.w3.org/2000/svg" xmlns:xlink="http://www.w3.org/1999/xlink" width="300" zoomAndPan="magnify" viewBox="0 0 224.87999 225" height="300" preserveAspectRatio="xMidYMid meet" version="1.0"><defs><clipPath id="id1"><path d="M 106 181 L 119 181 L 119 198.695312 L 106 198.695312 Z M 106 181 " clip-rule="nonzero"/></clipPath></defs><path fill="rgb(100%, 87.838745%, 49.01886%)" d="M 63.089844 139.730469 L 62.75 139.101562 C 61.554688 136.878906 58.839844 135.964844 56.542969 137.007812 L 49.472656 140.210938 C 46.941406 141.359375 45.910156 144.410156 47.230469 146.855469 L 48.074219 148.421875 C 49.394531 150.867188 52.507812 151.683594 54.859375 150.203125 L 61.425781 146.0625 C 63.5625 144.71875 64.289062 141.949219 63.089844 139.730469 Z M 63.089844 139.730469 " fill-opacity="1" fill-rule="nonzero"/><path fill="rgb(100%, 87.838745%, 49.01886%)" d="M 58.382812 122.214844 L 58.40625 121.5 C 58.480469 118.976562 56.589844 116.828125 54.074219 116.582031 L 46.351562 115.828125 C 43.582031 115.554688 41.164062 117.683594 41.082031 120.460938 L 41.03125 122.238281 C 40.949219 125.015625 43.238281 127.28125 46.015625 127.171875 L 53.773438 126.867188 C 56.296875 126.769531 58.308594 124.734375 58.382812 122.214844 Z M 58.382812 122.214844 " fill-opacity="1" fill-rule="nonzero"/><path fill="rgb(100%, 87.838745%, 49.01886%)" d="M 161.929688 139.730469 L 162.269531 139.101562 C 163.46875 136.878906 166.179688 135.964844 168.476562 137.007812 L 175.546875 140.210938 C 178.078125 141.359375 179.109375 144.410156 177.789062 146.855469 L 176.949219 148.421875 C 175.628906 150.867188 172.511719 151.683594 170.160156 150.203125 L 163.597656 146.0625 C 161.460938 144.71875 160.730469 141.949219 161.929688 139.730469 Z M 161.929688 139.730469 " fill-opacity="1" fill-rule="nonzero"/><path fill="rgb(100%, 87.838745%, 49.01886%)" d="M 166.636719 122.214844 L 166.613281 121.5 C 166.542969 118.976562 168.433594 116.828125 170.945312 116.582031 L 178.667969 115.828125 C 181.4375 115.554688 183.855469 117.683594 183.9375 120.460938 L 183.988281 122.238281 C 184.070312 125.015625 181.78125 127.28125 179.003906 127.171875 L 171.246094 126.867188 C 168.722656 126.769531 166.710938 124.734375 166.636719 122.214844 Z M 166.636719 122.214844 " fill-opacity="1" fill-rule="nonzero"/><path fill="rgb(100%, 87.838745%, 49.01886%)" d="M 130.109375 177.242188 L 129.5 177.59375 C 127.351562 178.832031 126.535156 181.519531 127.621094 183.746094 L 130.972656 190.589844 C 132.171875 193.039062 135.199219 193.964844 137.566406 192.601562 L 139.078125 191.730469 C 141.441406 190.363281 142.15625 187.28125 140.632812 185.015625 L 136.378906 178.691406 C 134.996094 176.636719 132.257812 176.003906 130.109375 177.242188 Z M 130.109375 177.242188 " fill-opacity="1" fill-rule="nonzero"/><g clip-path="url(#id1)"><path fill="rgb(100%, 87.838745%, 49.01886%)" d="M 112.867188 181.71875 L 112.164062 181.71875 C 109.6875 181.71875 107.628906 183.636719 107.460938 186.105469 L 106.9375 193.710938 C 106.75 196.433594 108.910156 198.746094 111.640625 198.746094 L 113.386719 198.746094 C 116.117188 198.746094 118.277344 196.433594 118.089844 193.710938 L 117.570312 186.109375 C 117.402344 183.636719 115.347656 181.71875 112.867188 181.71875 Z M 112.867188 181.71875 " fill-opacity="1" fill-rule="nonzero"/></g><path fill="rgb(100%, 87.838745%, 49.01886%)" d="M 95.523438 177.621094 L 94.914062 177.269531 C 92.765625 176.03125 90.027344 176.664062 88.644531 178.71875 L 84.386719 185.042969 C 82.863281 187.308594 83.578125 190.386719 85.941406 191.753906 L 87.453125 192.625 C 89.820312 193.992188 92.847656 193.066406 94.046875 190.617188 L 97.398438 183.773438 C 98.488281 181.546875 97.667969 178.859375 95.523438 177.621094 Z M 95.523438 177.621094 " fill-opacity="1" fill-rule="nonzero"/><path fill="rgb(81.959534%, 63.139343%, 56.858826%)" d="M 29.429688 36.074219 L 23.839844 41.664062 C 21.472656 44.027344 21.472656 47.859375 23.839844 50.222656 L 163.597656 189.902344 C 165.960938 192.265625 169.792969 192.265625 172.160156 189.902344 L 177.75 184.3125 C 180.113281 181.949219 180.113281 178.121094 177.75 175.757812 L 37.992188 36.074219 C 35.628906 33.710938 31.796875 33.710938 29.429688 36.074219 Z M 29.429688 36.074219 " fill-opacity="1" fill-rule="nonzero"/><path fill="rgb(78.42865%, 54.508972%, 48.629761%)" d="M 178.027344 184.015625 C 177.941406 184.121094 177.847656 184.21875 177.746094 184.316406 L 172.15625 189.902344 C 169.792969 192.265625 165.960938 192.265625 163.597656 189.902344 L 23.839844 50.21875 C 21.472656 47.859375 21.472656 44.027344 23.839844 41.664062 L 29.429688 36.078125 C 29.527344 35.980469 29.625 35.886719 29.730469 35.800781 C 27.644531 38.171875 27.734375 41.792969 30.003906 44.058594 L 169.761719 183.738281 C 172.03125 186.007812 175.648438 186.097656 178.027344 184.015625 Z M 178.027344 184.015625 " fill-opacity="1" fill-rule="nonzero"/><path fill="rgb(86.669922%, 85.488892%, 92.549133%)" d="M 103.800781 33.488281 C 109.507812 35.296875 109.691406 43.273438 104.078125 45.347656 C 88.316406 51.179688 73.527344 60.425781 60.863281 73.082031 C 48.203125 85.734375 38.953125 100.515625 33.121094 116.269531 C 31.042969 121.878906 23.0625 121.695312 21.253906 115.992188 C 14.070312 93.359375 19.464844 67.601562 37.421875 49.648438 C 55.382812 31.699219 81.152344 26.3125 103.800781 33.488281 Z M 103.800781 33.488281 " fill-opacity="1" fill-rule="nonzero"/><path fill="rgb(81.568909%, 80.778503%, 90.589905%)" d="M 104.078125 45.347656 C 88.3125 51.179688 73.527344 60.425781 60.863281 73.082031 C 48.203125 85.738281 38.953125 100.515625 33.121094 116.269531 C 31.042969 121.878906 23.0625 121.691406 21.25 115.992188 C 20.839844 114.6875 20.46875 113.378906 20.136719 112.058594 C 22.164062 111.707031 24.039062 110.375 24.898438 108.054688 C 30.734375 92.296875 39.980469 77.519531 52.644531 64.863281 C 65.308594 52.207031 80.09375 42.964844 95.855469 37.132812 C 98.179688 36.273438 99.511719 34.402344 99.863281 32.378906 C 101.183594 32.707031 102.5 33.082031 103.800781 33.492188 C 109.503906 35.296875 109.691406 43.277344 104.078125 45.347656 Z M 104.078125 45.347656 " fill-opacity="1" fill-rule="nonzero"/><path fill="rgb(81.568909%, 80.778503%, 90.589905%)" d="M 39.144531 39.703125 L 27.472656 51.371094 C 23.316406 55.523438 23.316406 62.257812 27.472656 66.410156 L 44.539062 83.46875 C 48.695312 87.621094 55.433594 87.621094 59.589844 83.46875 L 71.257812 71.804688 C 75.414062 67.648438 75.414062 60.914062 71.257812 56.761719 L 54.191406 39.703125 C 50.035156 35.550781 43.300781 35.550781 39.144531 39.703125 Z M 39.144531 39.703125 " fill-opacity="1" fill-rule="nonzero"/><path fill="rgb(74.508667%, 72.549438%, 86.669922%)" d="M 69.183594 73.878906 L 59.589844 83.46875 C 55.433594 87.625 48.691406 87.621094 44.539062 83.46875 L 27.472656 66.410156 C 23.316406 62.257812 23.316406 55.523438 27.472656 51.367188 L 37.0625 41.78125 C 32.910156 45.933594 32.910156 52.667969 37.0625 56.820312 L 54.132812 73.878906 C 58.285156 78.035156 65.023438 78.035156 69.183594 73.878906 Z M 69.183594 73.878906 " fill-opacity="1" fill-rule="nonzero"/><path fill="rgb(81.959534%, 63.139343%, 56.858826%)" d="M 195.589844 36.074219 L 201.179688 41.664062 C 203.546875 44.027344 203.546875 47.859375 201.179688 50.222656 L 61.425781 189.902344 C 59.058594 192.265625 55.226562 192.265625 52.859375 189.902344 L 47.269531 184.3125 C 44.90625 181.949219 44.90625 178.121094 47.269531 175.757812 L 187.027344 36.074219 C 189.390625 33.710938 193.222656 33.710938 195.589844 36.074219 Z M 195.589844 36.074219 " fill-opacity="1" fill-rule="nonzero"/><path fill="rgb(78.42865%, 54.508972%, 48.629761%)" d="M 46.992188 184.015625 C 47.082031 184.121094 47.175781 184.21875 47.273438 184.316406 L 52.863281 189.902344 C 55.226562 192.265625 59.058594 192.265625 61.425781 189.902344 L 201.179688 50.21875 C 203.546875 47.859375 203.546875 44.027344 201.179688 41.664062 L 195.589844 36.078125 C 195.492188 35.980469 195.394531 35.886719 195.292969 35.800781 C 197.375 38.171875 197.285156 41.792969 195.015625 44.058594 L 55.257812 183.738281 C 52.988281 186.007812 49.371094 186.097656 46.992188 184.015625 Z M 46.992188 184.015625 " fill-opacity="1" fill-rule="nonzero"/><path fill="rgb(86.669922%, 85.488892%, 92.549133%)" d="M 121.21875 33.488281 C 115.515625 35.296875 115.328125 43.273438 120.941406 45.347656 C 136.707031 51.179688 151.492188 60.425781 164.15625 73.082031 C 176.816406 85.734375 186.066406 100.515625 191.898438 116.269531 C 193.976562 121.878906 201.957031 121.695312 203.765625 115.992188 C 210.945312 93.359375 205.558594 67.601562 187.597656 49.648438 C 169.636719 31.699219 143.867188 26.3125 121.21875 33.488281 Z M 121.21875 33.488281 " fill-opacity="1" fill-rule="nonzero"/><path fill="rgb(81.568909%, 80.778503%, 90.589905%)" d="M 120.941406 45.347656 C 136.707031 51.179688 151.492188 60.425781 164.15625 73.082031 C 176.820312 85.738281 186.066406 100.515625 191.898438 116.269531 C 193.980469 121.878906 201.957031 121.691406 203.769531 115.992188 C 204.179688 114.6875 204.554688 113.378906 204.882812 112.058594 C 202.855469 111.707031 200.980469 110.375 200.121094 108.054688 C 194.289062 92.296875 185.039062 77.519531 172.375 64.863281 C 159.714844 52.207031 144.925781 42.964844 129.164062 37.132812 C 126.839844 36.273438 125.507812 34.402344 125.15625 32.378906 C 123.835938 32.707031 122.519531 33.082031 121.21875 33.492188 C 115.519531 35.296875 115.328125 43.277344 120.941406 45.347656 Z M 120.941406 45.347656 " fill-opacity="1" fill-rule="nonzero"/><path fill="rgb(81.568909%, 80.778503%, 90.589905%)" d="M 185.878906 39.703125 L 197.546875 51.371094 C 201.703125 55.523438 201.703125 62.257812 197.546875 66.410156 L 180.480469 83.46875 C 176.324219 87.621094 169.585938 87.621094 165.433594 83.46875 L 153.761719 71.804688 C 149.605469 67.648438 149.605469 60.914062 153.761719 56.761719 L 170.828125 39.703125 C 174.984375 35.550781 181.722656 35.550781 185.878906 39.703125 Z M 185.878906 39.703125 " fill-opacity="1" fill-rule="nonzero"/><path fill="rgb(74.508667%, 72.549438%, 86.669922%)" d="M 155.839844 73.878906 L 165.429688 83.46875 C 169.585938 87.625 176.328125 87.621094 180.484375 83.46875 L 197.546875 66.410156 C 201.707031 62.257812 201.707031 55.523438 197.546875 51.367188 L 187.957031 41.78125 C 192.113281 45.933594 192.113281 52.667969 187.957031 56.820312 L 170.890625 73.878906 C 166.734375 78.035156 159.996094 78.035156 155.839844 73.878906 Z M 155.839844 73.878906 " fill-opacity="1" fill-rule="nonzero"/><path fill="rgb(100%, 81.568909%, 39.219666%)" d="M 156.039062 119.410156 C 156.039062 143.433594 136.550781 162.914062 112.511719 162.914062 C 88.46875 162.914062 68.984375 143.433594 68.984375 119.410156 C 68.984375 95.382812 88.46875 75.90625 112.511719 75.90625 C 124.054688 75.90625 135.125 80.488281 143.289062 88.648438 C 151.449219 96.804688 156.039062 107.871094 156.039062 119.410156 Z M 156.039062 119.410156 " fill-opacity="1" fill-rule="nonzero"/><path fill="rgb(100%, 87.838745%, 49.01886%)" d="M 144.847656 119.410156 C 144.847656 137.257812 130.367188 151.730469 112.511719 151.730469 C 94.652344 151.730469 80.171875 137.257812 80.171875 119.410156 C 80.171875 101.558594 94.652344 87.089844 112.511719 87.089844 C 121.085938 87.089844 129.3125 90.496094 135.375 96.558594 C 141.441406 102.617188 144.847656 110.835938 144.847656 119.410156 Z M 144.847656 119.410156 " fill-opacity="1" fill-rule="nonzero"/><path fill="rgb(100%, 76.078796%, 31.369019%)" d="M 123.753906 116.214844 C 124.585938 114.832031 125.066406 113.214844 125.066406 111.488281 C 125.066406 107.414062 122.402344 103.953125 118.722656 102.753906 L 118.722656 97.933594 C 118.722656 96.359375 117.445312 95.085938 115.875 95.085938 C 114.304688 95.085938 113.027344 96.359375 113.027344 97.933594 L 113.027344 102.296875 L 110.363281 102.296875 L 110.363281 97.933594 C 110.363281 96.359375 109.089844 95.085938 107.515625 95.085938 C 105.945312 95.085938 104.671875 96.359375 104.671875 97.933594 L 104.671875 102.296875 L 99.320312 102.296875 C 97.75 102.296875 96.476562 103.574219 96.476562 105.144531 C 96.476562 106.714844 97.75 107.988281 99.320312 107.988281 L 101.417969 107.988281 L 101.417969 130.828125 L 99.320312 130.828125 C 97.75 130.828125 96.476562 132.101562 96.476562 133.671875 C 96.476562 135.246094 97.75 136.519531 99.320312 136.519531 L 104.667969 136.519531 L 104.667969 140.886719 C 104.667969 142.457031 105.941406 143.730469 107.515625 143.730469 C 109.089844 143.730469 110.363281 142.457031 110.363281 140.886719 L 110.363281 136.519531 L 113.027344 136.519531 L 113.027344 140.886719 C 113.027344 142.457031 114.304688 143.730469 115.875 143.730469 C 117.445312 143.730469 118.722656 142.457031 118.722656 140.886719 L 118.722656 136.519531 L 118.761719 136.519531 C 124.703125 136.519531 129.539062 131.691406 129.539062 125.75 C 129.539062 121.613281 127.1875 118.015625 123.753906 116.214844 Z M 115.875 114.984375 L 107.113281 114.984375 L 107.113281 107.988281 L 115.875 107.988281 C 117.804688 107.988281 119.375 109.558594 119.375 111.488281 C 119.375 113.414062 117.804688 114.984375 115.875 114.984375 Z M 118.765625 130.828125 L 107.113281 130.828125 L 107.113281 120.675781 L 118.765625 120.675781 C 121.566406 120.675781 123.84375 122.953125 123.84375 125.753906 C 123.84375 128.550781 121.566406 130.828125 118.765625 130.828125 Z M 118.765625 130.828125 " fill-opacity="1" fill-rule="nonzero"/></svg>