<svg xmlns="http://www.w3.org/2000/svg" xmlns:xlink="http://www.w3.org/1999/xlink" width="300" zoomAndPan="magnify" viewBox="0 0 224.87999 374.999991" height="500" preserveAspectRatio="xMidYMid meet" version="1.0"><defs><clipPath id="id1"><path d="M 64 26 L 179.898438 26 L 179.898438 174.71875 L 64 174.71875 Z M 64 26 " clip-rule="nonzero"/></clipPath><clipPath id="id2"><path d="M 67 27 L 177 27 L 177 174.71875 L 67 174.71875 Z M 67 27 " clip-rule="nonzero"/></clipPath><clipPath id="id3"><path d="M 103.070312 235 L 190 235 L 190 349 L 103.070312 349 Z M 103.070312 235 " clip-rule="nonzero"/></clipPath><clipPath id="id4"><path d="M 22.488281 188 L 92 188 L 92 281 L 22.488281 281 Z M 22.488281 188 " clip-rule="nonzero"/></clipPath><clipPath id="id5"><path d="M 34 195 L 101.945312 195 L 101.945312 282.699219 L 34 282.699219 Z M 34 195 " clip-rule="nonzero"/></clipPath><clipPath id="id6"><path d="M 36 195 L 101 195 L 101 282.699219 L 36 282.699219 Z M 36 195 " clip-rule="nonzero"/></clipPath></defs><path fill="rgb(100%, 81.568909%, 42.349243%)" d="M 143.542969 19.457031 C 133.109375 13.402344 118.660156 14.253906 102.707031 23.457031 C 71.03125 41.722656 45.417969 86.03125 45.523438 122.386719 C 45.574219 140.460938 51.960938 153.175781 62.261719 159.15625 L 81.324219 170.488281 C 71.023438 164.507812 97.171875 156.136719 97.117188 138.058594 C 97.015625 101.703125 111.894531 77.757812 143.570312 59.492188 C 159.523438 50.292969 152.171875 24.734375 162.605469 30.789062 Z M 143.542969 19.457031 " fill-opacity="1" fill-rule="nonzero"/><g clip-path="url(#id1)"><path fill="rgb(97.648621%, 65.879822%, 23.919678%)" d="M 179.351562 67.535156 C 179.449219 103.933594 153.847656 148.214844 122.136719 166.496094 C 122.007812 166.5625 121.90625 166.628906 121.777344 166.695312 C 112.214844 172.140625 103.210938 174.570312 95.324219 174.308594 C 82.636719 173.914062 72.746094 166.660156 67.914062 153.726562 C 65.78125 148.082031 64.628906 141.386719 64.597656 133.707031 C 64.5 97.371094 90.097656 53.058594 121.777344 34.773438 C 132.257812 28.734375 142.085938 26.308594 150.5625 27.0625 C 162.917969 28.179688 172.382812 36.054688 176.722656 49.511719 C 178.429688 54.699219 179.316406 60.738281 179.351562 67.535156 Z M 179.351562 67.535156 " fill-opacity="1" fill-rule="nonzero"/></g><path fill="rgb(100%, 81.568909%, 42.349243%)" d="M 96.402344 165.484375 C 82.09375 165.484375 73.515625 153.597656 73.460938 133.695312 C 73.367188 100.785156 97.523438 59.003906 126.207031 42.464844 C 133.78125 38.09375 141.152344 35.785156 147.523438 35.785156 C 161.832031 35.785156 170.410156 47.667969 170.464844 67.570312 C 170.5625 101.054688 146.890625 141.992188 117.707031 158.820312 L 117.25 159.074219 C 109.929688 163.242188 102.675781 165.484375 96.402344 165.484375 Z M 96.402344 165.484375 " fill-opacity="1" fill-rule="nonzero"/><path fill="rgb(97.648621%, 65.879822%, 23.919678%)" d="M 122.960938 115.75 L 100.875 113.617188 L 122.796875 59.492188 L 144.945312 88.210938 Z M 122.960938 115.75 " fill-opacity="1" fill-rule="nonzero"/><path fill="rgb(97.648621%, 65.879822%, 23.919678%)" d="M 146.882812 91.132812 L 123.023438 141.058594 L 98.96875 118.769531 L 122.960938 121.070312 Z M 146.882812 91.132812 " fill-opacity="1" fill-rule="nonzero"/><path fill="rgb(100%, 100%, 100%)" d="M 97.117188 77.152344 C 88.742188 77.152344 81.933594 83.953125 81.933594 92.386719 C 81.933594 88.167969 80.234375 84.359375 77.441406 81.640625 C 74.71875 78.851562 70.90625 77.152344 66.683594 77.152344 C 70.90625 77.152344 74.71875 75.453125 77.441406 72.664062 C 80.234375 69.941406 81.933594 66.132812 81.933594 61.917969 C 81.933594 66.132812 83.636719 69.941406 86.359375 72.664062 C 89.152344 75.453125 92.964844 77.152344 97.117188 77.152344 Z M 97.117188 77.152344 " fill-opacity="1" fill-rule="nonzero"/><g clip-path="url(#id2)"><path fill="rgb(100%, 100%, 100%)" d="M 176.722656 49.511719 L 95.324219 174.308594 C 82.636719 173.914062 72.746094 166.660156 67.914062 153.726562 L 150.5625 27.0625 C 162.917969 28.179688 172.382812 36.054688 176.722656 49.511719 Z M 176.722656 49.511719 " fill-opacity="0.2471" fill-rule="nonzero"/></g><g clip-path="url(#id3)"><path fill="rgb(100%, 81.568909%, 42.349243%)" d="M 175.359375 237.980469 C 167.707031 233.53125 157.109375 234.15625 145.410156 240.917969 C 122.179688 254.34375 103.398438 286.902344 103.472656 313.621094 C 103.511719 326.90625 108.195312 336.246094 115.75 340.640625 L 129.726562 348.96875 C 122.175781 344.578125 141.351562 338.421875 141.3125 325.136719 C 141.238281 298.421875 152.148438 280.824219 175.378906 267.398438 C 187.078125 260.640625 181.6875 241.859375 189.335938 246.308594 Z M 175.359375 237.980469 " fill-opacity="1" fill-rule="nonzero"/></g><path fill="rgb(97.648621%, 65.879822%, 23.919678%)" d="M 201.617188 273.308594 C 201.691406 300.0625 182.917969 332.601562 159.660156 346.035156 C 159.5625 346.085938 159.492188 346.132812 159.394531 346.179688 C 152.382812 350.183594 145.777344 351.96875 139.996094 351.777344 C 130.691406 351.488281 123.4375 346.15625 119.894531 336.652344 C 118.328125 332.503906 117.484375 327.582031 117.460938 321.9375 C 117.390625 295.238281 136.164062 262.671875 159.394531 249.238281 C 167.082031 244.796875 174.289062 243.011719 180.507812 243.566406 C 189.566406 244.386719 196.507812 250.175781 199.691406 260.066406 C 200.941406 263.878906 201.59375 268.316406 201.617188 273.308594 Z M 201.617188 273.308594 " fill-opacity="1" fill-rule="nonzero"/><path fill="rgb(100%, 81.568909%, 42.349243%)" d="M 140.785156 345.292969 C 130.292969 345.292969 124 336.558594 123.960938 321.929688 C 123.890625 297.746094 141.605469 267.042969 162.644531 254.886719 C 168.199219 251.675781 173.605469 249.980469 178.277344 249.980469 C 188.773438 249.980469 195.0625 258.710938 195.101562 273.335938 C 195.171875 297.945312 177.8125 328.027344 156.410156 340.394531 L 156.078125 340.582031 C 150.707031 343.644531 145.386719 345.292969 140.785156 345.292969 Z M 140.785156 345.292969 " fill-opacity="1" fill-rule="nonzero"/><path fill="rgb(97.648621%, 65.879822%, 23.919678%)" d="M 160.261719 308.746094 L 144.066406 307.175781 L 160.140625 267.398438 L 176.386719 288.507812 Z M 160.261719 308.746094 " fill-opacity="1" fill-rule="nonzero"/><path fill="rgb(97.648621%, 65.879822%, 23.919678%)" d="M 177.808594 290.652344 L 160.3125 327.34375 L 142.667969 310.964844 L 160.261719 312.652344 Z M 177.808594 290.652344 " fill-opacity="1" fill-rule="nonzero"/><path fill="rgb(100%, 100%, 100%)" d="M 141.3125 280.378906 C 135.171875 280.378906 130.175781 285.375 130.175781 291.574219 C 130.175781 288.472656 128.929688 285.675781 126.878906 283.675781 C 124.882812 281.628906 122.085938 280.378906 118.992188 280.378906 C 122.085938 280.378906 124.882812 279.128906 126.878906 277.078125 C 128.929688 275.082031 130.175781 272.28125 130.175781 269.183594 C 130.175781 272.28125 131.425781 275.082031 133.421875 277.078125 C 135.46875 279.128906 138.265625 280.378906 141.3125 280.378906 Z M 141.3125 280.378906 " fill-opacity="1" fill-rule="nonzero"/><path fill="rgb(100%, 100%, 100%)" d="M 199.691406 260.066406 L 139.996094 351.777344 C 130.691406 351.488281 123.4375 346.15625 119.894531 336.652344 L 180.507812 243.566406 C 189.566406 244.386719 196.507812 250.175781 199.691406 260.066406 Z M 199.691406 260.066406 " fill-opacity="0.2471" fill-rule="nonzero"/><g clip-path="url(#id4)"><path fill="rgb(100%, 81.568909%, 42.349243%)" d="M 80.535156 190.984375 C 74.390625 187.410156 65.882812 187.914062 56.488281 193.347656 C 37.832031 204.136719 22.75 230.308594 22.8125 251.785156 C 22.839844 262.464844 26.601562 269.972656 32.667969 273.503906 L 43.894531 280.199219 C 37.828125 276.667969 53.226562 271.722656 53.195312 261.042969 C 53.136719 239.566406 61.898438 225.425781 80.550781 214.632812 C 89.945312 209.199219 85.617188 194.101562 91.761719 197.679688 Z M 80.535156 190.984375 " fill-opacity="1" fill-rule="nonzero"/></g><g clip-path="url(#id5)"><path fill="rgb(97.648621%, 65.879822%, 23.919678%)" d="M 101.621094 219.382812 C 101.679688 240.886719 86.605469 267.042969 67.929688 277.839844 C 67.851562 277.878906 67.792969 277.917969 67.71875 277.957031 C 62.085938 281.175781 56.78125 282.609375 52.136719 282.457031 C 44.667969 282.222656 38.84375 277.9375 36 270.300781 C 34.742188 266.964844 34.0625 263.007812 34.042969 258.472656 C 33.984375 237.007812 49.0625 210.832031 67.71875 200.035156 C 73.890625 196.464844 79.675781 195.03125 84.667969 195.476562 C 91.945312 196.136719 97.519531 200.789062 100.074219 208.738281 C 101.082031 211.804688 101.601562 215.371094 101.621094 219.382812 Z M 101.621094 219.382812 " fill-opacity="1" fill-rule="nonzero"/></g><path fill="rgb(100%, 81.568909%, 42.349243%)" d="M 52.773438 277.242188 C 44.347656 277.242188 39.296875 270.222656 39.261719 258.464844 C 39.207031 239.023438 53.433594 214.347656 70.324219 204.574219 C 74.789062 201.996094 79.128906 200.632812 82.878906 200.632812 C 91.308594 200.632812 96.359375 207.648438 96.390625 219.40625 C 96.445312 239.183594 82.507812 263.367188 65.320312 273.308594 L 65.050781 273.457031 C 60.738281 275.917969 56.46875 277.242188 52.773438 277.242188 Z M 52.773438 277.242188 " fill-opacity="1" fill-rule="nonzero"/><path fill="rgb(97.648621%, 65.879822%, 23.919678%)" d="M 68.414062 247.867188 L 55.410156 246.605469 L 68.316406 214.632812 L 81.359375 231.597656 Z M 68.414062 247.867188 " fill-opacity="1" fill-rule="nonzero"/><path fill="rgb(97.648621%, 65.879822%, 23.919678%)" d="M 82.503906 233.324219 L 68.453125 262.816406 L 54.285156 249.648438 L 68.414062 251.007812 Z M 82.503906 233.324219 " fill-opacity="1" fill-rule="nonzero"/><path fill="rgb(100%, 100%, 100%)" d="M 53.195312 225.066406 C 48.265625 225.066406 44.253906 229.082031 44.253906 234.0625 C 44.253906 231.574219 43.253906 229.324219 41.609375 227.714844 C 40.003906 226.070312 37.757812 225.066406 35.273438 225.066406 C 37.757812 225.066406 40.003906 224.0625 41.609375 222.414062 C 43.253906 220.808594 44.253906 218.558594 44.253906 216.066406 C 44.253906 218.558594 45.257812 220.808594 46.859375 222.414062 C 48.503906 224.0625 50.75 225.066406 53.195312 225.066406 Z M 53.195312 225.066406 " fill-opacity="1" fill-rule="nonzero"/><g clip-path="url(#id6)"><path fill="rgb(100%, 100%, 100%)" d="M 100.074219 208.738281 L 52.136719 282.457031 C 44.667969 282.222656 38.84375 277.9375 36 270.300781 L 84.667969 195.476562 C 91.945312 196.136719 97.519531 200.789062 100.074219 208.738281 Z M 100.074219 208.738281 " fill-opacity="0.2471" fill-rule="nonzero"/></g></svg>