<svg xmlns="http://www.w3.org/2000/svg" xmlns:xlink="http://www.w3.org/1999/xlink" width="100" zoomAndPan="magnify" viewBox="0 0 75 74.999997" height="100" preserveAspectRatio="xMidYMid meet" version="1.0"><defs><clipPath id="id1"><path d="M 0.8125 0.8125 L 74.3125 0.8125 L 74.3125 74.3125 L 0.8125 74.3125 Z M 0.8125 0.8125 " clip-rule="nonzero"/></clipPath></defs><g clip-path="url(#id1)"><path fill="rgb(100%, 83.529663%, 44.709778%)" d="M 74.3125 37.5625 C 74.3125 38.765625 74.253906 39.96875 74.136719 41.164062 C 74.019531 42.363281 73.84375 43.550781 73.605469 44.734375 C 73.371094 45.914062 73.082031 47.078125 72.730469 48.230469 C 72.382812 49.382812 71.976562 50.515625 71.515625 51.625 C 71.054688 52.738281 70.542969 53.824219 69.972656 54.886719 C 69.40625 55.949219 68.789062 56.980469 68.121094 57.980469 C 67.449219 58.980469 66.734375 59.945312 65.972656 60.878906 C 65.207031 61.808594 64.402344 62.699219 63.550781 63.550781 C 62.699219 64.402344 61.808594 65.207031 60.878906 65.972656 C 59.945312 66.734375 58.980469 67.449219 57.980469 68.121094 C 56.980469 68.789062 55.949219 69.40625 54.886719 69.972656 C 53.824219 70.542969 52.738281 71.054688 51.625 71.515625 C 50.515625 71.976562 49.382812 72.382812 48.230469 72.730469 C 47.078125 73.082031 45.914062 73.371094 44.734375 73.605469 C 43.550781 73.84375 42.363281 74.019531 41.164062 74.136719 C 39.96875 74.253906 38.765625 74.3125 37.5625 74.3125 C 36.359375 74.3125 35.160156 74.253906 33.960938 74.136719 C 32.761719 74.019531 31.574219 73.84375 30.394531 73.605469 C 29.214844 73.371094 28.046875 73.082031 26.894531 72.730469 C 25.742188 72.382812 24.613281 71.976562 23.5 71.515625 C 22.386719 71.054688 21.300781 70.542969 20.238281 69.972656 C 19.179688 69.40625 18.148438 68.789062 17.144531 68.121094 C 16.144531 67.449219 15.179688 66.734375 14.25 65.972656 C 13.320312 65.207031 12.429688 64.402344 11.578125 63.550781 C 10.726562 62.699219 9.917969 61.808594 9.15625 60.878906 C 8.390625 59.945312 7.675781 58.980469 7.007812 57.980469 C 6.339844 56.980469 5.71875 55.949219 5.152344 54.886719 C 4.585938 53.824219 4.070312 52.738281 3.609375 51.625 C 3.148438 50.515625 2.746094 49.382812 2.394531 48.230469 C 2.046875 47.078125 1.753906 45.914062 1.519531 44.734375 C 1.285156 43.550781 1.109375 42.363281 0.988281 41.164062 C 0.871094 39.96875 0.8125 38.765625 0.8125 37.5625 C 0.8125 36.359375 0.871094 35.160156 0.988281 33.960938 C 1.109375 32.761719 1.285156 31.574219 1.519531 30.394531 C 1.753906 29.214844 2.046875 28.046875 2.394531 26.894531 C 2.746094 25.742188 3.148438 24.613281 3.609375 23.5 C 4.070312 22.386719 4.585938 21.300781 5.152344 20.238281 C 5.71875 19.179688 6.339844 18.148438 7.007812 17.144531 C 7.675781 16.144531 8.390625 15.179688 9.15625 14.25 C 9.917969 13.320312 10.726562 12.429688 11.578125 11.578125 C 12.429688 10.726562 13.320312 9.917969 14.25 9.15625 C 15.179688 8.390625 16.144531 7.675781 17.144531 7.007812 C 18.148438 6.339844 19.179688 5.71875 20.238281 5.152344 C 21.300781 4.585938 22.386719 4.070312 23.5 3.609375 C 24.613281 3.148438 25.742188 2.746094 26.894531 2.394531 C 28.046875 2.046875 29.214844 1.753906 30.394531 1.519531 C 31.574219 1.285156 32.761719 1.109375 33.960938 0.988281 C 35.160156 0.871094 36.359375 0.8125 37.5625 0.8125 C 38.765625 0.8125 39.96875 0.871094 41.164062 0.988281 C 42.363281 1.109375 43.550781 1.285156 44.734375 1.519531 C 45.914062 1.753906 47.078125 2.046875 48.230469 2.394531 C 49.382812 2.746094 50.515625 3.148438 51.625 3.609375 C 52.738281 4.070312 53.824219 4.585938 54.886719 5.152344 C 55.949219 5.71875 56.980469 6.339844 57.980469 7.007812 C 58.980469 7.675781 59.945312 8.390625 60.878906 9.15625 C 61.808594 9.917969 62.699219 10.726562 63.550781 11.578125 C 64.402344 12.429688 65.207031 13.320312 65.972656 14.25 C 66.734375 15.179688 67.449219 16.144531 68.121094 17.144531 C 68.789062 18.148438 69.40625 19.179688 69.972656 20.238281 C 70.542969 21.300781 71.054688 22.386719 71.515625 23.5 C 71.976562 24.613281 72.382812 25.742188 72.730469 26.894531 C 73.082031 28.046875 73.371094 29.214844 73.605469 30.394531 C 73.84375 31.574219 74.019531 32.761719 74.136719 33.960938 C 74.253906 35.160156 74.3125 36.359375 74.3125 37.5625 Z M 74.3125 37.5625 " fill-opacity="1" fill-rule="nonzero"/></g><path fill="rgb(98.81897%, 71.759033%, 39.608765%)" d="M 37.5625 64.828125 L 13.855469 52.972656 L 13.855469 22.152344 L 37.5625 10.296875 L 61.273438 22.152344 L 61.273438 52.972656 Z M 37.5625 64.828125 " fill-opacity="1" fill-rule="nonzero"/><path fill="rgb(100%, 89.7995%, 79.219055%)" d="M 58.109375 14.589844 C 55.40625 12.167969 52.335938 10.261719 48.976562 8.921875 L 49.855469 6.722656 C 53.472656 8.164062 56.78125 10.214844 59.691406 12.820312 Z M 58.109375 14.589844 " fill-opacity="1" fill-rule="nonzero"/><path fill="rgb(100%, 89.7995%, 79.219055%)" d="M 46.695312 8.117188 C 45.574219 7.769531 44.421875 7.484375 43.273438 7.269531 L 43.707031 4.9375 C 44.949219 5.167969 46.191406 5.476562 47.398438 5.851562 Z M 46.695312 8.117188 " fill-opacity="1" fill-rule="nonzero"/><path fill="rgb(92.939758%, 51.368713%, 51.368713%)" d="M 20.964844 23.335938 L 23.335938 23.335938 L 23.335938 35.191406 L 20.964844 35.191406 Z M 20.964844 23.335938 " fill-opacity="1" fill-rule="nonzero"/><path fill="rgb(92.939758%, 51.368713%, 51.368713%)" d="M 39.933594 23.335938 L 42.304688 23.335938 L 42.304688 35.191406 L 39.933594 35.191406 Z M 39.933594 23.335938 " fill-opacity="1" fill-rule="nonzero"/><path fill="rgb(92.939758%, 51.368713%, 51.368713%)" d="M 36.378906 35.191406 L 26.894531 35.191406 L 26.894531 23.335938 L 36.378906 23.335938 Z M 29.265625 32.820312 L 34.007812 32.820312 L 34.007812 25.707031 L 29.265625 25.707031 Z M 29.265625 32.820312 " fill-opacity="1" fill-rule="nonzero"/><path fill="rgb(92.939758%, 51.368713%, 51.368713%)" d="M 30.449219 51.789062 L 20.964844 51.789062 L 20.964844 39.933594 L 30.449219 39.933594 Z M 23.335938 49.417969 L 28.078125 49.417969 L 28.078125 42.304688 L 23.335938 42.304688 Z M 23.335938 49.417969 " fill-opacity="1" fill-rule="nonzero"/><path fill="rgb(92.939758%, 51.368713%, 51.368713%)" d="M 55.34375 35.191406 L 45.863281 35.191406 L 45.863281 23.335938 L 55.34375 23.335938 Z M 48.234375 32.820312 L 52.972656 32.820312 L 52.972656 25.707031 L 48.234375 25.707031 Z M 48.234375 32.820312 " fill-opacity="1" fill-rule="nonzero"/><path fill="rgb(92.939758%, 51.368713%, 51.368713%)" d="M 34.007812 39.933594 L 36.378906 39.933594 L 36.378906 51.789062 L 34.007812 51.789062 Z M 34.007812 39.933594 " fill-opacity="1" fill-rule="nonzero"/><path fill="rgb(92.939758%, 51.368713%, 51.368713%)" d="M 39.933594 39.933594 L 42.304688 39.933594 L 42.304688 51.789062 L 39.933594 51.789062 Z M 39.933594 39.933594 " fill-opacity="1" fill-rule="nonzero"/><path fill="rgb(92.939758%, 51.368713%, 51.368713%)" d="M 55.34375 51.789062 L 45.863281 51.789062 L 45.863281 39.933594 L 55.34375 39.933594 Z M 48.234375 49.417969 L 52.972656 49.417969 L 52.972656 42.304688 L 48.234375 42.304688 Z M 48.234375 49.417969 " fill-opacity="1" fill-rule="nonzero"/></svg>