<svg width="370" height="121" viewBox="0 0 370 121" fill="none" xmlns="http://www.w3.org/2000/svg">
<g clip-path="url(#clip0)">
<path fill-rule="evenodd" clip-rule="evenodd" d="M369.5 15.7C369.5 7 362.5 0 353.8 0H15.7C7 0 0 7 0 15.7V104.8C0 113.5 7 120.5 15.7 120.5H353.9C362.6 120.5 369.6 113.5 369.6 104.8V15.7H369.5Z" fill="#373737"/>
<path fill-rule="evenodd" clip-rule="evenodd" d="M92.7 79.5455C67.1 50.2455 58.3 23.1455 56 14.7455C73.1 12.6455 94.7 14.4455 117.6 27.1455C117.6 27.1455 111.7 53.1455 92.7 79.5455ZM74 27.2455C75 31.2455 79.2 44.0455 91.3 57.9455C99.0882 47.1285 102.234 36.3865 103.004 33.7547C103.124 33.3452 103.187 33.132 103.2 33.1455C92.3 27.0455 82.1 26.2455 74 27.2455ZM57.2 55.1455L67.2 49.2455C72.6 58.8455 80.3 70.3455 90.7 82.2455C88.7 84.9455 86.6 87.5455 84.3 90.1455C76 82.5455 66.2 70.4455 62.3 65.1455L54 71.3455C54.056 71.419 54.1234 71.5077 54.2019 71.6109C56.363 74.4551 66.8746 88.2886 77.2 97.7455C74.6 100.345 71.8 102.845 68.8 105.345C68.8 105.345 34.4 81.6455 19 26.8455C19 26.8455 32.2 18.4455 52.8 15.2455C53.8 19.1455 56.2 27.1455 61.2 37.7455C61.4546 38.2547 61.7131 38.7755 61.9769 39.307C63.0599 41.4892 64.233 43.8527 65.6 46.3455L55.5 52.3455L57.2 55.1455ZM34.5 33.1455C35 34.3455 39.3 44.6455 41.7 48.4455L50.5 42.8455C49.1 40.6455 45.8 33.2455 44.1 29.1455L34.5 33.1455Z" fill="url(#paint0_linear)"/>
<path d="M143.1 53.3455H157.4C172.2 53.3455 173.9 60.8455 173.9 66.0455C173.9 70.6455 172.4 77.1455 162.5 77.9455L176 92.3455H164.5L151.8 76.8455V92.3455H143.2V53.3455H143.1ZM157.8 71.4455C163.9 71.4455 165.1 68.5455 165.1 66.0455C165.1 63.4455 163.9 60.4455 157.8 60.4455H151.8V71.4455H157.8Z" fill="white"/>
<path d="M179.3 77.9454V61.1454H187.6V78.6454C187.6 83.0454 188.4 85.7454 193.6 85.7454C198.8 85.7454 200 83.1454 200 78.6454V61.1454H208.3V92.2454H204.8L202.9 87.4454C200.8 90.6454 197.9 92.7454 191 92.7454C181.3 92.7454 179.3 86.6454 179.3 77.9454Z" fill="white"/>
<path d="M212.8 94.4455H221.6C221.8 97.0455 222.4 99.0455 228.9 99.0455C234.4 99.0455 235.6 97.4455 235.6 96.2455C235.6 94.6455 234.9 94.0455 227.4 92.9455C218.6 91.6455 213.1 90.5455 213.1 85.6455C213.1 82.3455 215.8 80.7455 219.9 80.0455C215.5 78.4455 213.8 75.2455 213.8 71.4455C213.8 66.4455 216.8 61.2455 229.7 61.2455H243.6V64.8455L238.6 66.6455C240.9 67.7455 242.4 70.0455 242.4 73.7455C242.4 82.5455 233.5 82.9455 228 83.2455C223.5 83.4455 221.7 83.4455 221.7 84.7455C221.7 85.6455 222.9 85.9454 230.6 87.1455C236.9 88.1455 244.2 89.1455 244.2 95.6455C244.2 100.145 241.2 105.545 227.8 105.545C216.1 105.345 212.8 101.045 212.8 94.4455ZM228.1 76.9455C232.6 76.9455 233.6 75.0455 233.6 72.2455C233.6 69.6455 232.6 67.7455 228 67.7455C223.5 67.7455 222.4 69.5455 222.4 72.1455C222.5 74.9455 223.5 76.9455 228.1 76.9455Z" fill="white"/>
<path d="M249 53.3455H264.1C276 53.3455 282.3 60.1455 282.3 72.5455C282.3 84.8455 275.5 92.2455 263.4 92.2455H249V53.3455ZM261.9 85.1455C269.8 85.1455 273.9 82.4455 273.9 72.5455C273.8 62.5455 270.1 60.5455 262.2 60.5455H257.7V85.1455H261.9Z" fill="white"/>
<path d="M286.9 76.6454C286.9 68.4454 290.3 60.6454 302.4 60.6454C314.4 60.6454 317.9 68.4454 317.9 76.6454C317.9 85.0454 314.4 92.7454 302.3 92.7454C290.2 92.7454 286.9 84.9454 286.9 76.6454ZM302.2 85.6454C307.9 85.6454 309.6 81.8454 309.6 76.6454C309.6 71.7454 308.1 67.7454 302.3 67.7454C296.6 67.7454 295 71.5454 295 76.6454C295.1 81.8454 296.7 85.6454 302.2 85.6454Z" fill="white"/>
<path d="M321.3 76.7454C321.3 68.4454 324.6 60.6454 337 60.6454C346.9 60.6454 351.5 65.8454 351.5 73.5454H342.9C342.4 69.7454 340.9 67.5454 336.8 67.5454C331.4 67.5454 329.4 71.2454 329.4 76.6454C329.4 81.8454 331.3 85.6454 336.8 85.6454C340.9 85.6454 342.4 83.4454 342.9 80.0454L351.5 80.1454C351.5 87.7454 347 92.8454 337.1 92.8454C324.6 92.7454 321.3 85.1454 321.3 76.7454Z" fill="white"/>
<path fill-rule="evenodd" clip-rule="evenodd" d="M351.6 27.1455C351.6 24.2455 349.3 21.9455 346.4 21.9455H148.4C145.5 21.9455 143.2 24.2455 143.2 27.1455V37.5455C143.2 40.4455 145.5 42.7455 148.4 42.7455H346.4C349.3 42.7455 351.6 40.4455 351.6 37.5455V27.1455Z" fill="url(#paint1_linear)"/>
<path d="M157 31.9455V28.3455H159C161 28.3455 161.4 29.3455 161.4 30.1455C161.4 30.9455 161 31.8455 159 31.8455H157V31.9455ZM154.2 38.6455H157V33.5455L161.1 38.6455H164.8L160.4 33.9455C163.6 33.7455 164.1 31.5455 164.1 30.0455C164.1 28.3455 163.5 25.9455 158.7 25.9455H154V38.6455H154.2Z" fill="#292929"/>
<path d="M172.4 38.6455H181.4V36.3455H175.2V33.3455H180.8V31.0455H175.2V28.3455H181.4V25.9455H172.4V38.6455Z" fill="#292929"/>
<path d="M192.6 38.6455H196.4L201 25.9455H198L194.6 36.5455L191.1 25.9455H188.1L192.6 38.6455Z" fill="#292929"/>
<path d="M211.1 25.9455H208.3V38.6455H211.1V25.9455Z" fill="#292929"/>
<path d="M219.8 38.6455H228.8V36.3455H222.6V33.3455H228.1V31.0455H222.6V28.3455H228.8V25.9455H219.8V38.6455Z" fill="#292929"/>
<path d="M239.3 38.6455H242.8L245.4 29.4455L248.1 38.6455H251.5L255.2 25.9455H252.3L249.9 35.2455L247.2 25.9455H243.8L241.1 35.2455L238.7 25.9455H235.7L239.3 38.6455Z" fill="#292929"/>
<path d="M262.6 38.6455H271.6V36.3455H265.4V33.3455H271V31.0455H265.4V28.3455H271.6V25.9455H262.6V38.6455Z" fill="#292929"/>
<path d="M282.6 36.3455V28.3455H284.1C286.7 28.3455 287.9 29.0455 287.9 32.2455C287.9 35.4455 286.6 36.3455 284 36.3455H282.6ZM279.8 38.6455H284.5C288.4 38.6455 290.6 36.2455 290.6 32.2455C290.6 28.1455 288.5 25.9455 284.7 25.9455H279.8V38.6455Z" fill="#292929"/>
<path d="M314.7 31.1455V28.3455H316.8C318.7 28.3455 318.9 28.9455 318.9 29.7455C318.9 30.5455 318.6 31.1455 316.7 31.1455H314.7ZM314.7 36.3455V33.2455H317C319 33.2455 319.3 33.9455 319.3 34.7455C319.3 35.5455 318.9 36.2455 317 36.2455H314.7V36.3455ZM311.9 38.6455H316.9C320.9 38.6455 322.2 36.8455 322.2 34.8455C322.2 33.5455 321.7 32.2455 320.2 31.8455C321.3 31.3455 321.8 30.4455 321.8 29.1455C321.8 27.3455 320.5 25.9455 316.9 25.9455H312V38.6455H311.9Z" fill="#292929"/>
<path d="M332.7 38.6455H335.7V34.8455L340.5 25.9455H337.5L334.3 32.4455L331.1 25.9455H328.2L332.7 34.8455V38.6455Z" fill="#292929"/>
</g>
<defs>
<linearGradient id="paint0_linear" x1="19" y1="48.4302" x2="117.6" y2="48.4834" gradientUnits="userSpaceOnUse">
<stop stop-color="#1BD4F7"/>
<stop offset="1" stop-color="#83E335"/>
</linearGradient>
<linearGradient id="paint1_linear" x1="143.2" y1="29.7855" x2="351.596" y2="30.829" gradientUnits="userSpaceOnUse">
<stop stop-color="#83E335"/>
<stop offset="1" stop-color="#1BD4F7"/>
</linearGradient>
<clipPath id="clip0">
<rect width="369.5" height="120.4" fill="white"/>
</clipPath>
</defs>
</svg>
