<svg xmlns="http://www.w3.org/2000/svg" xmlns:xlink="http://www.w3.org/1999/xlink" width="100" zoomAndPan="magnify" viewBox="0 0 75 74.999997" height="100" preserveAspectRatio="xMidYMid meet" version="1.0"><defs><clipPath id="id1"><path d="M 0.972656 0.972656 L 73.722656 0.972656 L 73.722656 73.722656 L 0.972656 73.722656 Z M 0.972656 0.972656 " clip-rule="nonzero"/></clipPath></defs><g clip-path="url(#id1)"><path fill="rgb(34.899902%, 17.248535%, 51.759338%)" d="M 73.722656 37.347656 C 73.722656 47.328125 69.699219 56.363281 63.191406 62.933594 C 56.601562 69.597656 47.457031 73.714844 37.351562 73.714844 C 27.242188 73.714844 18.089844 69.597656 11.503906 62.933594 C 4.996094 56.363281 0.972656 47.328125 0.972656 37.347656 C 0.972656 17.253906 17.261719 0.976562 37.351562 0.976562 C 57.433594 0.976562 73.722656 17.253906 73.722656 37.347656 Z M 73.722656 37.347656 " fill-opacity="1" fill-rule="nonzero"/></g><path fill="rgb(33.729553%, 6.669617%, 51.368713%)" d="M 64.875 37.347656 C 64.875 37.511719 64.875 37.683594 64.871094 37.847656 C 64.605469 52.828125 52.386719 64.875 37.347656 64.875 C 23.921875 64.875 12.746094 55.273438 10.3125 42.554688 C 9.988281 40.871094 9.816406 39.128906 9.816406 37.347656 C 9.816406 22.144531 22.140625 9.816406 37.347656 9.816406 C 52.550781 9.816406 64.875 22.144531 64.875 37.347656 Z M 64.875 37.347656 " fill-opacity="1" fill-rule="nonzero"/><path fill="rgb(100%, 73.728943%, 31.369019%)" d="M 37.066406 23.441406 C 37.066406 30.957031 30.964844 37.058594 23.441406 37.058594 C 15.917969 37.058594 9.816406 30.957031 9.816406 23.441406 C 9.816406 15.917969 15.917969 9.816406 23.441406 9.816406 C 30.964844 9.816406 37.066406 15.917969 37.066406 23.441406 Z M 37.066406 23.441406 " fill-opacity="1" fill-rule="nonzero"/><path fill="rgb(100%, 70.199585%, 17.248535%)" d="M 34.28125 31.691406 C 31.789062 34.953125 27.863281 37.058594 23.441406 37.058594 C 15.914062 37.058594 9.816406 30.960938 9.816406 23.441406 C 9.816406 19.023438 11.921875 15.097656 15.175781 12.613281 C 13.421875 14.902344 12.378906 17.765625 12.378906 20.875 C 12.378906 28.394531 18.480469 34.496094 26.003906 34.496094 C 29.117188 34.496094 31.988281 33.449219 34.28125 31.691406 Z M 34.28125 31.691406 " fill-opacity="1" fill-rule="nonzero"/><path fill="rgb(100%, 70.199585%, 17.248535%)" d="M 33.464844 23.441406 C 33.464844 28.976562 28.976562 33.464844 23.441406 33.464844 C 17.90625 33.464844 13.414062 28.976562 13.414062 23.441406 C 13.414062 17.898438 17.90625 13.40625 23.441406 13.40625 C 28.976562 13.40625 33.464844 17.898438 33.464844 23.441406 Z M 33.464844 23.441406 " fill-opacity="1" fill-rule="nonzero"/><path fill="rgb(95.689392%, 62.348938%, 8.628845%)" d="M 31.34375 17.277344 C 29.652344 15.960938 27.519531 15.175781 25.207031 15.175781 C 19.671875 15.175781 15.179688 19.664062 15.179688 25.207031 C 15.179688 27.527344 15.964844 29.664062 17.289062 31.355469 C 14.929688 29.519531 13.414062 26.65625 13.414062 23.4375 C 13.414062 17.898438 17.902344 13.40625 23.4375 13.40625 C 26.65625 13.40625 29.515625 14.917969 31.34375 17.277344 Z M 31.34375 17.277344 " fill-opacity="1" fill-rule="nonzero"/><path fill="rgb(100%, 100%, 100%)" d="M 26.355469 25.574219 C 26.355469 26.910156 25.457031 28.046875 24.21875 28.382812 L 24.21875 28.90625 C 24.21875 29.34375 23.875 29.6875 23.4375 29.6875 C 23.007812 29.6875 22.65625 29.34375 22.65625 28.90625 L 22.65625 28.382812 C 21.425781 28.046875 20.527344 26.910156 20.527344 25.574219 C 20.527344 25.140625 20.878906 24.789062 21.308594 24.789062 C 21.738281 24.789062 22.089844 25.140625 22.089844 25.574219 C 22.089844 26.324219 22.695312 26.925781 23.4375 26.925781 C 24.179688 26.925781 24.789062 26.324219 24.789062 25.574219 C 24.789062 24.828125 24.179688 24.21875 23.4375 24.21875 C 21.832031 24.21875 20.527344 22.914062 20.527344 21.300781 C 20.527344 19.96875 21.425781 18.835938 22.65625 18.492188 L 22.65625 17.96875 C 22.65625 17.535156 23.007812 17.183594 23.4375 17.183594 C 23.875 17.183594 24.21875 17.535156 24.21875 17.96875 L 24.21875 18.492188 C 25.457031 18.835938 26.355469 19.96875 26.355469 21.300781 C 26.355469 21.730469 26.003906 22.082031 25.574219 22.082031 C 25.136719 22.082031 24.789062 21.730469 24.789062 21.300781 C 24.789062 20.558594 24.179688 19.945312 23.4375 19.945312 C 22.695312 19.945312 22.089844 20.558594 22.089844 21.300781 C 22.089844 22.050781 22.695312 22.65625 23.4375 22.65625 C 25.050781 22.65625 26.355469 23.96875 26.355469 25.574219 Z M 26.355469 25.574219 " fill-opacity="1" fill-rule="nonzero"/><path fill="rgb(100%, 100%, 100%)" d="M 32.144531 16.269531 C 31.957031 16.042969 31.761719 15.824219 31.554688 15.613281 C 31.335938 15.386719 31.34375 15.027344 31.570312 14.808594 C 31.796875 14.589844 32.15625 14.597656 32.375 14.824219 C 32.597656 15.054688 32.8125 15.296875 33.019531 15.546875 C 33.21875 15.789062 33.183594 16.144531 32.941406 16.34375 C 32.699219 16.546875 32.339844 16.511719 32.144531 16.269531 Z M 32.144531 16.269531 " fill-opacity="0.298" fill-rule="nonzero"/><path fill="rgb(100%, 100%, 100%)" d="M 30.136719 14.367188 C 28.1875 12.925781 25.871094 12.164062 23.441406 12.164062 C 23.128906 12.164062 22.875 11.910156 22.875 11.597656 C 22.875 11.285156 23.128906 11.027344 23.441406 11.027344 C 26.117188 11.027344 28.664062 11.867188 30.8125 13.453125 C 31.0625 13.640625 31.117188 13.996094 30.929688 14.246094 C 30.742188 14.5 30.386719 14.550781 30.136719 14.367188 Z M 30.136719 14.367188 " fill-opacity="0.298" fill-rule="nonzero"/><path fill="rgb(26.269531%, 63.139343%, 100%)" d="M 64.875 51.257812 C 64.875 58.777344 58.777344 64.875 51.25 64.875 C 43.722656 64.875 37.621094 58.777344 37.621094 51.257812 C 37.621094 43.730469 43.722656 37.628906 51.25 37.628906 C 58.777344 37.628906 64.875 43.730469 64.875 51.257812 Z M 64.875 51.257812 " fill-opacity="1" fill-rule="nonzero"/><path fill="rgb(17.248535%, 54.899597%, 100%)" d="M 62.085938 59.515625 C 59.597656 62.769531 55.667969 64.875 51.246094 64.875 C 43.722656 64.875 37.625 58.777344 37.625 51.257812 C 37.625 46.839844 39.71875 42.917969 42.976562 40.429688 C 41.222656 42.71875 40.179688 45.589844 40.179688 48.699219 C 40.179688 56.21875 46.277344 62.316406 53.804688 62.316406 C 56.925781 62.316406 59.792969 61.269531 62.085938 59.515625 Z M 62.085938 59.515625 " fill-opacity="1" fill-rule="nonzero"/><path fill="rgb(17.248535%, 54.899597%, 100%)" d="M 61.273438 51.257812 C 61.273438 56.792969 56.78125 61.28125 51.246094 61.28125 C 45.710938 61.28125 41.222656 56.792969 41.222656 51.257812 C 41.222656 45.714844 45.710938 41.226562 51.246094 41.226562 C 56.78125 41.226562 61.273438 45.714844 61.273438 51.257812 Z M 61.273438 51.257812 " fill-opacity="1" fill-rule="nonzero"/><path fill="rgb(7.058716%, 45.098877%, 100%)" d="M 59.171875 45.109375 C 57.472656 43.78125 55.335938 42.992188 53.011719 42.992188 C 47.476562 42.992188 42.984375 47.480469 42.984375 53.023438 C 42.984375 55.335938 43.769531 57.46875 45.089844 59.160156 C 42.734375 57.324219 41.222656 54.464844 41.222656 51.253906 C 41.222656 45.714844 45.714844 41.222656 51.25 41.222656 C 54.472656 41.222656 57.34375 42.746094 59.171875 45.109375 Z M 59.171875 45.109375 " fill-opacity="1" fill-rule="nonzero"/><path fill="rgb(100%, 100%, 100%)" d="M 54.289062 51.296875 C 54.917969 50.765625 55.316406 49.972656 55.316406 49.085938 C 55.316406 47.742188 54.398438 46.617188 53.152344 46.292969 L 53.152344 45.695312 C 53.152344 45.3125 52.84375 45 52.460938 45 C 52.078125 45 51.769531 45.3125 51.769531 45.695312 L 51.769531 46.195312 L 50.722656 46.195312 L 50.722656 45.695312 C 50.722656 45.3125 50.414062 45 50.03125 45 C 49.648438 45 49.339844 45.3125 49.339844 45.695312 L 49.339844 46.195312 L 47.867188 46.195312 C 47.484375 46.195312 47.175781 46.503906 47.175781 46.886719 C 47.175781 47.269531 47.484375 47.582031 47.867188 47.582031 L 48.261719 47.582031 L 48.261719 51.285156 C 48.261719 51.289062 48.261719 51.292969 48.261719 51.296875 C 48.261719 51.300781 48.261719 51.304688 48.261719 51.308594 L 48.261719 55.011719 L 47.867188 55.011719 C 47.484375 55.011719 47.175781 55.320312 47.175781 55.703125 C 47.175781 56.085938 47.484375 56.394531 47.867188 56.394531 L 49.339844 56.394531 L 49.339844 56.8125 C 49.339844 57.195312 49.648438 57.503906 50.03125 57.503906 C 50.414062 57.503906 50.722656 57.195312 50.722656 56.8125 L 50.722656 56.394531 L 51.769531 56.394531 L 51.769531 56.8125 C 51.769531 57.195312 52.078125 57.503906 52.460938 57.503906 C 52.84375 57.503906 53.152344 57.195312 53.152344 56.8125 L 53.152344 56.300781 C 54.398438 55.976562 55.316406 54.847656 55.316406 53.503906 C 55.316406 52.621094 54.917969 51.828125 54.289062 51.296875 Z M 53.933594 49.085938 C 53.933594 49.917969 53.257812 50.59375 52.429688 50.59375 L 49.648438 50.59375 L 49.648438 47.582031 L 52.429688 47.582031 C 53.257812 47.582031 53.933594 48.257812 53.933594 49.085938 Z M 52.429688 55.011719 L 49.648438 55.011719 L 49.648438 52 L 52.429688 52 C 53.257812 52 53.933594 52.675781 53.933594 53.503906 C 53.933594 54.335938 53.257812 55.011719 52.429688 55.011719 Z M 52.429688 55.011719 " fill-opacity="1" fill-rule="nonzero"/><path fill="rgb(100%, 100%, 100%)" d="M 59.449219 43.742188 C 59.261719 43.515625 59.066406 43.296875 58.863281 43.085938 C 58.644531 42.859375 58.652344 42.5 58.878906 42.28125 C 59.101562 42.0625 59.460938 42.070312 59.679688 42.296875 C 59.90625 42.527344 60.121094 42.769531 60.324219 43.019531 C 60.527344 43.261719 60.492188 43.617188 60.25 43.816406 C 60.007812 44.019531 59.648438 43.984375 59.449219 43.742188 Z M 59.449219 43.742188 " fill-opacity="0.298" fill-rule="nonzero"/><path fill="rgb(100%, 100%, 100%)" d="M 57.441406 41.839844 C 55.496094 40.398438 53.179688 39.636719 50.75 39.636719 C 50.433594 39.636719 50.179688 39.382812 50.179688 39.070312 C 50.179688 38.757812 50.433594 38.5 50.75 38.5 C 53.425781 38.5 55.972656 39.339844 58.117188 40.925781 C 58.371094 41.113281 58.425781 41.46875 58.238281 41.71875 C 58.050781 41.972656 57.691406 42.023438 57.441406 41.839844 Z M 57.441406 41.839844 " fill-opacity="0.298" fill-rule="nonzero"/><path fill="rgb(98.81897%, 32.939148%, 36.468506%)" d="M 39.441406 16.148438 C 38.9375 16.277344 38.425781 16.425781 37.898438 16.597656 C 37.277344 16.800781 37.367188 17.695312 38.007812 17.800781 C 45.851562 19.066406 49.46875 23.222656 51.488281 28.664062 L 49.882812 29.140625 C 48.976562 29.410156 48.851562 30.640625 49.679688 31.089844 L 56.078125 34.558594 C 56.59375 34.835938 57.238281 34.644531 57.515625 34.128906 L 57.679688 33.824219 L 60.972656 27.730469 C 61.417969 26.898438 60.640625 25.941406 59.734375 26.210938 L 58.121094 26.691406 C 58.121094 26.691406 53.582031 12.617188 39.441406 16.148438 Z M 39.441406 16.148438 " fill-opacity="1" fill-rule="nonzero"/><path fill="rgb(94.509888%, 26.669312%, 28.239441%)" d="M 51.484375 28.65625 C 49.464844 23.21875 45.847656 19.0625 38.003906 17.800781 C 37.359375 17.699219 37.273438 16.800781 37.890625 16.597656 C 38.421875 16.425781 38.9375 16.273438 39.441406 16.144531 C 39.539062 16.125 39.632812 16.101562 39.730469 16.078125 C 39.15625 16.28125 38.5625 16.519531 37.957031 16.777344 C 47.554688 17.507812 51.714844 21.945312 53.9375 27.929688 Z M 51.484375 28.65625 " fill-opacity="1" fill-rule="nonzero"/><path fill="rgb(94.509888%, 26.669312%, 28.239441%)" d="M 57.871094 33.46875 L 57.683594 33.824219 L 57.519531 34.128906 C 57.238281 34.644531 56.59375 34.835938 56.078125 34.554688 L 49.683594 31.089844 C 48.851562 30.640625 48.980469 29.410156 49.886719 29.140625 Z M 57.871094 33.46875 " fill-opacity="1" fill-rule="nonzero"/><path fill="rgb(100%, 100%, 100%)" d="M 57.1875 32.089844 C 57.097656 32.117188 56.996094 32.109375 56.90625 32.058594 C 56.726562 31.960938 56.660156 31.738281 56.753906 31.558594 L 58.730469 27.902344 C 58.828125 27.722656 59.050781 27.65625 59.230469 27.753906 C 59.410156 27.851562 59.476562 28.074219 59.378906 28.253906 L 57.40625 31.910156 C 57.355469 32 57.277344 32.0625 57.1875 32.089844 Z M 57.1875 32.089844 " fill-opacity="0.298" fill-rule="nonzero"/><path fill="rgb(30.979919%, 90.979004%, 55.288696%)" d="M 35.074219 57.902344 C 35.574219 57.773438 36.089844 57.625 36.617188 57.453125 C 37.238281 57.25 37.148438 56.351562 36.507812 56.25 C 28.664062 54.984375 25.046875 50.824219 23.027344 45.386719 L 24.628906 44.910156 C 25.535156 44.640625 25.664062 43.410156 24.832031 42.957031 L 18.4375 39.492188 C 17.921875 39.210938 17.277344 39.402344 17 39.921875 L 16.835938 40.222656 L 13.542969 46.316406 C 13.09375 47.148438 13.875 48.109375 14.78125 47.839844 L 16.394531 47.359375 C 16.394531 47.359375 20.933594 61.429688 35.074219 57.902344 Z M 35.074219 57.902344 " fill-opacity="1" fill-rule="nonzero"/><path fill="rgb(20.779419%, 81.959534%, 45.878601%)" d="M 23.03125 45.390625 C 25.050781 50.828125 28.667969 54.984375 36.511719 56.246094 C 37.15625 56.351562 37.242188 57.246094 36.625 57.449219 C 36.09375 57.625 35.578125 57.773438 35.074219 57.902344 C 34.976562 57.925781 34.882812 57.949219 34.785156 57.972656 C 35.359375 57.769531 35.953125 57.53125 36.558594 57.273438 C 26.960938 56.542969 22.800781 52.105469 20.574219 46.117188 Z M 23.03125 45.390625 " fill-opacity="1" fill-rule="nonzero"/><path fill="rgb(20.779419%, 81.959534%, 45.878601%)" d="M 16.640625 40.578125 L 16.832031 40.226562 L 16.996094 39.921875 C 17.277344 39.40625 17.921875 39.214844 18.4375 39.492188 L 24.832031 42.957031 C 25.664062 43.410156 25.535156 44.640625 24.628906 44.910156 Z M 16.640625 40.578125 " fill-opacity="1" fill-rule="nonzero"/><path fill="rgb(100%, 100%, 100%)" d="M 17.328125 41.960938 C 17.417969 41.933594 17.519531 41.941406 17.609375 41.988281 C 17.789062 42.085938 17.855469 42.308594 17.757812 42.488281 L 15.785156 46.144531 C 15.6875 46.324219 15.464844 46.394531 15.285156 46.296875 C 15.105469 46.199219 15.039062 45.976562 15.136719 45.796875 L 17.109375 42.140625 C 17.15625 42.050781 17.238281 41.988281 17.328125 41.960938 Z M 17.328125 41.960938 " fill-opacity="0.298" fill-rule="nonzero"/></svg>