<?xml version="1.0" encoding="UTF-8"?>
<!DOCTYPE svg PUBLIC "-//W3C//DTD SVG 1.1//EN" "http://www.w3.org/Graphics/SVG/1.1/DTD/svg11.dtd">
<svg xmlns="http://www.w3.org/2000/svg" version="1.1" width="400px" height="133px" style="shape-rendering:geometricPrecision; text-rendering:geometricPrecision; image-rendering:optimizeQuality; fill-rule:evenodd; clip-rule:evenodd" xmlns:xlink="http://www.w3.org/1999/xlink">
<g><path style="opacity:1" fill="#8bfb78" d="M 232.5,22.5 C 238.262,22.1493 243.928,22.6493 249.5,24C 254.684,28.6249 254.684,33.2915 249.5,38C 233.044,35.7606 223.21,42.9273 220,59.5C 218.834,72.327 224.667,77.4937 237.5,75C 243.184,69.1502 242.184,67.9835 234.5,71.5C 227.727,70.3025 225.227,66.3025 227,59.5C 227.833,58 229,56.8333 230.5,56C 237.897,52.9847 245.23,52.9847 252.5,56C 258.161,62.154 258.995,68.9873 255,76.5C 246.514,91.2165 234.347,95.0498 218.5,88C 209.482,82.6423 204.815,74.6423 204.5,64C 205.821,44.5516 215.155,30.7182 232.5,22.5 Z"/></g>
<g><path style="opacity:0.998" fill="#fc7889" d="M 79.5,26.5 C 86.4319,27.5984 89.2652,31.5984 88,38.5C 86.6811,40.4875 84.8477,41.6541 82.5,42C 75.4629,43.0288 68.4629,44.1955 61.5,45.5C 60.8875,49.163 60.7208,52.8297 61,56.5C 65.7542,55.3422 70.5876,54.8422 75.5,55C 81.1582,56.8294 82.9916,60.6627 81,66.5C 79.786,68.0488 78.286,69.2155 76.5,70C 70.4932,70.5006 64.4932,71.0006 58.5,71.5C 57.5407,80.2559 56.0407,88.9225 54,97.5C 49.076,101.695 44.7426,101.029 41,95.5C 42.4304,76.8109 44.4304,58.1442 47,39.5C 48.0608,36.4384 49.8941,33.9384 52.5,32C 61.5854,29.9349 70.5854,28.1016 79.5,26.5 Z"/></g>
<g><path style="opacity:0.998" fill="#79fbea" d="M 324.5,26.5 C 331.465,27.6254 334.299,31.6254 333,38.5C 331.681,40.4875 329.848,41.6541 327.5,42C 320.777,42.9361 314.111,44.1028 307.5,45.5C 305.91,49.036 305.41,52.7026 306,56.5C 310.108,55.7367 314.274,55.07 318.5,54.5C 325.684,55.5249 328.184,59.5249 326,66.5C 324.786,68.0488 323.286,69.2155 321.5,70C 315.493,70.5006 309.493,71.0006 303.5,71.5C 302.326,80.2217 300.826,88.8884 299,97.5C 293.563,101.893 289.23,100.893 286,94.5C 287.664,76.1712 289.664,57.8378 292,39.5C 293.061,36.4384 294.894,33.9384 297.5,32C 306.591,29.949 315.591,28.1157 324.5,26.5 Z"/></g>
<g><path style="opacity:0.999" fill="#fc78cb" d="M 348.5,27.5 C 355.212,27.5486 357.879,30.882 356.5,37.5C 355.21,55.192 353.71,72.8587 352,90.5C 347.239,95.8119 342.572,95.8119 338,90.5C 338.283,71.666 339.616,52.666 342,33.5C 343.436,30.5581 345.603,28.5581 348.5,27.5 Z"/></g>
<g><path style="opacity:1" fill="#fcea78" d="M 166.5,83.5 C 165.883,83.6107 165.383,83.944 165,84.5C 164.172,88.466 163.672,92.466 163.5,96.5C 162.647,103.529 158.98,105.696 152.5,103C 150.274,101.38 148.94,99.2138 148.5,96.5C 151.425,80.7113 154.925,65.0446 159,49.5C 161.735,43.8783 165.901,42.3783 171.5,45C 174.795,51.758 177.962,58.5913 181,65.5C 182.883,55.5363 184.55,45.5363 186,35.5C 189.404,29.6555 193.737,28.9889 199,33.5C 200.006,35.5336 200.506,37.7002 200.5,40C 197.893,57.93 194.726,75.7633 191,93.5C 187.941,98.5393 183.775,99.706 178.5,97C 174.93,90.0249 171.763,82.8583 169,75.5C 167.85,78.0482 167.017,80.7149 166.5,83.5 Z"/></g>
<g><path style="opacity:0.997" fill="#fca877" d="M 97.5,31.5 C 101.287,30.8144 104.454,31.8144 107,34.5C 107.372,43.8553 108.038,53.1887 109,62.5C 109.601,65.6366 110.601,68.6366 112,71.5C 115.228,74.1304 118.395,73.9638 121.5,71C 125.753,66.3258 128.253,60.8258 129,54.5C 129.333,48.1667 129.667,41.8333 130,35.5C 135.319,31.1168 139.985,31.7835 144,37.5C 146.246,52.3719 143.246,66.0385 135,78.5C 128.198,87.2127 119.364,90.3794 108.5,88C 101.18,83.5509 96.6803,77.0509 95,68.5C 92.6876,57.9412 92.0209,47.2745 93,36.5C 94.025,34.313 95.525,32.6464 97.5,31.5 Z"/></g>
<g><path style="opacity:0.871" fill="#f4e18e" d="M 166.5,83.5 C 165.81,88.0166 164.81,92.3499 163.5,96.5C 163.672,92.466 164.172,88.466 165,84.5C 165.383,83.944 165.883,83.6107 166.5,83.5 Z"/></g>
</svg>
