<?xml version="1.0" encoding="UTF-8"?>
<!DOCTYPE svg PUBLIC "-//W3C//DTD SVG 1.1//EN" "http://www.w3.org/Graphics/SVG/1.1/DTD/svg11.dtd">
<svg xmlns="http://www.w3.org/2000/svg" version="1.1" width="400px" height="133px" style="shape-rendering:geometricPrecision; text-rendering:geometricPrecision; image-rendering:optimizeQuality; fill-rule:evenodd; clip-rule:evenodd" xmlns:xlink="http://www.w3.org/1999/xlink">
<g><path style="opacity:0.977" fill="#8ff973" d="M 234.5,21.5 C 240.455,20.9939 246.122,21.9939 251.5,24.5C 255.63,29.2524 255.296,33.7524 250.5,38C 234.902,35.5748 225.069,42.0748 221,57.5C 218.635,67.7944 222.635,73.7944 233,75.5C 236.609,74.8949 239.443,73.0616 241.5,70C 239.384,70.2821 237.217,70.7821 235,71.5C 227.533,70.2457 224.866,65.9123 227,58.5C 228.731,56.3834 230.898,54.8834 233.5,54C 255.402,49.5599 262.569,57.7265 255,78.5C 246.903,89.9091 236.069,93.4091 222.5,89C 210.498,84.8188 204.498,76.3188 204.5,63.5C 205.771,42.9452 215.771,28.9452 234.5,21.5 Z"/></g>
<g><path style="opacity:0.951" fill="#73fbeb" d="M 321.5,26.5 C 331.107,24.9415 335.274,28.9415 334,38.5C 332.681,40.4875 330.848,41.6541 328.5,42C 321.777,42.9361 315.111,44.1028 308.5,45.5C 306.84,48.7698 306.506,52.1031 307.5,55.5C 313.114,54.3791 318.78,54.2124 324.5,55C 328.5,59.6667 328.5,64.3333 324.5,69C 317.833,70 311.167,71 304.5,72C 303.06,80.4686 301.56,88.9686 300,97.5C 292.169,101.665 287.336,99.4979 285.5,91C 287.968,72.0875 290.801,53.2542 294,34.5C 295.214,32.9512 296.714,31.7845 298.5,31C 306.343,29.6967 314.01,28.1967 321.5,26.5 Z"/></g>
<g><path style="opacity:0.985" fill="#fa778a" d="M 76.5,26.5 C 86.3778,25.8633 90.2111,30.1966 88,39.5C 86.8289,40.8932 85.3289,41.7265 83.5,42C 76.8524,43.1295 70.1857,44.1295 63.5,45C 61.8627,48.2846 61.1961,51.7846 61.5,55.5C 67.1296,54.4793 72.7963,54.3127 78.5,55C 82.0276,57.5814 83.1943,61.0814 82,65.5C 81.5348,66.9308 80.7014,68.0975 79.5,69C 72.5361,70.1633 65.5361,70.9966 58.5,71.5C 58.004,80.3058 56.6707,88.9724 54.5,97.5C 51.792,99.4357 48.792,99.9357 45.5,99C 43.3333,98.1667 41.8333,96.6667 41,94.5C 42.5086,75.0969 44.8419,55.7636 48,36.5C 49.1667,34 51,32.1667 53.5,31C 61.3297,29.6186 68.9964,28.1186 76.5,26.5 Z"/></g>
<g><path style="opacity:0.998" fill="#fe76ca" d="M 339.5,90.5 C 339.5,84.8333 339.5,79.1667 339.5,73.5C 340.624,61.9122 341.457,50.2455 342,38.5C 342.793,30.119 347.293,26.9524 355.5,29C 356.237,49.1518 355.403,69.3184 353,89.5C 350.089,93.2771 346.256,94.4437 341.5,93C 340.619,92.2917 339.953,91.4584 339.5,90.5 Z"/></g>
<g><path style="opacity:0.959" fill="#fbac73" d="M 98.5,30.5 C 102.462,30.067 105.628,31.4003 108,34.5C 108.255,44.1986 108.922,53.8652 110,63.5C 112.285,73.7362 116.951,75.0695 124,67.5C 125,65.5 126,63.5 127,61.5C 128.82,52.2153 130.153,42.882 131,33.5C 141.469,29.9192 146.303,34.0858 145.5,46C 145.511,57.7921 142.345,68.6255 136,78.5C 127.565,88.1505 117.398,90.6505 105.5,86C 98.8987,79.9648 95.0653,72.4648 94,63.5C 92.2307,53.794 92.2307,44.1273 94,34.5C 95.3968,32.9297 96.8968,31.5964 98.5,30.5 Z"/></g>
<g><path style="opacity:0.965" fill="#fbea73" d="M 188.5,30.5 C 196.225,28.4162 200.558,31.2496 201.5,39C 198.741,57.6456 195.241,76.1456 191,94.5C 187.662,97.3181 183.829,98.1515 179.5,97C 175.616,90.0638 172.116,82.8971 169,75.5C 167.251,84.2487 165.251,92.9153 163,101.5C 155.314,105.686 150.48,103.519 148.5,95C 151.625,78.6672 155.458,62.5005 160,46.5C 165.885,40.5732 170.885,41.2399 175,48.5C 176.804,53.5797 178.804,58.5797 181,63.5C 183.179,54.6033 184.846,45.6033 186,36.5C 186.236,34.1887 187.069,32.1887 188.5,30.5 Z"/></g>
<g><path style="opacity:0.012" fill="#fb8386" d="M 339.5,73.5 C 339.5,79.1667 339.5,84.8333 339.5,90.5C 338.007,89.6879 337.34,88.3545 337.5,86.5C 337.976,81.9932 338.643,77.6599 339.5,73.5 Z"/></g>
</svg>
