<?xml version="1.0" standalone="no"?>
<!DOCTYPE svg PUBLIC "-//W3C//DTD SVG 20010904//EN"
 "http://www.w3.org/TR/2001/REC-SVG-20010904/DTD/svg10.dtd">
<svg version="1.0" xmlns="http://www.w3.org/2000/svg"
 width="100.000000pt" height="40.000000pt" viewBox="0 0 100.000000 40.000000"
 preserveAspectRatio="xMidYMid meet">

<g transform="translate(0.000000,40.000000) scale(0.100000,-0.100000)"
fill="#000000" stroke="none">
<path d="M562 295 c-78 -55 -63 -165 23 -165 38 0 70 34 63 67 -4 23 -73 26
-73 3 0 -10 8 -14 22 -13 16 2 21 -2 17 -12 -8 -19 -48 -19 -64 0 -27 33 18
105 66 105 16 0 24 5 22 13 -7 18 -50 20 -76 2z"/>
<path d="M107 290 c-20 -4 -39 -9 -42 -12 -5 -5 -24 -131 -25 -160 0 -36 27
-18 34 22 5 34 10 40 30 40 30 0 55 27 33 36 -8 3 -22 4 -30 2 -9 -2 -16 0
-16 5 -3 31 1 37 27 37 15 0 33 4 40 9 23 14 -10 28 -51 21z"/>
<path d="M813 293 c-17 -2 -36 -10 -41 -16 -11 -14 -33 -157 -26 -169 12 -19
24 -5 30 32 5 32 11 40 28 40 29 0 50 15 41 30 -4 7 -17 9 -31 6 -21 -6 -24
-3 -24 19 0 21 5 25 28 25 34 0 57 14 48 29 -4 6 -10 10 -14 9 -4 0 -21 -3
-39 -5z"/>
<path d="M456 268 c-3 -13 -6 -33 -6 -45 0 -35 -20 -37 -31 -4 -18 51 -36 38
-53 -38 -20 -86 -20 -91 -1 -91 10 0 17 14 21 40 4 22 10 40 13 40 4 0 15 -16
24 -36 10 -19 21 -33 26 -30 8 5 29 97 34 150 3 35 -18 46 -27 14z"/>
<path d="M906 278 c-3 -7 -7 -46 -10 -85 -5 -60 -4 -73 8 -73 16 0 22 26 29
118 3 39 1 52 -10 52 -7 0 -15 -6 -17 -12z"/>
<path d="M192 224 c11 -131 123 -119 131 14 3 50 -26 53 -30 3 -3 -37 -27 -81
-43 -81 -15 0 -30 45 -30 86 0 25 -4 34 -16 34 -14 0 -16 -9 -12 -56z"/>
</g>
</svg>
