<svg xmlns="http://www.w3.org/2000/svg" width="30" viewBox="0 0 30 30" height="30" version="1.0"><defs><clipPath id="a"><path d="M 1.136719 0.652344 L 28.71875 0.652344 L 28.71875 28.234375 L 1.136719 28.234375 Z M 1.136719 0.652344"/></clipPath></defs><g clip-path="url(#a)"><path fill="#FFF" d="M 27.796875 25.015625 C 27.796875 25.777344 27.179688 26.394531 26.417969 26.394531 L 8.492188 26.394531 L 8.492188 15.824219 C 8.492188 15.570312 8.285156 15.363281 8.03125 15.363281 L 8.03125 14.269531 C 8.632812 14.113281 9.195312 13.859375 9.699219 13.523438 L 15.464844 13.523438 C 16.183594 13.523438 16.855469 13.804688 17.359375 14.308594 C 18.039062 14.988281 18.945312 15.363281 19.90625 15.363281 L 26.417969 15.363281 C 27.179688 15.363281 27.796875 15.980469 27.796875 16.742188 Z M 6.652344 27.316406 C 6.144531 27.316406 5.734375 26.902344 5.734375 26.394531 L 5.734375 25.933594 L 7.574219 25.933594 L 7.574219 26.394531 C 7.574219 26.902344 7.160156 27.316406 6.652344 27.316406 Z M 7.574219 18.121094 L 7.574219 25.015625 L 5.734375 25.015625 L 5.734375 18.121094 Z M 5.734375 16.28125 L 7.574219 16.28125 L 7.574219 17.203125 L 5.734375 17.203125 Z M 6.195312 14.425781 C 6.34375 14.4375 6.5 14.445312 6.652344 14.445312 C 6.808594 14.445312 6.960938 14.4375 7.113281 14.425781 L 7.113281 15.363281 L 6.195312 15.363281 Z M 2.054688 8.925781 C 2.054688 6.394531 4.117188 4.332031 6.652344 4.332031 C 9.1875 4.332031 11.25 6.394531 11.25 8.925781 C 11.25 11.460938 9.1875 13.523438 6.652344 13.523438 C 4.117188 13.523438 2.054688 11.460938 2.054688 8.925781 Z M 8.492188 1.574219 L 18.761719 1.574219 C 18.867188 1.574219 18.964844 1.585938 19.066406 1.605469 L 19.066406 4.789062 C 19.066406 5.550781 19.683594 6.167969 20.445312 6.167969 L 21.824219 6.167969 L 21.824219 5.25 L 20.445312 5.25 C 20.191406 5.25 19.984375 5.042969 19.984375 4.789062 L 19.984375 2.222656 L 23.257812 5.496094 C 23.519531 5.757812 23.660156 6.101562 23.660156 6.472656 L 23.660156 14.445312 L 19.90625 14.445312 C 19.1875 14.445312 18.515625 14.164062 18.011719 13.660156 C 17.332031 12.980469 16.425781 12.605469 15.464844 12.605469 L 10.761719 12.605469 C 11.636719 11.628906 12.167969 10.339844 12.167969 8.925781 C 12.167969 6.039062 9.941406 3.664062 7.113281 3.429688 L 7.113281 2.953125 C 7.113281 2.191406 7.730469 1.574219 8.492188 1.574219 Z M 26.417969 8.925781 C 27.179688 8.925781 27.796875 9.546875 27.796875 10.304688 L 27.796875 14.90625 C 27.414062 14.617188 26.9375 14.445312 26.417969 14.445312 L 24.582031 14.445312 L 24.582031 8.925781 Z M 26.417969 8.007812 L 24.582031 8.007812 L 24.582031 6.472656 C 24.582031 5.855469 24.339844 5.28125 23.90625 4.847656 L 20.386719 1.328125 C 19.953125 0.890625 19.375 0.652344 18.761719 0.652344 L 8.492188 0.652344 C 7.226562 0.652344 6.195312 1.683594 6.195312 2.953125 L 6.195312 3.429688 C 3.367188 3.664062 1.136719 6.039062 1.136719 8.925781 C 1.136719 11.492188 2.898438 13.65625 5.273438 14.269531 L 5.273438 15.363281 C 5.019531 15.363281 4.816406 15.570312 4.816406 15.824219 L 4.816406 26.394531 C 4.816406 27.410156 5.640625 28.234375 6.652344 28.234375 C 7.332031 28.234375 7.925781 27.863281 8.246094 27.316406 L 26.417969 27.316406 C 27.6875 27.316406 28.71875 26.285156 28.71875 25.015625 L 28.71875 10.304688 C 28.71875 9.039062 27.6875 8.007812 26.417969 8.007812"/></g><path fill="#FFF" d="M 12.628906 3.410156 L 10.789062 3.410156 L 10.789062 4.332031 L 12.628906 4.332031 L 12.628906 3.410156"/><path fill="#FFF" d="M 14.46875 8.925781 L 14.46875 8.007812 L 13.546875 8.007812 L 13.546875 8.925781 L 14.46875 8.925781"/><path fill="#FFF" d="M 15.386719 8.925781 L 17.683594 8.925781 L 17.683594 8.007812 L 15.386719 8.007812 L 15.386719 8.925781"/><path fill="#FFF" d="M 22.28125 8.007812 L 18.605469 8.007812 L 18.605469 8.925781 L 22.28125 8.925781 L 22.28125 8.007812"/><path fill="#FFF" d="M 13.546875 11.226562 L 19.066406 11.226562 L 19.066406 10.304688 L 13.546875 10.304688 L 13.546875 11.226562"/><path fill="#FFF" d="M 19.984375 11.226562 L 22.28125 11.226562 L 22.28125 10.304688 L 19.984375 10.304688 L 19.984375 11.226562"/><path fill="#FFF" d="M 17.226562 5.710938 L 12.628906 5.710938 L 12.628906 6.628906 L 17.226562 6.628906 L 17.226562 5.710938"/><path fill="#FFF" d="M 17.226562 3.410156 L 13.546875 3.410156 L 13.546875 4.332031 L 17.226562 4.332031 L 17.226562 3.410156"/></svg>