<?xml version="1.0" encoding="UTF-8"?><svg xmlns="http://www.w3.org/2000/svg" xmlns:xlink="http://www.w3.org/1999/xlink" contentScriptType="text/ecmascript" width="30" zoomAndPan="magnify" contentStyleType="text/css" viewBox="0 0 30 30.000001" height="30.000001" preserveAspectRatio="xMidYMid meet" version="1.0"><path fill="rgb(100%, 100%, 100%)" d="M 25.472656 4.058594 C 22.890625 1.472656 18.699219 1.472656 16.117188 4.058594 L 12.425781 7.753906 C 12.71875 7.722656 13.015625 7.707031 13.3125 7.707031 C 14.246094 7.707031 15.152344 7.855469 16.011719 8.144531 L 18.105469 6.050781 C 18.824219 5.332031 19.777344 4.933594 20.792969 4.933594 C 21.808594 4.933594 22.765625 5.332031 23.484375 6.050781 C 24.203125 6.769531 24.597656 7.722656 24.597656 8.742188 C 24.597656 9.757812 24.203125 10.714844 23.484375 11.433594 L 19.390625 15.53125 C 18.671875 16.253906 17.71875 16.648438 16.703125 16.648438 C 15.683594 16.648438 14.730469 16.253906 14.011719 15.53125 C 13.664062 15.183594 13.390625 14.777344 13.203125 14.335938 C 12.734375 14.359375 12.300781 14.554688 11.964844 14.886719 L 10.875 15.980469 C 11.175781 16.535156 11.558594 17.054688 12.023438 17.523438 C 14.605469 20.109375 18.796875 20.109375 21.378906 17.523438 L 25.472656 13.425781 C 28.054688 10.839844 28.054688 6.644531 25.472656 4.058594 Z M 25.472656 4.058594 " fill-opacity="1" fill-rule="nonzero"/><path fill="rgb(100%, 100%, 100%)" d="M 16.746094 21.367188 C 15.808594 21.367188 14.894531 21.214844 14.011719 20.917969 L 11.90625 23.027344 C 11.191406 23.746094 10.234375 24.140625 9.21875 24.140625 C 8.203125 24.140625 7.25 23.746094 6.53125 23.027344 C 5.8125 22.308594 5.414062 21.351562 5.414062 20.332031 C 5.414062 19.316406 5.8125 18.359375 6.53125 17.640625 L 10.621094 13.542969 C 11.339844 12.824219 12.296875 12.429688 13.3125 12.429688 C 14.328125 12.429688 15.28125 12.824219 16 13.542969 C 16.351562 13.890625 16.625 14.296875 16.8125 14.742188 C 17.28125 14.71875 17.714844 14.523438 18.050781 14.1875 L 19.136719 13.097656 C 18.839844 12.542969 18.457031 12.019531 17.988281 11.550781 C 15.40625 8.964844 11.21875 8.964844 8.632812 11.550781 L 4.542969 15.652344 C 1.957031 18.238281 1.957031 22.429688 4.542969 25.019531 C 7.125 27.605469 11.3125 27.605469 13.894531 25.019531 L 17.582031 21.328125 C 17.304688 21.355469 17.027344 21.367188 16.746094 21.367188 Z M 16.746094 21.367188 " fill-opacity="1" fill-rule="nonzero"/></svg>