{
    "asset" : {
        "generator" : "Khronos glTF Blender I/O v1.6.16",
        "version" : "2.0"
    },
    "scene" : 0,
    "scenes" : [
        {
            "name" : "Scene",
            "nodes" : [
                0,
                1,
                2,
                3
            ]
        }
    ],
    "nodes" : [
        {
            "name" : "Light",
            "rotation" : [
                0.16907575726509094,
                0.7558803558349609,
                -0.27217137813568115,
                0.570947527885437
            ],
            "translation" : [
                4.076245307922363,
                5.903861999511719,
                -1.0054539442062378
            ]
        },
        {
            "name" : "Camera",
            "rotation" : [
                0.483536034822464,
                0.33687159419059753,
                -0.20870360732078552,
                0.7804827094078064
            ],
            "translation" : [
                7.358891487121582,
                4.958309173583984,
                6.925790786743164
            ]
        },
        {
            "mesh" : 0,
            "name" : "Line001",
            "rotation" : [
                0.4999999701976776,
                -0.5000000596046448,
                0.5000000596046448,
                0.4999999403953552
            ],
            "scale" : [
                0.009999999776482582,
                0.009999999776482582,
                0.009999999776482582
            ],
            "translation" : [
                0.03446795046329498,
                0.9574131369590759,
                0.46590688824653625
            ]
        },
        {
            "mesh" : 1,
            "name" : "Line002",
            "rotation" : [
                0.7071068286895752,
                0,
                0,
                0.7071067094802856
            ],
            "scale" : [
                0.009999999776482582,
                0.009999999776482582,
                0.009999999776482582
            ],
            "translation" : [
                -0.4086015224456787,
                0.7003311514854431,
                -0.0661880150437355
            ]
        }
    ],
    "materials" : [
        {
            "doubleSided" : true,
            "name" : "Material.002",
            "pbrMetallicRoughness" : {
                "baseColorTexture" : {
                    "index" : 0
                },
                "metallicFactor" : 0,
                "roughnessFactor" : 0.5
            }
        },
        {
            "doubleSided" : true,
            "name" : "08 - Default.001",
            "normalTexture" : {
                "index" : 1,
                "scale" : 0.30000001192092896
            },
            "pbrMetallicRoughness" : {
                "baseColorTexture" : {
                    "index" : 2
                },
                "roughnessFactor" : 0.858578622341156
            }
        }
    ],
    "meshes" : [
        {
            "name" : "Malla.016",
            "primitives" : [
                {
                    "attributes" : {
                        "POSITION" : 0,
                        "NORMAL" : 1,
                        "TEXCOORD_0" : 2
                    },
                    "indices" : 3,
                    "material" : 0
                }
            ]
        },
        {
            "name" : "Malla.017",
            "primitives" : [
                {
                    "attributes" : {
                        "POSITION" : 4,
                        "NORMAL" : 5,
                        "TEXCOORD_0" : 6
                    },
                    "indices" : 7,
                    "material" : 1
                }
            ]
        }
    ],
    "textures" : [
        {
            "sampler" : 0,
            "source" : 0
        },
        {
            "sampler" : 0,
            "source" : 0
        },
        {
            "sampler" : 0,
            "source" : 1
        }
    ],
    "images" : [
        {
            "bufferView" : 4,
            "mimeType" : "image/jpeg",
            "name" : "09 - Normal"
        },
        {
            "bufferView" : 9,
            "mimeType" : "image/jpeg",
            "name" : "09 - Base_Color"
        }
    ],
    "accessors" : [
        {
            "bufferView" : 0,
            "componentType" : 5126,
            "count" : 3289,
            "max" : [
                45.198909759521484,
                97.45948791503906,
                93.18280792236328
            ],
            "min" : [
                -151.2173309326172,
                -97.5452880859375,
                -19.126279830932617
            ],
            "type" : "VEC3"
        },
        {
            "bufferView" : 1,
            "componentType" : 5126,
            "count" : 3289,
            "type" : "VEC3"
        },
        {
            "bufferView" : 2,
            "componentType" : 5126,
            "count" : 3289,
            "type" : "VEC2"
        },
        {
            "bufferView" : 3,
            "componentType" : 5123,
            "count" : 17916,
            "type" : "SCALAR"
        },
        {
            "bufferView" : 5,
            "componentType" : 5126,
            "count" : 3168,
            "max" : [
                125.89273071289062,
                82.68058776855469,
                29.86444091796875
            ],
            "min" : [
                -39.46843338012695,
                -82.68058776855469,
                -24.7742862701416
            ],
            "type" : "VEC3"
        },
        {
            "bufferView" : 6,
            "componentType" : 5126,
            "count" : 3168,
            "type" : "VEC3"
        },
        {
            "bufferView" : 7,
            "componentType" : 5126,
            "count" : 3168,
            "type" : "VEC2"
        },
        {
            "bufferView" : 8,
            "componentType" : 5123,
            "count" : 8712,
            "type" : "SCALAR"
        }
    ],
    "bufferViews" : [
        {
            "buffer" : 0,
            "byteLength" : 39468,
            "byteOffset" : 0
        },
        {
            "buffer" : 0,
            "byteLength" : 39468,
            "byteOffset" : 39468
        },
        {
            "buffer" : 0,
            "byteLength" : 26312,
            "byteOffset" : 78936
        },
        {
            "buffer" : 0,
            "byteLength" : 35832,
            "byteOffset" : 105248
        },
        {
            "buffer" : 0,
            "byteLength" : 1142533,
            "byteOffset" : 141080
        },
        {
            "buffer" : 0,
            "byteLength" : 38016,
            "byteOffset" : 1283616
        },
        {
            "buffer" : 0,
            "byteLength" : 38016,
            "byteOffset" : 1321632
        },
        {
            "buffer" : 0,
            "byteLength" : 25344,
            "byteOffset" : 1359648
        },
        {
            "buffer" : 0,
            "byteLength" : 17424,
            "byteOffset" : 1384992
        },
        {
            "buffer" : 0,
            "byteLength" : 280234,
            "byteOffset" : 1402416
        }
    ],
    "samplers" : [
        {
            "magFilter" : 9729,
            "minFilter" : 9987
        }
    ],
    "buffers" : [
        {
            "byteLength" : 1682652,
            "uri" : "data:application/octet-stream;base64,"
        }
    ]
}
