{
    "asset" : {
        "generator" : "Khronos glTF Blender I/O v1.6.16",
        "version" : "2.0"
    },
    "scene" : 0,
    "scenes" : [
        {
            "name" : "Scene",
            "nodes" : [
                0,
                1,
                2
            ]
        }
    ],
    "nodes" : [
        {
            "name" : "Light",
            "rotation" : [
                0.16907575726509094,
                0.7558803558349609,
                -0.27217137813568115,
                0.570947527885437
            ],
            "translation" : [
                4.076245307922363,
                5.903861999511719,
                -1.0054539442062378
            ]
        },
        {
            "name" : "Camera",
            "rotation" : [
                0.483536034822464,
                0.33687159419059753,
                -0.20870360732078552,
                0.7804827094078064
            ],
            "translation" : [
                7.358891487121582,
                4.958309173583984,
                6.925790786743164
            ]
        },
        {
            "mesh" : 0,
            "name" : "leg",
            "scale" : [
                0.08282320946455002,
                0.08334106206893921,
                0.08282320946455002
            ],
            "translation" : [
                0,
                -3,
                0
            ]
        }
    ],
    "materials" : [
        {
            "doubleSided" : true,
            "name" : "02 - Default",
            "pbrMetallicRoughness" : {}
        },
        {
            "doubleSided" : true,
            "name" : "01 - Default.002",
            "pbrMetallicRoughness" : {}
        },
        {
            "doubleSided" : true,
            "name" : "07 - Default",
            "pbrMetallicRoughness" : {}
        }
    ],
    "meshes" : [
        {
            "name" : "Malla.005",
            "primitives" : [
                {
                    "attributes" : {
                        "POSITION" : 0,
                        "NORMAL" : 1,
                        "TEXCOORD_0" : 2
                    },
                    "indices" : 3,
                    "material" : 0
                },
                {
                    "attributes" : {
                        "POSITION" : 4,
                        "NORMAL" : 5,
                        "TEXCOORD_0" : 6
                    },
                    "indices" : 7,
                    "material" : 1
                },
                {
                    "attributes" : {
                        "POSITION" : 8,
                        "NORMAL" : 9,
                        "TEXCOORD_0" : 10
                    },
                    "indices" : 11,
                    "material" : 2
                }
            ]
        }
    ],
    "accessors" : [
        {
            "bufferView" : 0,
            "componentType" : 5126,
            "count" : 282,
            "max" : [
                9.340200424194336,
                67.78931427001953,
                9.1983003616333
            ],
            "min" : [
                -9.340198516845703,
                -2.234710693359375,
                -9.1983003616333
            ],
            "type" : "VEC3"
        },
        {
            "bufferView" : 1,
            "componentType" : 5126,
            "count" : 282,
            "type" : "VEC3"
        },
        {
            "bufferView" : 2,
            "componentType" : 5126,
            "count" : 282,
            "type" : "VEC2"
        },
        {
            "bufferView" : 3,
            "componentType" : 5123,
            "count" : 1458,
            "type" : "SCALAR"
        },
        {
            "bufferView" : 4,
            "componentType" : 5126,
            "count" : 6813,
            "max" : [
                29.125518798828125,
                73.89301300048828,
                29.005126953125
            ],
            "min" : [
                -30.257362365722656,
                50.90500259399414,
                -30.594398498535156
            ],
            "type" : "VEC3"
        },
        {
            "bufferView" : 5,
            "componentType" : 5126,
            "count" : 6813,
            "type" : "VEC3"
        },
        {
            "bufferView" : 6,
            "componentType" : 5126,
            "count" : 6813,
            "type" : "VEC2"
        },
        {
            "bufferView" : 7,
            "componentType" : 5123,
            "count" : 27822,
            "type" : "SCALAR"
        },
        {
            "bufferView" : 8,
            "componentType" : 5126,
            "count" : 6500,
            "max" : [
                26.347572326660156,
                66.9525146484375,
                27.255802154541016
            ],
            "min" : [
                -29.049728393554688,
                33.51652145385742,
                -28.104097366333008
            ],
            "type" : "VEC3"
        },
        {
            "bufferView" : 9,
            "componentType" : 5126,
            "count" : 6500,
            "type" : "VEC3"
        },
        {
            "bufferView" : 10,
            "componentType" : 5126,
            "count" : 6500,
            "type" : "VEC2"
        },
        {
            "bufferView" : 11,
            "componentType" : 5123,
            "count" : 28758,
            "type" : "SCALAR"
        }
    ],
    "bufferViews" : [
        {
            "buffer" : 0,
            "byteLength" : 3384,
            "byteOffset" : 0
        },
        {
            "buffer" : 0,
            "byteLength" : 3384,
            "byteOffset" : 3384
        },
        {
            "buffer" : 0,
            "byteLength" : 2256,
            "byteOffset" : 6768
        },
        {
            "buffer" : 0,
            "byteLength" : 2916,
            "byteOffset" : 9024
        },
        {
            "buffer" : 0,
            "byteLength" : 81756,
            "byteOffset" : 11940
        },
        {
            "buffer" : 0,
            "byteLength" : 81756,
            "byteOffset" : 93696
        },
        {
            "buffer" : 0,
            "byteLength" : 54504,
            "byteOffset" : 175452
        },
        {
            "buffer" : 0,
            "byteLength" : 55644,
            "byteOffset" : 229956
        },
        {
            "buffer" : 0,
            "byteLength" : 78000,
            "byteOffset" : 285600
        },
        {
            "buffer" : 0,
            "byteLength" : 78000,
            "byteOffset" : 363600
        },
        {
            "buffer" : 0,
            "byteLength" : 52000,
            "byteOffset" : 441600
        },
        {
            "buffer" : 0,
            "byteLength" : 57516,
            "byteOffset" : 493600
        }
    ],
    "buffers" : [
        {
            "byteLength" : 551116,
            "uri" : "data:application/octet-stream;base64,"
        }
    ]
}
