<?xml version="1.0" encoding="UTF-8"?><svg xmlns="http://www.w3.org/2000/svg" xmlns:xlink="http://www.w3.org/1999/xlink" contentScriptType="text/ecmascript" width="30" zoomAndPan="magnify" contentStyleType="text/css" viewBox="0 0 30 30.000001" height="30.000001" preserveAspectRatio="xMidYMid meet" version="1.0"><defs><clipPath id="clip-0"><path d="M 10 13 L 20 13 L 20 23.117188 L 10 23.117188 Z M 10 13 " clip-rule="nonzero"/></clipPath><clipPath id="clip-1"><path d="M 6.179688 5.699219 L 23.601562 5.699219 L 23.601562 17 L 6.179688 17 Z M 6.179688 5.699219 " clip-rule="nonzero"/></clipPath><clipPath id="clip-2"><path d="M 6.179688 7 L 13 7 L 13 14 L 6.179688 14 Z M 6.179688 7 " clip-rule="nonzero"/></clipPath><clipPath id="clip-3"><path d="M 6.179688 7 L 23 7 L 23 14 L 6.179688 14 Z M 6.179688 7 " clip-rule="nonzero"/></clipPath></defs><path fill="rgb(100%, 92.158508%, 35.688782%)" d="M 15 1.453125 C 7.785156 1.453125 1.933594 7.300781 1.933594 14.515625 C 1.933594 21.730469 7.785156 27.582031 15 27.582031 C 22.214844 27.582031 28.066406 21.730469 28.066406 14.515625 C 28.066406 7.300781 22.214844 1.453125 15 1.453125 Z M 15 1.453125 " fill-opacity="1" fill-rule="nonzero"/><g clip-path="url(#clip-0)"><path fill="rgb(84.709167%, 74.899292%, 62.348938%)" d="M 19.246094 21.664062 C 19.246094 22.734375 18.378906 23.117188 17.308594 23.117188 L 12.472656 23.117188 C 11.402344 23.117188 10.535156 22.734375 10.535156 21.664062 C 10.535156 20.597656 11.988281 18.277344 11.988281 15.375 C 11.988281 12.472656 17.792969 12.472656 17.792969 15.375 C 17.792969 18.277344 19.246094 20.597656 19.246094 21.664062 Z M 19.246094 21.664062 " fill-opacity="1" fill-rule="nonzero"/></g><g clip-path="url(#clip-1)"><path fill="rgb(86.669922%, 18.03894%, 26.669312%)" d="M 22.957031 11.113281 L 22.953125 11.109375 C 22.492188 9.96875 21.792969 8.957031 20.917969 8.121094 C 19.351562 6.617188 17.234375 5.699219 14.890625 5.699219 C 12.78125 5.699219 10.84375 6.441406 9.339844 7.6875 C 8.277344 8.5625 7.429688 9.6875 6.882812 10.972656 C 6.433594 12.023438 6.179688 13.183594 6.179688 14.40625 C 6.179688 15.476562 7.046875 16.34375 8.117188 16.34375 L 21.664062 16.34375 C 22.734375 16.34375 23.601562 15.476562 23.601562 14.40625 C 23.601562 13.238281 23.367188 12.125 22.957031 11.113281 Z M 22.957031 11.113281 " fill-opacity="1" fill-rule="nonzero"/></g><g clip-path="url(#clip-2)"><path fill="rgb(100%, 100%, 96.469116%)" d="M 9.910156 13.722656 C 11.59375 13.722656 12.957031 12.359375 12.957031 10.675781 C 12.957031 8.996094 11.59375 7.632812 9.910156 7.632812 C 9.714844 7.632812 9.523438 7.652344 9.339844 7.6875 C 8.277344 8.5625 7.429688 9.6875 6.882812 10.972656 C 7.03125 12.515625 8.328125 13.722656 9.910156 13.722656 Z M 9.910156 13.722656 " fill-opacity="1" fill-rule="nonzero"/></g><g clip-path="url(#clip-3)"><path fill="rgb(100%, 100%, 96.469116%)" d="M 9.910156 7.753906 C 11.523438 7.753906 12.835938 9.066406 12.835938 10.675781 C 12.835938 12.289062 11.523438 13.601562 9.910156 13.601562 C 8.40625 13.601562 7.164062 12.480469 7.003906 10.992188 C 7.535156 9.761719 8.359375 8.660156 9.390625 7.800781 C 9.566406 7.769531 9.742188 7.753906 9.910156 7.753906 M 9.910156 7.632812 C 9.714844 7.632812 9.523438 7.652344 9.339844 7.6875 C 8.277344 8.5625 7.429688 9.6875 6.882812 10.972656 C 7.03125 12.515625 8.328125 13.722656 9.910156 13.722656 C 11.59375 13.722656 12.957031 12.359375 12.957031 10.675781 C 12.957031 8.996094 11.59375 7.632812 9.910156 7.632812 Z M 18.761719 10.292969 C 18.761719 11.496094 19.738281 12.472656 20.941406 12.472656 C 21.851562 12.472656 22.632812 11.910156 22.957031 11.113281 L 22.953125 11.109375 C 22.492188 9.96875 21.792969 8.957031 20.917969 8.121094 C 19.726562 8.128906 18.761719 9.097656 18.761719 10.292969 Z M 18.761719 10.292969 " fill-opacity="1" fill-rule="nonzero"/></g><path fill="rgb(100%, 100%, 96.469116%)" d="M 18.761719 13.441406 C 18.761719 13.726562 18.707031 14.007812 18.597656 14.273438 C 18.484375 14.539062 18.328125 14.773438 18.125 14.980469 C 17.921875 15.183594 17.683594 15.339844 17.417969 15.453125 C 17.152344 15.5625 16.875 15.617188 16.585938 15.617188 C 16.296875 15.617188 16.019531 15.5625 15.75 15.453125 C 15.484375 15.339844 15.25 15.183594 15.046875 14.980469 C 14.839844 14.773438 14.683594 14.539062 14.574219 14.273438 C 14.460938 14.007812 14.40625 13.726562 14.40625 13.441406 C 14.40625 13.152344 14.460938 12.871094 14.574219 12.605469 C 14.683594 12.339844 14.839844 12.105469 15.046875 11.898438 C 15.25 11.695312 15.484375 11.539062 15.75 11.429688 C 16.019531 11.316406 16.296875 11.261719 16.585938 11.261719 C 16.875 11.261719 17.152344 11.316406 17.417969 11.429688 C 17.683594 11.539062 17.921875 11.695312 18.125 11.898438 C 18.328125 12.105469 18.484375 12.339844 18.597656 12.605469 C 18.707031 12.871094 18.761719 13.152344 18.761719 13.441406 Z M 18.761719 13.441406 " fill-opacity="1" fill-rule="nonzero"/><path fill="rgb(100%, 100%, 96.469116%)" d="M 17.308594 8.117188 C 17.308594 8.308594 17.273438 8.496094 17.199219 8.671875 C 17.125 8.851562 17.019531 9.007812 16.886719 9.144531 C 16.75 9.28125 16.59375 9.382812 16.414062 9.457031 C 16.238281 9.53125 16.050781 9.570312 15.859375 9.570312 C 15.667969 9.570312 15.480469 9.53125 15.304688 9.457031 C 15.125 9.382812 14.96875 9.28125 14.832031 9.144531 C 14.695312 9.007812 14.589844 8.851562 14.519531 8.671875 C 14.445312 8.496094 14.40625 8.308594 14.40625 8.117188 C 14.40625 7.925781 14.445312 7.738281 14.519531 7.5625 C 14.589844 7.382812 14.695312 7.226562 14.832031 7.089844 C 14.96875 6.953125 15.125 6.847656 15.304688 6.777344 C 15.480469 6.703125 15.667969 6.664062 15.859375 6.664062 C 16.050781 6.664062 16.238281 6.703125 16.414062 6.777344 C 16.59375 6.847656 16.75 6.953125 16.886719 7.089844 C 17.019531 7.226562 17.125 7.382812 17.199219 7.5625 C 17.273438 7.738281 17.308594 7.925781 17.308594 8.117188 Z M 17.308594 8.117188 " fill-opacity="1" fill-rule="nonzero"/></svg>